<ttFont>
    <TTGlyph name=".notdef" xMin="30" yMin="-185" xMax="618" yMax="1000">
      <contour>
        <pt x="534" y="1000" on="1"/>
        <pt x="579" y="1000" on="0"/>
        <pt x="618" y="956" on="0"/>
        <pt x="618" y="915" on="1"/>
        <pt x="618" y="905" on="0"/>
        <pt x="612" y="806" on="0"/>
        <pt x="603" y="664" on="0"/>
        <pt x="591" y="496" on="0"/>
        <pt x="580" y="339" on="0"/>
        <pt x="570" y="210" on="0"/>
        <pt x="568" y="178" on="1"/>
        <pt x="564" y="125" on="0"/>
        <pt x="556" y="13" on="0"/>
        <pt x="549" y="-84" on="0"/>
        <pt x="545" y="-157" on="0"/>
        <pt x="545" y="-170" on="1"/>
        <pt x="545" y="-185" on="0"/>
        <pt x="529" y="-185" on="1"/>
        <pt x="111" y="-185" on="1"/>
        <pt x="67" y="-185" on="0"/>
        <pt x="30" y="-139" on="0"/>
        <pt x="30" y="-100" on="1"/>
        <pt x="30" y="-93" on="0"/>
        <pt x="33" y="-32" on="0"/>
        <pt x="39" y="59" on="0"/>
        <pt x="47" y="174" on="0"/>
        <pt x="55" y="296" on="0"/>
        <pt x="64" y="419" on="0"/>
        <pt x="72" y="527" on="0"/>
        <pt x="78" y="613" on="0"/>
        <pt x="80" y="637" on="1"/>
        <pt x="84" y="689" on="0"/>
        <pt x="92" y="802" on="0"/>
        <pt x="99" y="899" on="0"/>
        <pt x="103" y="972" on="0"/>
        <pt x="103" y="985" on="1"/>
        <pt x="103" y="1000" on="0"/>
        <pt x="119" y="1000" on="1"/>
      </contour>
      <contour>
        <pt x="405" y="-72" on="1"/>
        <pt x="471" y="887" on="1"/>
        <pt x="243" y="887" on="1"/>
        <pt x="241" y="857" on="0"/>
        <pt x="232" y="720" on="0"/>
        <pt x="219" y="540" on="0"/>
        <pt x="205" y="336" on="0"/>
        <pt x="191" y="142" on="0"/>
        <pt x="180" y="-22" on="0"/>
        <pt x="176" y="-72" on="1"/>
      </contour>
    </TTGlyph>
    <TTGlyph name="A" xMin="6" yMin="0" xMax="599" yMax="710">
      <contour>
        <pt x="366" y="710" on="1"/>
        <pt x="391" y="710" on="0"/>
        <pt x="424" y="691" on="0"/>
        <pt x="446" y="660" on="0"/>
        <pt x="460" y="620" on="0"/>
        <pt x="465" y="599" on="1"/>
        <pt x="505" y="437" on="0"/>
        <pt x="557" y="227" on="0"/>
        <pt x="587" y="98" on="0"/>
        <pt x="599" y="36" on="0"/>
        <pt x="599" y="24" on="1"/>
        <pt x="599" y="10" on="0"/>
        <pt x="586" y="0" on="0"/>
        <pt x="572" y="0" on="1"/>
        <pt x="521" y="0" on="1"/>
        <pt x="478" y="0" on="0"/>
        <pt x="427" y="21" on="0"/>
        <pt x="400" y="61" on="0"/>
        <pt x="388" y="118" on="0"/>
        <pt x="384" y="154" on="1"/>
        <pt x="210" y="154" on="1"/>
        <pt x="177" y="16" on="1"/>
        <pt x="172" y="0" on="0"/>
        <pt x="154" y="0" on="1"/>
        <pt x="101" y="0" on="1"/>
        <pt x="85" y="0" on="0"/>
        <pt x="51" y="7" on="0"/>
        <pt x="24" y="23" on="0"/>
        <pt x="6" y="48" on="0"/>
        <pt x="6" y="66" on="1"/>
        <pt x="6" y="88" on="0"/>
        <pt x="34" y="188" on="0"/>
        <pt x="77" y="315" on="0"/>
        <pt x="130" y="454" on="0"/>
        <pt x="180" y="578" on="0"/>
        <pt x="221" y="672" on="0"/>
        <pt x="232" y="691" on="1"/>
        <pt x="240" y="705" on="0"/>
        <pt x="253" y="710" on="0"/>
        <pt x="271" y="710" on="1"/>
      </contour>
      <contour>
        <pt x="246" y="299" on="1"/>
        <pt x="361" y="299" on="1"/>
        <pt x="319" y="563" on="1"/>
      </contour>
    </TTGlyph>
    <TTGlyph name="AE" xMin="-17" yMin="0" xMax="794" yMax="710">
      <contour>
        <pt x="486" y="0" on="1"/>
        <pt x="444" y="0" on="0"/>
        <pt x="397" y="21" on="0"/>
        <pt x="375" y="60" on="0"/>
        <pt x="371" y="118" on="0"/>
        <pt x="371" y="154" on="1"/>
        <pt x="197" y="154" on="1"/>
        <pt x="147" y="16" on="1"/>
        <pt x="145" y="11" on="0"/>
        <pt x="133" y="0" on="0"/>
        <pt x="122" y="0" on="1"/>
        <pt x="69" y="0" on="1"/>
        <pt x="54" y="0" on="0"/>
        <pt x="23" y="6" on="0"/>
        <pt x="-2" y="20" on="0"/>
        <pt x="-17" y="42" on="0"/>
        <pt x="-17" y="58" on="1"/>
        <pt x="-17" y="75" on="0"/>
        <pt x="20" y="171" on="0"/>
        <pt x="78" y="298" on="0"/>
        <pt x="149" y="442" on="0"/>
        <pt x="216" y="571" on="0"/>
        <pt x="272" y="671" on="0"/>
        <pt x="286" y="691" on="1"/>
        <pt x="292" y="700" on="0"/>
        <pt x="311" y="710" on="0"/>
        <pt x="327" y="710" on="1"/>
        <pt x="719" y="710" on="1"/>
        <pt x="725" y="710" on="0"/>
        <pt x="735" y="704" on="0"/>
        <pt x="735" y="696" on="1"/>
        <pt x="729" y="637" on="1"/>
        <pt x="727" y="622" on="0"/>
        <pt x="720" y="597" on="0"/>
        <pt x="704" y="580" on="0"/>
        <pt x="675" y="570" on="0"/>
        <pt x="652" y="570" on="1"/>
        <pt x="510" y="570" on="1"/>
        <pt x="515" y="531" on="0"/>
        <pt x="523" y="461" on="0"/>
        <pt x="527" y="429" on="1"/>
        <pt x="723" y="429" on="1"/>
        <pt x="729" y="429" on="0"/>
        <pt x="739" y="423" on="0"/>
        <pt x="739" y="415" on="1"/>
        <pt x="734" y="356" on="1"/>
        <pt x="731" y="326" on="0"/>
        <pt x="700" y="289" on="0"/>
        <pt x="656" y="289" on="1"/>
        <pt x="545" y="289" on="1"/>
        <pt x="562" y="140" on="1"/>
        <pt x="778" y="140" on="1"/>
        <pt x="784" y="140" on="0"/>
        <pt x="794" y="133" on="0"/>
        <pt x="794" y="126" on="1"/>
        <pt x="788" y="67" on="1"/>
        <pt x="786" y="52" on="0"/>
        <pt x="779" y="27" on="0"/>
        <pt x="763" y="10" on="0"/>
        <pt x="734" y="0" on="0"/>
        <pt x="711" y="0" on="1"/>
      </contour>
      <contour>
        <pt x="251" y="299" on="1"/>
        <pt x="357" y="299" on="1"/>
        <pt x="357" y="563" on="1"/>
      </contour>
    </TTGlyph>
    <TTGlyph name="AEacute" xMin="-17" yMin="0" xMax="794" yMax="964">
      <contour>
        <pt x="486" y="0" on="1"/>
        <pt x="444" y="0" on="0"/>
        <pt x="397" y="21" on="0"/>
        <pt x="375" y="60" on="0"/>
        <pt x="371" y="118" on="0"/>
        <pt x="371" y="154" on="1"/>
        <pt x="197" y="154" on="1"/>
        <pt x="147" y="16" on="1"/>
        <pt x="145" y="11" on="0"/>
        <pt x="133" y="0" on="0"/>
        <pt x="122" y="0" on="1"/>
        <pt x="69" y="0" on="1"/>
        <pt x="54" y="0" on="0"/>
        <pt x="23" y="6" on="0"/>
        <pt x="-2" y="20" on="0"/>
        <pt x="-17" y="42" on="0"/>
        <pt x="-17" y="58" on="1"/>
        <pt x="-17" y="75" on="0"/>
        <pt x="20" y="171" on="0"/>
        <pt x="78" y="298" on="0"/>
        <pt x="149" y="442" on="0"/>
        <pt x="216" y="571" on="0"/>
        <pt x="272" y="671" on="0"/>
        <pt x="286" y="691" on="1"/>
        <pt x="292" y="700" on="0"/>
        <pt x="311" y="710" on="0"/>
        <pt x="327" y="710" on="1"/>
        <pt x="719" y="710" on="1"/>
        <pt x="725" y="710" on="0"/>
        <pt x="735" y="704" on="0"/>
        <pt x="735" y="696" on="1"/>
        <pt x="729" y="637" on="1"/>
        <pt x="727" y="622" on="0"/>
        <pt x="720" y="597" on="0"/>
        <pt x="704" y="580" on="0"/>
        <pt x="675" y="570" on="0"/>
        <pt x="652" y="570" on="1"/>
        <pt x="510" y="570" on="1"/>
        <pt x="515" y="531" on="0"/>
        <pt x="523" y="461" on="0"/>
        <pt x="527" y="429" on="1"/>
        <pt x="723" y="429" on="1"/>
        <pt x="729" y="429" on="0"/>
        <pt x="739" y="423" on="0"/>
        <pt x="739" y="415" on="1"/>
        <pt x="734" y="356" on="1"/>
        <pt x="731" y="326" on="0"/>
        <pt x="700" y="289" on="0"/>
        <pt x="656" y="289" on="1"/>
        <pt x="545" y="289" on="1"/>
        <pt x="562" y="140" on="1"/>
        <pt x="778" y="140" on="1"/>
        <pt x="784" y="140" on="0"/>
        <pt x="794" y="133" on="0"/>
        <pt x="794" y="126" on="1"/>
        <pt x="788" y="67" on="1"/>
        <pt x="786" y="52" on="0"/>
        <pt x="779" y="27" on="0"/>
        <pt x="763" y="10" on="0"/>
        <pt x="734" y="0" on="0"/>
        <pt x="711" y="0" on="1"/>
      </contour>
      <contour>
        <pt x="251" y="299" on="1"/>
        <pt x="357" y="299" on="1"/>
        <pt x="357" y="563" on="1"/>
      </contour>
      <contour>
        <pt x="422" y="780" on="1"/>
        <pt x="411" y="780" on="0"/>
        <pt x="394" y="795" on="0"/>
        <pt x="382" y="815" on="0"/>
        <pt x="376" y="832" on="0"/>
        <pt x="376" y="835" on="1"/>
        <pt x="376" y="842" on="0"/>
        <pt x="416" y="884" on="0"/>
        <pt x="470" y="929" on="0"/>
        <pt x="523" y="964" on="0"/>
        <pt x="536" y="964" on="1"/>
        <pt x="545" y="964" on="0"/>
        <pt x="579" y="943" on="0"/>
        <pt x="611" y="916" on="0"/>
        <pt x="635" y="887" on="0"/>
        <pt x="635" y="880" on="1"/>
        <pt x="635" y="872" on="0"/>
        <pt x="608" y="851" on="0"/>
        <pt x="567" y="829" on="0"/>
        <pt x="517" y="807" on="0"/>
        <pt x="470" y="790" on="0"/>
        <pt x="431" y="780" on="0"/>
      </contour>
    </TTGlyph>
    <TTGlyph name="Aacute" xMin="6" yMin="0" xMax="599" yMax="964">
      <contour>
        <pt x="366" y="710" on="1"/>
        <pt x="391" y="710" on="0"/>
        <pt x="424" y="691" on="0"/>
        <pt x="446" y="660" on="0"/>
        <pt x="460" y="620" on="0"/>
        <pt x="465" y="599" on="1"/>
        <pt x="505" y="437" on="0"/>
        <pt x="557" y="227" on="0"/>
        <pt x="587" y="98" on="0"/>
        <pt x="599" y="36" on="0"/>
        <pt x="599" y="24" on="1"/>
        <pt x="599" y="10" on="0"/>
        <pt x="586" y="0" on="0"/>
        <pt x="572" y="0" on="1"/>
        <pt x="521" y="0" on="1"/>
        <pt x="478" y="0" on="0"/>
        <pt x="427" y="21" on="0"/>
        <pt x="400" y="61" on="0"/>
        <pt x="388" y="118" on="0"/>
        <pt x="384" y="154" on="1"/>
        <pt x="210" y="154" on="1"/>
        <pt x="177" y="16" on="1"/>
        <pt x="172" y="0" on="0"/>
        <pt x="154" y="0" on="1"/>
        <pt x="101" y="0" on="1"/>
        <pt x="85" y="0" on="0"/>
        <pt x="51" y="7" on="0"/>
        <pt x="24" y="23" on="0"/>
        <pt x="6" y="48" on="0"/>
        <pt x="6" y="66" on="1"/>
        <pt x="6" y="88" on="0"/>
        <pt x="34" y="188" on="0"/>
        <pt x="77" y="315" on="0"/>
        <pt x="130" y="454" on="0"/>
        <pt x="180" y="578" on="0"/>
        <pt x="221" y="672" on="0"/>
        <pt x="232" y="691" on="1"/>
        <pt x="240" y="705" on="0"/>
        <pt x="253" y="710" on="0"/>
        <pt x="271" y="710" on="1"/>
      </contour>
      <contour>
        <pt x="246" y="299" on="1"/>
        <pt x="361" y="299" on="1"/>
        <pt x="319" y="563" on="1"/>
      </contour>
      <contour>
        <pt x="332" y="780" on="1"/>
        <pt x="321" y="780" on="0"/>
        <pt x="304" y="795" on="0"/>
        <pt x="292" y="815" on="0"/>
        <pt x="286" y="832" on="0"/>
        <pt x="286" y="835" on="1"/>
        <pt x="286" y="842" on="0"/>
        <pt x="326" y="884" on="0"/>
        <pt x="380" y="929" on="0"/>
        <pt x="433" y="964" on="0"/>
        <pt x="446" y="964" on="1"/>
        <pt x="455" y="964" on="0"/>
        <pt x="489" y="943" on="0"/>
        <pt x="521" y="916" on="0"/>
        <pt x="545" y="887" on="0"/>
        <pt x="545" y="880" on="1"/>
        <pt x="545" y="872" on="0"/>
        <pt x="518" y="851" on="0"/>
        <pt x="477" y="829" on="0"/>
        <pt x="427" y="807" on="0"/>
        <pt x="380" y="790" on="0"/>
        <pt x="341" y="780" on="0"/>
      </contour>
    </TTGlyph>
    <TTGlyph name="Abreve" xMin="6" yMin="0" xMax="599" yMax="925">
      <contour>
        <pt x="366" y="710" on="1"/>
        <pt x="391" y="710" on="0"/>
        <pt x="424" y="691" on="0"/>
        <pt x="446" y="660" on="0"/>
        <pt x="460" y="620" on="0"/>
        <pt x="465" y="599" on="1"/>
        <pt x="505" y="437" on="0"/>
        <pt x="557" y="227" on="0"/>
        <pt x="587" y="98" on="0"/>
        <pt x="599" y="36" on="0"/>
        <pt x="599" y="24" on="1"/>
        <pt x="599" y="10" on="0"/>
        <pt x="586" y="0" on="0"/>
        <pt x="572" y="0" on="1"/>
        <pt x="521" y="0" on="1"/>
        <pt x="478" y="0" on="0"/>
        <pt x="427" y="21" on="0"/>
        <pt x="400" y="61" on="0"/>
        <pt x="388" y="118" on="0"/>
        <pt x="384" y="154" on="1"/>
        <pt x="210" y="154" on="1"/>
        <pt x="177" y="16" on="1"/>
        <pt x="172" y="0" on="0"/>
        <pt x="154" y="0" on="1"/>
        <pt x="101" y="0" on="1"/>
        <pt x="85" y="0" on="0"/>
        <pt x="51" y="7" on="0"/>
        <pt x="24" y="23" on="0"/>
        <pt x="6" y="48" on="0"/>
        <pt x="6" y="66" on="1"/>
        <pt x="6" y="88" on="0"/>
        <pt x="34" y="188" on="0"/>
        <pt x="77" y="315" on="0"/>
        <pt x="130" y="454" on="0"/>
        <pt x="180" y="578" on="0"/>
        <pt x="221" y="672" on="0"/>
        <pt x="232" y="691" on="1"/>
        <pt x="240" y="705" on="0"/>
        <pt x="253" y="710" on="0"/>
        <pt x="271" y="710" on="1"/>
      </contour>
      <contour>
        <pt x="246" y="299" on="1"/>
        <pt x="361" y="299" on="1"/>
        <pt x="319" y="563" on="1"/>
      </contour>
      <contour>
        <pt x="328" y="780" on="1"/>
        <pt x="287" y="780" on="0"/>
        <pt x="231" y="799" on="0"/>
        <pt x="195" y="827" on="0"/>
        <pt x="179" y="860" on="0"/>
        <pt x="179" y="874" on="1"/>
        <pt x="179" y="899" on="0"/>
        <pt x="219" y="925" on="0"/>
        <pt x="245" y="925" on="1"/>
        <pt x="268" y="925" on="0"/>
        <pt x="285" y="907" on="0"/>
        <pt x="297" y="884" on="0"/>
        <pt x="314" y="866" on="0"/>
        <pt x="337" y="866" on="1"/>
        <pt x="360" y="866" on="0"/>
        <pt x="386" y="884" on="0"/>
        <pt x="408" y="907" on="0"/>
        <pt x="438" y="925" on="0"/>
        <pt x="465" y="925" on="1"/>
        <pt x="508" y="925" on="0"/>
        <pt x="508" y="894" on="1"/>
        <pt x="508" y="877" on="0"/>
        <pt x="485" y="837" on="0"/>
        <pt x="440" y="803" on="0"/>
        <pt x="373" y="780" on="0"/>
      </contour>
    </TTGlyph>
    <TTGlyph name="Acircumflex" xMin="6" yMin="0" xMax="599" yMax="964">
      <contour>
        <pt x="366" y="710" on="1"/>
        <pt x="391" y="710" on="0"/>
        <pt x="424" y="691" on="0"/>
        <pt x="446" y="660" on="0"/>
        <pt x="460" y="620" on="0"/>
        <pt x="465" y="599" on="1"/>
        <pt x="505" y="437" on="0"/>
        <pt x="557" y="227" on="0"/>
        <pt x="587" y="98" on="0"/>
        <pt x="599" y="36" on="0"/>
        <pt x="599" y="24" on="1"/>
        <pt x="599" y="10" on="0"/>
        <pt x="586" y="0" on="0"/>
        <pt x="572" y="0" on="1"/>
        <pt x="521" y="0" on="1"/>
        <pt x="478" y="0" on="0"/>
        <pt x="427" y="21" on="0"/>
        <pt x="400" y="61" on="0"/>
        <pt x="388" y="118" on="0"/>
        <pt x="384" y="154" on="1"/>
        <pt x="210" y="154" on="1"/>
        <pt x="177" y="16" on="1"/>
        <pt x="172" y="0" on="0"/>
        <pt x="154" y="0" on="1"/>
        <pt x="101" y="0" on="1"/>
        <pt x="85" y="0" on="0"/>
        <pt x="51" y="7" on="0"/>
        <pt x="24" y="23" on="0"/>
        <pt x="6" y="48" on="0"/>
        <pt x="6" y="66" on="1"/>
        <pt x="6" y="88" on="0"/>
        <pt x="34" y="188" on="0"/>
        <pt x="77" y="315" on="0"/>
        <pt x="130" y="454" on="0"/>
        <pt x="180" y="578" on="0"/>
        <pt x="221" y="672" on="0"/>
        <pt x="232" y="691" on="1"/>
        <pt x="240" y="705" on="0"/>
        <pt x="253" y="710" on="0"/>
        <pt x="271" y="710" on="1"/>
      </contour>
      <contour>
        <pt x="246" y="299" on="1"/>
        <pt x="361" y="299" on="1"/>
        <pt x="319" y="563" on="1"/>
      </contour>
      <contour>
        <pt x="451" y="780" on="1"/>
        <pt x="442" y="780" on="0"/>
        <pt x="416" y="794" on="0"/>
        <pt x="387" y="817" on="0"/>
        <pt x="355" y="846" on="0"/>
        <pt x="340" y="862" on="1"/>
        <pt x="319" y="846" on="0"/>
        <pt x="274" y="817" on="0"/>
        <pt x="235" y="794" on="0"/>
        <pt x="204" y="780" on="0"/>
        <pt x="195" y="780" on="1"/>
        <pt x="188" y="780" on="0"/>
        <pt x="171" y="791" on="0"/>
        <pt x="156" y="806" on="0"/>
        <pt x="145" y="820" on="0"/>
        <pt x="145" y="823" on="1"/>
        <pt x="145" y="826" on="0"/>
        <pt x="170" y="851" on="0"/>
        <pt x="209" y="887" on="0"/>
        <pt x="256" y="929" on="0"/>
        <pt x="277" y="949" on="1"/>
        <pt x="285" y="956" on="0"/>
        <pt x="330" y="964" on="0"/>
        <pt x="353" y="964" on="1"/>
        <pt x="366" y="964" on="0"/>
        <pt x="401" y="958" on="0"/>
        <pt x="406" y="949" on="1"/>
        <pt x="424" y="928" on="0"/>
        <pt x="460" y="885" on="0"/>
        <pt x="488" y="849" on="0"/>
        <pt x="506" y="825" on="0"/>
        <pt x="506" y="823" on="1"/>
        <pt x="506" y="821" on="0"/>
        <pt x="494" y="807" on="0"/>
        <pt x="477" y="792" on="0"/>
        <pt x="458" y="780" on="0"/>
      </contour>
    </TTGlyph>
    <TTGlyph name="Adieresis" xMin="6" yMin="0" xMax="599" yMax="916">
      <contour>
        <pt x="366" y="710" on="1"/>
        <pt x="391" y="710" on="0"/>
        <pt x="424" y="691" on="0"/>
        <pt x="446" y="660" on="0"/>
        <pt x="460" y="620" on="0"/>
        <pt x="465" y="599" on="1"/>
        <pt x="505" y="437" on="0"/>
        <pt x="557" y="227" on="0"/>
        <pt x="587" y="98" on="0"/>
        <pt x="599" y="36" on="0"/>
        <pt x="599" y="24" on="1"/>
        <pt x="599" y="10" on="0"/>
        <pt x="586" y="0" on="0"/>
        <pt x="572" y="0" on="1"/>
        <pt x="521" y="0" on="1"/>
        <pt x="478" y="0" on="0"/>
        <pt x="427" y="21" on="0"/>
        <pt x="400" y="61" on="0"/>
        <pt x="388" y="118" on="0"/>
        <pt x="384" y="154" on="1"/>
        <pt x="210" y="154" on="1"/>
        <pt x="177" y="16" on="1"/>
        <pt x="172" y="0" on="0"/>
        <pt x="154" y="0" on="1"/>
        <pt x="101" y="0" on="1"/>
        <pt x="85" y="0" on="0"/>
        <pt x="51" y="7" on="0"/>
        <pt x="24" y="23" on="0"/>
        <pt x="6" y="48" on="0"/>
        <pt x="6" y="66" on="1"/>
        <pt x="6" y="88" on="0"/>
        <pt x="34" y="188" on="0"/>
        <pt x="77" y="315" on="0"/>
        <pt x="130" y="454" on="0"/>
        <pt x="180" y="578" on="0"/>
        <pt x="221" y="672" on="0"/>
        <pt x="232" y="691" on="1"/>
        <pt x="240" y="705" on="0"/>
        <pt x="253" y="710" on="0"/>
        <pt x="271" y="710" on="1"/>
      </contour>
      <contour>
        <pt x="246" y="299" on="1"/>
        <pt x="361" y="299" on="1"/>
        <pt x="319" y="563" on="1"/>
      </contour>
      <contour>
        <pt x="134" y="838" on="1"/>
        <pt x="134" y="874" on="0"/>
        <pt x="182" y="916" on="0"/>
        <pt x="223" y="916" on="1"/>
        <pt x="259" y="916" on="0"/>
        <pt x="292" y="884" on="0"/>
        <pt x="292" y="858" on="1"/>
        <pt x="292" y="825" on="0"/>
        <pt x="246" y="780" on="0"/>
        <pt x="202" y="780" on="1"/>
        <pt x="134" y="780" on="0"/>
      </contour>
      <contour>
        <pt x="362" y="838" on="1"/>
        <pt x="362" y="874" on="0"/>
        <pt x="410" y="916" on="0"/>
        <pt x="451" y="916" on="1"/>
        <pt x="487" y="916" on="0"/>
        <pt x="520" y="884" on="0"/>
        <pt x="520" y="858" on="1"/>
        <pt x="520" y="825" on="0"/>
        <pt x="474" y="780" on="0"/>
        <pt x="430" y="780" on="1"/>
        <pt x="362" y="780" on="0"/>
      </contour>
    </TTGlyph>
    <TTGlyph name="Agrave" xMin="6" yMin="0" xMax="599" yMax="960">
      <contour>
        <pt x="366" y="710" on="1"/>
        <pt x="391" y="710" on="0"/>
        <pt x="424" y="691" on="0"/>
        <pt x="446" y="660" on="0"/>
        <pt x="460" y="620" on="0"/>
        <pt x="465" y="599" on="1"/>
        <pt x="505" y="437" on="0"/>
        <pt x="557" y="227" on="0"/>
        <pt x="587" y="98" on="0"/>
        <pt x="599" y="36" on="0"/>
        <pt x="599" y="24" on="1"/>
        <pt x="599" y="10" on="0"/>
        <pt x="586" y="0" on="0"/>
        <pt x="572" y="0" on="1"/>
        <pt x="521" y="0" on="1"/>
        <pt x="478" y="0" on="0"/>
        <pt x="427" y="21" on="0"/>
        <pt x="400" y="61" on="0"/>
        <pt x="388" y="118" on="0"/>
        <pt x="384" y="154" on="1"/>
        <pt x="210" y="154" on="1"/>
        <pt x="177" y="16" on="1"/>
        <pt x="172" y="0" on="0"/>
        <pt x="154" y="0" on="1"/>
        <pt x="101" y="0" on="1"/>
        <pt x="85" y="0" on="0"/>
        <pt x="51" y="7" on="0"/>
        <pt x="24" y="23" on="0"/>
        <pt x="6" y="48" on="0"/>
        <pt x="6" y="66" on="1"/>
        <pt x="6" y="88" on="0"/>
        <pt x="34" y="188" on="0"/>
        <pt x="77" y="315" on="0"/>
        <pt x="130" y="454" on="0"/>
        <pt x="180" y="578" on="0"/>
        <pt x="221" y="672" on="0"/>
        <pt x="232" y="691" on="1"/>
        <pt x="240" y="705" on="0"/>
        <pt x="253" y="710" on="0"/>
        <pt x="271" y="710" on="1"/>
      </contour>
      <contour>
        <pt x="246" y="299" on="1"/>
        <pt x="361" y="299" on="1"/>
        <pt x="319" y="563" on="1"/>
      </contour>
      <contour>
        <pt x="368" y="843" on="1"/>
        <pt x="368" y="835" on="0"/>
        <pt x="361" y="813" on="0"/>
        <pt x="350" y="794" on="0"/>
        <pt x="335" y="780" on="0"/>
        <pt x="327" y="780" on="1"/>
        <pt x="305" y="780" on="0"/>
        <pt x="243" y="798" on="0"/>
        <pt x="186" y="822" on="0"/>
        <pt x="146" y="848" on="0"/>
        <pt x="146" y="856" on="1"/>
        <pt x="146" y="868" on="0"/>
        <pt x="165" y="903" on="0"/>
        <pt x="190" y="936" on="0"/>
        <pt x="217" y="960" on="0"/>
        <pt x="226" y="960" on="1"/>
        <pt x="231" y="960" on="0"/>
        <pt x="256" y="944" on="0"/>
        <pt x="287" y="921" on="0"/>
        <pt x="322" y="892" on="0"/>
        <pt x="350" y="866" on="0"/>
        <pt x="368" y="846" on="0"/>
      </contour>
    </TTGlyph>
    <TTGlyph name="Amacron" xMin="6" yMin="0" xMax="599" yMax="907">
      <contour>
        <pt x="366" y="710" on="1"/>
        <pt x="391" y="710" on="0"/>
        <pt x="424" y="691" on="0"/>
        <pt x="446" y="660" on="0"/>
        <pt x="460" y="620" on="0"/>
        <pt x="465" y="599" on="1"/>
        <pt x="505" y="437" on="0"/>
        <pt x="557" y="227" on="0"/>
        <pt x="587" y="98" on="0"/>
        <pt x="599" y="36" on="0"/>
        <pt x="599" y="24" on="1"/>
        <pt x="599" y="10" on="0"/>
        <pt x="586" y="0" on="0"/>
        <pt x="572" y="0" on="1"/>
        <pt x="521" y="0" on="1"/>
        <pt x="478" y="0" on="0"/>
        <pt x="427" y="21" on="0"/>
        <pt x="400" y="61" on="0"/>
        <pt x="388" y="118" on="0"/>
        <pt x="384" y="154" on="1"/>
        <pt x="210" y="154" on="1"/>
        <pt x="177" y="16" on="1"/>
        <pt x="172" y="0" on="0"/>
        <pt x="154" y="0" on="1"/>
        <pt x="101" y="0" on="1"/>
        <pt x="85" y="0" on="0"/>
        <pt x="51" y="7" on="0"/>
        <pt x="24" y="23" on="0"/>
        <pt x="6" y="48" on="0"/>
        <pt x="6" y="66" on="1"/>
        <pt x="6" y="88" on="0"/>
        <pt x="34" y="188" on="0"/>
        <pt x="77" y="315" on="0"/>
        <pt x="130" y="454" on="0"/>
        <pt x="180" y="578" on="0"/>
        <pt x="221" y="672" on="0"/>
        <pt x="232" y="691" on="1"/>
        <pt x="240" y="705" on="0"/>
        <pt x="253" y="710" on="0"/>
        <pt x="271" y="710" on="1"/>
      </contour>
      <contour>
        <pt x="246" y="299" on="1"/>
        <pt x="361" y="299" on="1"/>
        <pt x="319" y="563" on="1"/>
      </contour>
      <contour>
        <pt x="172" y="800" on="1"/>
        <pt x="161" y="800" on="0"/>
        <pt x="161" y="811" on="1"/>
        <pt x="161" y="828" on="0"/>
        <pt x="163" y="862" on="0"/>
        <pt x="177" y="890" on="0"/>
        <pt x="207" y="907" on="0"/>
        <pt x="234" y="907" on="1"/>
        <pt x="506" y="907" on="1"/>
        <pt x="512" y="907" on="0"/>
        <pt x="522" y="900" on="0"/>
        <pt x="522" y="893" on="1"/>
        <pt x="522" y="872" on="0"/>
        <pt x="517" y="838" on="0"/>
        <pt x="501" y="814" on="0"/>
        <pt x="470" y="800" on="0"/>
        <pt x="444" y="800" on="1"/>
      </contour>
    </TTGlyph>
    <TTGlyph name="Aogonek" xMin="6" yMin="-195" xMax="599" yMax="710">
      <contour>
        <pt x="366" y="710" on="1"/>
        <pt x="391" y="710" on="0"/>
        <pt x="424" y="691" on="0"/>
        <pt x="446" y="660" on="0"/>
        <pt x="460" y="620" on="0"/>
        <pt x="465" y="599" on="1"/>
        <pt x="505" y="437" on="0"/>
        <pt x="557" y="227" on="0"/>
        <pt x="587" y="98" on="0"/>
        <pt x="599" y="36" on="0"/>
        <pt x="599" y="24" on="1"/>
        <pt x="599" y="10" on="0"/>
        <pt x="586" y="0" on="0"/>
        <pt x="572" y="0" on="1"/>
        <pt x="534" y="0" on="1"/>
        <pt x="497" y="-40" on="0"/>
        <pt x="497" y="-73" on="1"/>
        <pt x="497" y="-90" on="0"/>
        <pt x="513" y="-112" on="0"/>
        <pt x="533" y="-127" on="0"/>
        <pt x="549" y="-138" on="0"/>
        <pt x="549" y="-144" on="1"/>
        <pt x="549" y="-149" on="0"/>
        <pt x="534" y="-167" on="0"/>
        <pt x="508" y="-183" on="0"/>
        <pt x="472" y="-195" on="0"/>
        <pt x="450" y="-195" on="1"/>
        <pt x="409" y="-195" on="0"/>
        <pt x="371" y="-154" on="0"/>
        <pt x="371" y="-125" on="1"/>
        <pt x="371" y="-94" on="0"/>
        <pt x="414" y="-29" on="0"/>
        <pt x="465" y="6" on="1"/>
        <pt x="441" y="12" on="0"/>
        <pt x="413" y="38" on="0"/>
        <pt x="396" y="76" on="0"/>
        <pt x="387" y="125" on="0"/>
        <pt x="384" y="154" on="1"/>
        <pt x="210" y="154" on="1"/>
        <pt x="177" y="16" on="1"/>
        <pt x="172" y="0" on="0"/>
        <pt x="154" y="0" on="1"/>
        <pt x="101" y="0" on="1"/>
        <pt x="85" y="0" on="0"/>
        <pt x="51" y="7" on="0"/>
        <pt x="24" y="23" on="0"/>
        <pt x="6" y="48" on="0"/>
        <pt x="6" y="66" on="1"/>
        <pt x="6" y="88" on="0"/>
        <pt x="34" y="188" on="0"/>
        <pt x="77" y="315" on="0"/>
        <pt x="130" y="454" on="0"/>
        <pt x="180" y="578" on="0"/>
        <pt x="221" y="672" on="0"/>
        <pt x="232" y="691" on="1"/>
        <pt x="240" y="705" on="0"/>
        <pt x="253" y="710" on="0"/>
        <pt x="271" y="710" on="1"/>
      </contour>
      <contour>
        <pt x="246" y="299" on="1"/>
        <pt x="361" y="299" on="1"/>
        <pt x="319" y="563" on="1"/>
      </contour>
    </TTGlyph>
    <TTGlyph name="Aring" xMin="6" yMin="0" xMax="599" yMax="931">
      <contour>
        <pt x="366" y="710" on="1"/>
        <pt x="391" y="710" on="0"/>
        <pt x="424" y="691" on="0"/>
        <pt x="446" y="660" on="0"/>
        <pt x="460" y="620" on="0"/>
        <pt x="465" y="599" on="1"/>
        <pt x="505" y="437" on="0"/>
        <pt x="557" y="227" on="0"/>
        <pt x="587" y="98" on="0"/>
        <pt x="599" y="36" on="0"/>
        <pt x="599" y="24" on="1"/>
        <pt x="599" y="10" on="0"/>
        <pt x="586" y="0" on="0"/>
        <pt x="572" y="0" on="1"/>
        <pt x="521" y="0" on="1"/>
        <pt x="478" y="0" on="0"/>
        <pt x="427" y="21" on="0"/>
        <pt x="400" y="61" on="0"/>
        <pt x="388" y="118" on="0"/>
        <pt x="384" y="154" on="1"/>
        <pt x="210" y="154" on="1"/>
        <pt x="177" y="16" on="1"/>
        <pt x="172" y="0" on="0"/>
        <pt x="154" y="0" on="1"/>
        <pt x="101" y="0" on="1"/>
        <pt x="85" y="0" on="0"/>
        <pt x="51" y="7" on="0"/>
        <pt x="24" y="23" on="0"/>
        <pt x="6" y="48" on="0"/>
        <pt x="6" y="66" on="1"/>
        <pt x="6" y="88" on="0"/>
        <pt x="34" y="188" on="0"/>
        <pt x="77" y="315" on="0"/>
        <pt x="130" y="454" on="0"/>
        <pt x="180" y="578" on="0"/>
        <pt x="221" y="672" on="0"/>
        <pt x="232" y="691" on="1"/>
        <pt x="240" y="705" on="0"/>
        <pt x="253" y="710" on="0"/>
        <pt x="271" y="710" on="1"/>
      </contour>
      <contour>
        <pt x="246" y="299" on="1"/>
        <pt x="361" y="299" on="1"/>
        <pt x="319" y="563" on="1"/>
      </contour>
      <contour>
        <pt x="340" y="931" on="1"/>
        <pt x="383" y="931" on="0"/>
        <pt x="426" y="894" on="0"/>
        <pt x="426" y="866" on="1"/>
        <pt x="426" y="855" on="0"/>
        <pt x="418" y="825" on="0"/>
        <pt x="396" y="798" on="0"/>
        <pt x="358" y="780" on="0"/>
        <pt x="328" y="780" on="1"/>
        <pt x="281" y="780" on="0"/>
        <pt x="243" y="822" on="0"/>
        <pt x="243" y="848" on="1"/>
        <pt x="243" y="863" on="0"/>
        <pt x="254" y="893" on="0"/>
        <pt x="278" y="916" on="0"/>
        <pt x="314" y="931" on="0"/>
      </contour>
      <contour>
        <pt x="336" y="882" on="1"/>
        <pt x="322" y="882" on="0"/>
        <pt x="310" y="864" on="0"/>
        <pt x="310" y="853" on="1"/>
        <pt x="310" y="843" on="0"/>
        <pt x="320" y="828" on="0"/>
        <pt x="332" y="828" on="1"/>
        <pt x="348" y="828" on="0"/>
        <pt x="358" y="851" on="0"/>
        <pt x="358" y="859" on="1"/>
        <pt x="358" y="869" on="0"/>
        <pt x="347" y="882" on="0"/>
      </contour>
    </TTGlyph>
    <TTGlyph name="Aringacute" xMin="6" yMin="0" xMax="599" yMax="956">
      <contour>
        <pt x="341" y="942" on="1"/>
        <pt x="346" y="942" on="0"/>
        <pt x="356" y="942" on="0"/>
        <pt x="361" y="941" on="1"/>
        <pt x="376" y="948" on="0"/>
        <pt x="400" y="956" on="0"/>
        <pt x="408" y="956" on="1"/>
        <pt x="417" y="956" on="0"/>
        <pt x="450" y="935" on="0"/>
        <pt x="483" y="908" on="0"/>
        <pt x="507" y="879" on="0"/>
        <pt x="507" y="872" on="1"/>
        <pt x="507" y="861" on="0"/>
        <pt x="460" y="833" on="0"/>
        <pt x="425" y="818" on="1"/>
        <pt x="414" y="798" on="0"/>
        <pt x="368" y="770" on="0"/>
        <pt x="327" y="770" on="1"/>
        <pt x="308" y="770" on="0"/>
        <pt x="293" y="773" on="1"/>
        <pt x="252" y="762" on="0"/>
        <pt x="234" y="762" on="1"/>
        <pt x="223" y="762" on="0"/>
        <pt x="206" y="777" on="0"/>
        <pt x="194" y="797" on="0"/>
        <pt x="188" y="814" on="0"/>
        <pt x="188" y="817" on="1"/>
        <pt x="188" y="822" on="0"/>
        <pt x="211" y="844" on="0"/>
        <pt x="230" y="858" on="1"/>
        <pt x="232" y="874" on="0"/>
        <pt x="247" y="904" on="0"/>
        <pt x="274" y="928" on="0"/>
        <pt x="314" y="942" on="0"/>
      </contour>
      <contour>
        <pt x="337" y="890" on="1"/>
        <pt x="315" y="890" on="0"/>
        <pt x="294" y="867" on="0"/>
        <pt x="294" y="853" on="1"/>
        <pt x="294" y="840" on="0"/>
        <pt x="310" y="819" on="0"/>
        <pt x="331" y="819" on="1"/>
        <pt x="344" y="819" on="0"/>
        <pt x="361" y="828" on="0"/>
        <pt x="370" y="841" on="0"/>
        <pt x="373" y="855" on="0"/>
        <pt x="373" y="861" on="1"/>
        <pt x="373" y="873" on="0"/>
        <pt x="356" y="890" on="0"/>
      </contour>
      <contour>
        <pt x="366" y="710" on="1"/>
        <pt x="391" y="710" on="0"/>
        <pt x="424" y="691" on="0"/>
        <pt x="446" y="660" on="0"/>
        <pt x="460" y="620" on="0"/>
        <pt x="465" y="599" on="1"/>
        <pt x="505" y="437" on="0"/>
        <pt x="557" y="227" on="0"/>
        <pt x="587" y="98" on="0"/>
        <pt x="599" y="36" on="0"/>
        <pt x="599" y="24" on="1"/>
        <pt x="599" y="10" on="0"/>
        <pt x="586" y="0" on="0"/>
        <pt x="572" y="0" on="1"/>
        <pt x="521" y="0" on="1"/>
        <pt x="478" y="0" on="0"/>
        <pt x="427" y="21" on="0"/>
        <pt x="400" y="61" on="0"/>
        <pt x="388" y="118" on="0"/>
        <pt x="384" y="154" on="1"/>
        <pt x="210" y="154" on="1"/>
        <pt x="177" y="16" on="1"/>
        <pt x="172" y="0" on="0"/>
        <pt x="154" y="0" on="1"/>
        <pt x="101" y="0" on="1"/>
        <pt x="85" y="0" on="0"/>
        <pt x="51" y="7" on="0"/>
        <pt x="24" y="23" on="0"/>
        <pt x="6" y="48" on="0"/>
        <pt x="6" y="66" on="1"/>
        <pt x="6" y="88" on="0"/>
        <pt x="34" y="188" on="0"/>
        <pt x="77" y="315" on="0"/>
        <pt x="130" y="454" on="0"/>
        <pt x="180" y="578" on="0"/>
        <pt x="221" y="672" on="0"/>
        <pt x="232" y="691" on="1"/>
        <pt x="240" y="705" on="0"/>
        <pt x="253" y="710" on="0"/>
        <pt x="271" y="710" on="1"/>
      </contour>
      <contour>
        <pt x="246" y="299" on="1"/>
        <pt x="361" y="299" on="1"/>
        <pt x="319" y="563" on="1"/>
      </contour>
    </TTGlyph>
    <TTGlyph name="Atilde" xMin="6" yMin="0" xMax="599" yMax="955">
      <contour>
        <pt x="366" y="710" on="1"/>
        <pt x="391" y="710" on="0"/>
        <pt x="424" y="691" on="0"/>
        <pt x="446" y="660" on="0"/>
        <pt x="460" y="620" on="0"/>
        <pt x="465" y="599" on="1"/>
        <pt x="505" y="437" on="0"/>
        <pt x="557" y="227" on="0"/>
        <pt x="587" y="98" on="0"/>
        <pt x="599" y="36" on="0"/>
        <pt x="599" y="24" on="1"/>
        <pt x="599" y="10" on="0"/>
        <pt x="586" y="0" on="0"/>
        <pt x="572" y="0" on="1"/>
        <pt x="521" y="0" on="1"/>
        <pt x="478" y="0" on="0"/>
        <pt x="427" y="21" on="0"/>
        <pt x="400" y="61" on="0"/>
        <pt x="388" y="118" on="0"/>
        <pt x="384" y="154" on="1"/>
        <pt x="210" y="154" on="1"/>
        <pt x="177" y="16" on="1"/>
        <pt x="172" y="0" on="0"/>
        <pt x="154" y="0" on="1"/>
        <pt x="101" y="0" on="1"/>
        <pt x="85" y="0" on="0"/>
        <pt x="51" y="7" on="0"/>
        <pt x="24" y="23" on="0"/>
        <pt x="6" y="48" on="0"/>
        <pt x="6" y="66" on="1"/>
        <pt x="6" y="88" on="0"/>
        <pt x="34" y="188" on="0"/>
        <pt x="77" y="315" on="0"/>
        <pt x="130" y="454" on="0"/>
        <pt x="180" y="578" on="0"/>
        <pt x="221" y="672" on="0"/>
        <pt x="232" y="691" on="1"/>
        <pt x="240" y="705" on="0"/>
        <pt x="253" y="710" on="0"/>
        <pt x="271" y="710" on="1"/>
      </contour>
      <contour>
        <pt x="246" y="299" on="1"/>
        <pt x="361" y="299" on="1"/>
        <pt x="319" y="563" on="1"/>
      </contour>
      <contour>
        <pt x="415" y="895" on="1"/>
        <pt x="436" y="895" on="0"/>
        <pt x="468" y="914" on="0"/>
        <pt x="493" y="936" on="0"/>
        <pt x="513" y="955" on="0"/>
        <pt x="522" y="955" on="1"/>
        <pt x="527" y="955" on="0"/>
        <pt x="542" y="942" on="0"/>
        <pt x="542" y="916" on="1"/>
        <pt x="542" y="893" on="0"/>
        <pt x="525" y="844" on="0"/>
        <pt x="490" y="805" on="0"/>
        <pt x="436" y="780" on="0"/>
        <pt x="399" y="780" on="1"/>
        <pt x="364" y="780" on="0"/>
        <pt x="318" y="800" on="0"/>
        <pt x="282" y="825" on="0"/>
        <pt x="251" y="845" on="0"/>
        <pt x="230" y="845" on="1"/>
        <pt x="209" y="845" on="0"/>
        <pt x="181" y="825" on="0"/>
        <pt x="159" y="800" on="0"/>
        <pt x="142" y="780" on="0"/>
        <pt x="132" y="780" on="1"/>
        <pt x="127" y="780" on="0"/>
        <pt x="112" y="794" on="0"/>
        <pt x="112" y="820" on="1"/>
        <pt x="112" y="842" on="0"/>
        <pt x="126" y="889" on="0"/>
        <pt x="158" y="929" on="0"/>
        <pt x="209" y="955" on="0"/>
        <pt x="247" y="955" on="1"/>
        <pt x="280" y="955" on="0"/>
        <pt x="325" y="936" on="0"/>
        <pt x="361" y="914" on="0"/>
        <pt x="394" y="895" on="0"/>
      </contour>
    </TTGlyph>
    <TTGlyph name="B" xMin="51" yMin="-10" xMax="566" yMax="718">
      <contour>
        <pt x="248" y="-10" on="1"/>
        <pt x="189" y="-10" on="0"/>
        <pt x="113" y="5" on="0"/>
        <pt x="68" y="34" on="0"/>
        <pt x="51" y="78" on="0"/>
        <pt x="51" y="108" on="1"/>
        <pt x="51" y="117" on="0"/>
        <pt x="53" y="150" on="0"/>
        <pt x="57" y="210" on="0"/>
        <pt x="64" y="305" on="0"/>
        <pt x="70" y="377" on="1"/>
        <pt x="77" y="466" on="0"/>
        <pt x="85" y="570" on="0"/>
        <pt x="89" y="627" on="0"/>
        <pt x="90" y="650" on="0"/>
        <pt x="90" y="658" on="1"/>
        <pt x="90" y="674" on="0"/>
        <pt x="91" y="694" on="0"/>
        <pt x="94" y="705" on="0"/>
        <pt x="101" y="710" on="0"/>
        <pt x="108" y="710" on="1"/>
        <pt x="167" y="714" on="0"/>
        <pt x="250" y="718" on="0"/>
        <pt x="281" y="718" on="1"/>
        <pt x="357" y="718" on="0"/>
        <pt x="466" y="693" on="0"/>
        <pt x="534" y="647" on="0"/>
        <pt x="566" y="579" on="0"/>
        <pt x="566" y="536" on="1"/>
        <pt x="566" y="512" on="0"/>
        <pt x="556" y="461" on="0"/>
        <pt x="532" y="415" on="0"/>
        <pt x="491" y="380" on="0"/>
        <pt x="460" y="372" on="1"/>
        <pt x="518" y="354" on="0"/>
        <pt x="566" y="271" on="0"/>
        <pt x="566" y="214" on="1"/>
        <pt x="566" y="168" on="0"/>
        <pt x="536" y="87" on="0"/>
        <pt x="462" y="26" on="0"/>
        <pt x="340" y="-10" on="0"/>
      </contour>
      <contour>
        <pt x="305" y="300" on="1"/>
        <pt x="294" y="300" on="0"/>
        <pt x="262" y="297" on="0"/>
        <pt x="245" y="294" on="1"/>
        <pt x="234" y="131" on="1"/>
        <pt x="270" y="120" on="0"/>
        <pt x="299" y="120" on="1"/>
        <pt x="330" y="120" on="0"/>
        <pt x="368" y="138" on="0"/>
        <pt x="389" y="165" on="0"/>
        <pt x="396" y="198" on="0"/>
        <pt x="396" y="212" on="1"/>
        <pt x="396" y="249" on="0"/>
        <pt x="355" y="300" on="0"/>
      </contour>
      <contour>
        <pt x="263" y="575" on="1"/>
        <pt x="261" y="549" on="0"/>
        <pt x="258" y="479" on="0"/>
        <pt x="255" y="438" on="1"/>
        <pt x="287" y="430" on="0"/>
        <pt x="312" y="430" on="1"/>
        <pt x="342" y="430" on="0"/>
        <pt x="378" y="444" on="0"/>
        <pt x="399" y="466" on="0"/>
        <pt x="406" y="492" on="0"/>
        <pt x="406" y="504" on="1"/>
        <pt x="406" y="535" on="0"/>
        <pt x="365" y="580" on="0"/>
        <pt x="315" y="580" on="1"/>
        <pt x="304" y="580" on="0"/>
        <pt x="277" y="577" on="0"/>
      </contour>
    </TTGlyph>
    <TTGlyph name="C" xMin="39" yMin="-10" xMax="606" yMax="720">
      <contour>
        <pt x="351" y="146" on="1"/>
        <pt x="392" y="146" on="0"/>
        <pt x="449" y="170" on="0"/>
        <pt x="489" y="200" on="0"/>
        <pt x="520" y="224" on="0"/>
        <pt x="536" y="224" on="1"/>
        <pt x="556" y="224" on="0"/>
        <pt x="556" y="194" on="1"/>
        <pt x="556" y="178" on="0"/>
        <pt x="548" y="133" on="0"/>
        <pt x="541" y="105" on="1"/>
        <pt x="537" y="88" on="0"/>
        <pt x="506" y="48" on="0"/>
        <pt x="452" y="13" on="0"/>
        <pt x="373" y="-10" on="0"/>
        <pt x="322" y="-10" on="1"/>
        <pt x="271" y="-10" on="0"/>
        <pt x="169" y="20" on="0"/>
        <pt x="89" y="92" on="0"/>
        <pt x="39" y="214" on="0"/>
        <pt x="39" y="306" on="1"/>
        <pt x="39" y="339" on="0"/>
        <pt x="48" y="426" on="0"/>
        <pt x="74" y="518" on="0"/>
        <pt x="121" y="607" on="0"/>
        <pt x="195" y="677" on="0"/>
        <pt x="302" y="720" on="0"/>
        <pt x="376" y="720" on="1"/>
        <pt x="435" y="720" on="0"/>
        <pt x="522" y="692" on="0"/>
        <pt x="579" y="643" on="0"/>
        <pt x="606" y="577" on="0"/>
        <pt x="606" y="540" on="1"/>
        <pt x="606" y="476" on="0"/>
        <pt x="531" y="417" on="0"/>
        <pt x="462" y="417" on="1"/>
        <pt x="440" y="417" on="0"/>
        <pt x="429" y="424" on="0"/>
        <pt x="429" y="435" on="1"/>
        <pt x="428" y="469" on="0"/>
        <pt x="426" y="519" on="0"/>
        <pt x="414" y="552" on="0"/>
        <pt x="389" y="567" on="0"/>
        <pt x="367" y="567" on="1"/>
        <pt x="335" y="567" on="0"/>
        <pt x="290" y="540" on="0"/>
        <pt x="259" y="497" on="0"/>
        <pt x="240" y="443" on="0"/>
        <pt x="229" y="387" on="0"/>
        <pt x="226" y="335" on="0"/>
        <pt x="226" y="316" on="1"/>
        <pt x="226" y="224" on="0"/>
        <pt x="287" y="146" on="0"/>
      </contour>
    </TTGlyph>
    <TTGlyph name="Cacute" xMin="39" yMin="-10" xMax="608" yMax="964">
      <contour>
        <pt x="351" y="146" on="1"/>
        <pt x="392" y="146" on="0"/>
        <pt x="449" y="170" on="0"/>
        <pt x="489" y="200" on="0"/>
        <pt x="520" y="224" on="0"/>
        <pt x="536" y="224" on="1"/>
        <pt x="556" y="224" on="0"/>
        <pt x="556" y="194" on="1"/>
        <pt x="556" y="178" on="0"/>
        <pt x="548" y="133" on="0"/>
        <pt x="541" y="105" on="1"/>
        <pt x="537" y="88" on="0"/>
        <pt x="506" y="48" on="0"/>
        <pt x="452" y="13" on="0"/>
        <pt x="373" y="-10" on="0"/>
        <pt x="322" y="-10" on="1"/>
        <pt x="271" y="-10" on="0"/>
        <pt x="169" y="20" on="0"/>
        <pt x="89" y="92" on="0"/>
        <pt x="39" y="214" on="0"/>
        <pt x="39" y="306" on="1"/>
        <pt x="39" y="339" on="0"/>
        <pt x="48" y="426" on="0"/>
        <pt x="74" y="518" on="0"/>
        <pt x="121" y="607" on="0"/>
        <pt x="195" y="677" on="0"/>
        <pt x="302" y="720" on="0"/>
        <pt x="376" y="720" on="1"/>
        <pt x="435" y="720" on="0"/>
        <pt x="522" y="692" on="0"/>
        <pt x="579" y="643" on="0"/>
        <pt x="606" y="577" on="0"/>
        <pt x="606" y="540" on="1"/>
        <pt x="606" y="476" on="0"/>
        <pt x="531" y="417" on="0"/>
        <pt x="462" y="417" on="1"/>
        <pt x="440" y="417" on="0"/>
        <pt x="429" y="424" on="0"/>
        <pt x="429" y="435" on="1"/>
        <pt x="428" y="469" on="0"/>
        <pt x="426" y="519" on="0"/>
        <pt x="414" y="552" on="0"/>
        <pt x="389" y="567" on="0"/>
        <pt x="367" y="567" on="1"/>
        <pt x="335" y="567" on="0"/>
        <pt x="290" y="540" on="0"/>
        <pt x="259" y="497" on="0"/>
        <pt x="240" y="443" on="0"/>
        <pt x="229" y="387" on="0"/>
        <pt x="226" y="335" on="0"/>
        <pt x="226" y="316" on="1"/>
        <pt x="226" y="224" on="0"/>
        <pt x="287" y="146" on="0"/>
      </contour>
      <contour>
        <pt x="395" y="780" on="1"/>
        <pt x="384" y="780" on="0"/>
        <pt x="367" y="795" on="0"/>
        <pt x="355" y="815" on="0"/>
        <pt x="349" y="832" on="0"/>
        <pt x="349" y="835" on="1"/>
        <pt x="349" y="842" on="0"/>
        <pt x="389" y="884" on="0"/>
        <pt x="443" y="929" on="0"/>
        <pt x="496" y="964" on="0"/>
        <pt x="509" y="964" on="1"/>
        <pt x="518" y="964" on="0"/>
        <pt x="552" y="943" on="0"/>
        <pt x="584" y="916" on="0"/>
        <pt x="608" y="887" on="0"/>
        <pt x="608" y="880" on="1"/>
        <pt x="608" y="872" on="0"/>
        <pt x="581" y="851" on="0"/>
        <pt x="540" y="829" on="0"/>
        <pt x="490" y="807" on="0"/>
        <pt x="443" y="790" on="0"/>
        <pt x="404" y="780" on="0"/>
      </contour>
    </TTGlyph>
    <TTGlyph name="Ccaron" xMin="39" yMin="-10" xMax="606" yMax="964">
      <contour>
        <pt x="351" y="146" on="1"/>
        <pt x="392" y="146" on="0"/>
        <pt x="449" y="170" on="0"/>
        <pt x="489" y="200" on="0"/>
        <pt x="520" y="224" on="0"/>
        <pt x="536" y="224" on="1"/>
        <pt x="556" y="224" on="0"/>
        <pt x="556" y="194" on="1"/>
        <pt x="556" y="178" on="0"/>
        <pt x="548" y="133" on="0"/>
        <pt x="541" y="105" on="1"/>
        <pt x="537" y="88" on="0"/>
        <pt x="506" y="48" on="0"/>
        <pt x="452" y="13" on="0"/>
        <pt x="373" y="-10" on="0"/>
        <pt x="322" y="-10" on="1"/>
        <pt x="271" y="-10" on="0"/>
        <pt x="169" y="20" on="0"/>
        <pt x="89" y="92" on="0"/>
        <pt x="39" y="214" on="0"/>
        <pt x="39" y="306" on="1"/>
        <pt x="39" y="339" on="0"/>
        <pt x="48" y="426" on="0"/>
        <pt x="74" y="518" on="0"/>
        <pt x="121" y="607" on="0"/>
        <pt x="195" y="677" on="0"/>
        <pt x="302" y="720" on="0"/>
        <pt x="376" y="720" on="1"/>
        <pt x="435" y="720" on="0"/>
        <pt x="522" y="692" on="0"/>
        <pt x="579" y="643" on="0"/>
        <pt x="606" y="577" on="0"/>
        <pt x="606" y="540" on="1"/>
        <pt x="606" y="476" on="0"/>
        <pt x="531" y="417" on="0"/>
        <pt x="462" y="417" on="1"/>
        <pt x="440" y="417" on="0"/>
        <pt x="429" y="424" on="0"/>
        <pt x="429" y="435" on="1"/>
        <pt x="428" y="469" on="0"/>
        <pt x="426" y="519" on="0"/>
        <pt x="414" y="552" on="0"/>
        <pt x="389" y="567" on="0"/>
        <pt x="367" y="567" on="1"/>
        <pt x="335" y="567" on="0"/>
        <pt x="290" y="540" on="0"/>
        <pt x="259" y="497" on="0"/>
        <pt x="240" y="443" on="0"/>
        <pt x="229" y="387" on="0"/>
        <pt x="226" y="335" on="0"/>
        <pt x="226" y="316" on="1"/>
        <pt x="226" y="224" on="0"/>
        <pt x="287" y="146" on="0"/>
      </contour>
      <contour>
        <pt x="293" y="964" on="1"/>
        <pt x="302" y="964" on="0"/>
        <pt x="328" y="950" on="0"/>
        <pt x="357" y="927" on="0"/>
        <pt x="389" y="898" on="0"/>
        <pt x="404" y="882" on="1"/>
        <pt x="425" y="898" on="0"/>
        <pt x="470" y="927" on="0"/>
        <pt x="509" y="950" on="0"/>
        <pt x="540" y="964" on="0"/>
        <pt x="549" y="964" on="1"/>
        <pt x="556" y="964" on="0"/>
        <pt x="573" y="953" on="0"/>
        <pt x="588" y="938" on="0"/>
        <pt x="599" y="924" on="0"/>
        <pt x="599" y="921" on="1"/>
        <pt x="599" y="918" on="0"/>
        <pt x="573" y="893" on="0"/>
        <pt x="534" y="856" on="0"/>
        <pt x="488" y="814" on="0"/>
        <pt x="467" y="795" on="1"/>
        <pt x="459" y="788" on="0"/>
        <pt x="413" y="780" on="0"/>
        <pt x="391" y="780" on="1"/>
        <pt x="378" y="780" on="0"/>
        <pt x="343" y="786" on="0"/>
        <pt x="338" y="795" on="1"/>
        <pt x="320" y="816" on="0"/>
        <pt x="284" y="859" on="0"/>
        <pt x="256" y="895" on="0"/>
        <pt x="238" y="919" on="0"/>
        <pt x="238" y="921" on="1"/>
        <pt x="238" y="923" on="0"/>
        <pt x="250" y="937" on="0"/>
        <pt x="267" y="952" on="0"/>
        <pt x="286" y="964" on="0"/>
      </contour>
    </TTGlyph>
    <TTGlyph name="Ccedilla" xMin="40" yMin="-200" xMax="607" yMax="720">
      <contour>
        <pt x="352" y="146" on="1"/>
        <pt x="393" y="146" on="0"/>
        <pt x="450" y="170" on="0"/>
        <pt x="490" y="200" on="0"/>
        <pt x="521" y="224" on="0"/>
        <pt x="537" y="224" on="1"/>
        <pt x="557" y="224" on="0"/>
        <pt x="557" y="194" on="1"/>
        <pt x="557" y="178" on="0"/>
        <pt x="549" y="133" on="0"/>
        <pt x="542" y="105" on="1"/>
        <pt x="538" y="89" on="0"/>
        <pt x="509" y="51" on="0"/>
        <pt x="459" y="17" on="0"/>
        <pt x="388" y="-7" on="0"/>
        <pt x="341" y="-9" on="1"/>
        <pt x="337" y="-40" on="1"/>
        <pt x="382" y="-40" on="0"/>
        <pt x="433" y="-69" on="0"/>
        <pt x="433" y="-105" on="1"/>
        <pt x="433" y="-147" on="0"/>
        <pt x="365" y="-200" on="0"/>
        <pt x="311" y="-200" on="1"/>
        <pt x="300" y="-200" on="0"/>
        <pt x="269" y="-197" on="0"/>
        <pt x="242" y="-186" on="0"/>
        <pt x="223" y="-167" on="0"/>
        <pt x="223" y="-151" on="1"/>
        <pt x="223" y="-138" on="0"/>
        <pt x="234" y="-109" on="0"/>
        <pt x="242" y="-109" on="1"/>
        <pt x="246" y="-109" on="0"/>
        <pt x="255" y="-117" on="0"/>
        <pt x="268" y="-128" on="0"/>
        <pt x="287" y="-136" on="0"/>
        <pt x="300" y="-136" on="1"/>
        <pt x="314" y="-136" on="0"/>
        <pt x="334" y="-126" on="0"/>
        <pt x="334" y="-115" on="1"/>
        <pt x="334" y="-103" on="0"/>
        <pt x="311" y="-89" on="0"/>
        <pt x="282" y="-80" on="0"/>
        <pt x="259" y="-73" on="0"/>
        <pt x="259" y="-70" on="1"/>
        <pt x="259" y="-60" on="0"/>
        <pt x="267" y="-24" on="0"/>
        <pt x="273" y="-6" on="1"/>
        <pt x="228" y="0" on="0"/>
        <pt x="143" y="38" on="0"/>
        <pt x="79" y="112" on="0"/>
        <pt x="40" y="225" on="0"/>
        <pt x="40" y="306" on="1"/>
        <pt x="40" y="339" on="0"/>
        <pt x="49" y="426" on="0"/>
        <pt x="75" y="518" on="0"/>
        <pt x="122" y="607" on="0"/>
        <pt x="196" y="677" on="0"/>
        <pt x="303" y="720" on="0"/>
        <pt x="377" y="720" on="1"/>
        <pt x="436" y="720" on="0"/>
        <pt x="523" y="692" on="0"/>
        <pt x="580" y="643" on="0"/>
        <pt x="607" y="577" on="0"/>
        <pt x="607" y="540" on="1"/>
        <pt x="607" y="476" on="0"/>
        <pt x="532" y="417" on="0"/>
        <pt x="463" y="417" on="1"/>
        <pt x="441" y="417" on="0"/>
        <pt x="430" y="424" on="0"/>
        <pt x="430" y="435" on="1"/>
        <pt x="429" y="469" on="0"/>
        <pt x="427" y="519" on="0"/>
        <pt x="415" y="552" on="0"/>
        <pt x="390" y="567" on="0"/>
        <pt x="368" y="567" on="1"/>
        <pt x="336" y="567" on="0"/>
        <pt x="291" y="540" on="0"/>
        <pt x="260" y="497" on="0"/>
        <pt x="241" y="443" on="0"/>
        <pt x="230" y="387" on="0"/>
        <pt x="227" y="335" on="0"/>
        <pt x="227" y="316" on="1"/>
        <pt x="227" y="224" on="0"/>
        <pt x="288" y="146" on="0"/>
      </contour>
    </TTGlyph>
    <TTGlyph name="Ccircumflex" xMin="39" yMin="-10" xMax="606" yMax="964">
      <contour>
        <pt x="351" y="146" on="1"/>
        <pt x="392" y="146" on="0"/>
        <pt x="449" y="170" on="0"/>
        <pt x="489" y="200" on="0"/>
        <pt x="520" y="224" on="0"/>
        <pt x="536" y="224" on="1"/>
        <pt x="556" y="224" on="0"/>
        <pt x="556" y="194" on="1"/>
        <pt x="556" y="178" on="0"/>
        <pt x="548" y="133" on="0"/>
        <pt x="541" y="105" on="1"/>
        <pt x="537" y="88" on="0"/>
        <pt x="506" y="48" on="0"/>
        <pt x="452" y="13" on="0"/>
        <pt x="373" y="-10" on="0"/>
        <pt x="322" y="-10" on="1"/>
        <pt x="271" y="-10" on="0"/>
        <pt x="169" y="20" on="0"/>
        <pt x="89" y="92" on="0"/>
        <pt x="39" y="214" on="0"/>
        <pt x="39" y="306" on="1"/>
        <pt x="39" y="339" on="0"/>
        <pt x="48" y="426" on="0"/>
        <pt x="74" y="518" on="0"/>
        <pt x="121" y="607" on="0"/>
        <pt x="195" y="677" on="0"/>
        <pt x="302" y="720" on="0"/>
        <pt x="376" y="720" on="1"/>
        <pt x="435" y="720" on="0"/>
        <pt x="522" y="692" on="0"/>
        <pt x="579" y="643" on="0"/>
        <pt x="606" y="577" on="0"/>
        <pt x="606" y="540" on="1"/>
        <pt x="606" y="476" on="0"/>
        <pt x="531" y="417" on="0"/>
        <pt x="462" y="417" on="1"/>
        <pt x="440" y="417" on="0"/>
        <pt x="429" y="424" on="0"/>
        <pt x="429" y="435" on="1"/>
        <pt x="428" y="469" on="0"/>
        <pt x="426" y="519" on="0"/>
        <pt x="414" y="552" on="0"/>
        <pt x="389" y="567" on="0"/>
        <pt x="367" y="567" on="1"/>
        <pt x="335" y="567" on="0"/>
        <pt x="290" y="540" on="0"/>
        <pt x="259" y="497" on="0"/>
        <pt x="240" y="443" on="0"/>
        <pt x="229" y="387" on="0"/>
        <pt x="226" y="335" on="0"/>
        <pt x="226" y="316" on="1"/>
        <pt x="226" y="224" on="0"/>
        <pt x="287" y="146" on="0"/>
      </contour>
      <contour>
        <pt x="514" y="780" on="1"/>
        <pt x="505" y="780" on="0"/>
        <pt x="479" y="794" on="0"/>
        <pt x="450" y="817" on="0"/>
        <pt x="418" y="846" on="0"/>
        <pt x="403" y="862" on="1"/>
        <pt x="382" y="846" on="0"/>
        <pt x="337" y="817" on="0"/>
        <pt x="298" y="794" on="0"/>
        <pt x="267" y="780" on="0"/>
        <pt x="258" y="780" on="1"/>
        <pt x="251" y="780" on="0"/>
        <pt x="234" y="791" on="0"/>
        <pt x="219" y="806" on="0"/>
        <pt x="208" y="820" on="0"/>
        <pt x="208" y="823" on="1"/>
        <pt x="208" y="826" on="0"/>
        <pt x="233" y="851" on="0"/>
        <pt x="272" y="887" on="0"/>
        <pt x="319" y="929" on="0"/>
        <pt x="340" y="949" on="1"/>
        <pt x="348" y="956" on="0"/>
        <pt x="393" y="964" on="0"/>
        <pt x="416" y="964" on="1"/>
        <pt x="429" y="964" on="0"/>
        <pt x="464" y="958" on="0"/>
        <pt x="469" y="949" on="1"/>
        <pt x="487" y="928" on="0"/>
        <pt x="523" y="885" on="0"/>
        <pt x="551" y="849" on="0"/>
        <pt x="569" y="825" on="0"/>
        <pt x="569" y="823" on="1"/>
        <pt x="569" y="821" on="0"/>
        <pt x="557" y="807" on="0"/>
        <pt x="540" y="792" on="0"/>
        <pt x="521" y="780" on="0"/>
      </contour>
    </TTGlyph>
    <TTGlyph name="Cdotaccent" xMin="39" yMin="-10" xMax="606" yMax="930">
      <contour>
        <pt x="351" y="146" on="1"/>
        <pt x="392" y="146" on="0"/>
        <pt x="449" y="170" on="0"/>
        <pt x="489" y="200" on="0"/>
        <pt x="520" y="224" on="0"/>
        <pt x="536" y="224" on="1"/>
        <pt x="556" y="224" on="0"/>
        <pt x="556" y="194" on="1"/>
        <pt x="556" y="178" on="0"/>
        <pt x="548" y="133" on="0"/>
        <pt x="541" y="105" on="1"/>
        <pt x="537" y="88" on="0"/>
        <pt x="506" y="48" on="0"/>
        <pt x="452" y="13" on="0"/>
        <pt x="373" y="-10" on="0"/>
        <pt x="322" y="-10" on="1"/>
        <pt x="271" y="-10" on="0"/>
        <pt x="169" y="20" on="0"/>
        <pt x="89" y="92" on="0"/>
        <pt x="39" y="214" on="0"/>
        <pt x="39" y="306" on="1"/>
        <pt x="39" y="339" on="0"/>
        <pt x="48" y="426" on="0"/>
        <pt x="74" y="518" on="0"/>
        <pt x="121" y="607" on="0"/>
        <pt x="195" y="677" on="0"/>
        <pt x="302" y="720" on="0"/>
        <pt x="376" y="720" on="1"/>
        <pt x="435" y="720" on="0"/>
        <pt x="522" y="692" on="0"/>
        <pt x="579" y="643" on="0"/>
        <pt x="606" y="577" on="0"/>
        <pt x="606" y="540" on="1"/>
        <pt x="606" y="476" on="0"/>
        <pt x="531" y="417" on="0"/>
        <pt x="462" y="417" on="1"/>
        <pt x="440" y="417" on="0"/>
        <pt x="429" y="424" on="0"/>
        <pt x="429" y="435" on="1"/>
        <pt x="428" y="469" on="0"/>
        <pt x="426" y="519" on="0"/>
        <pt x="414" y="552" on="0"/>
        <pt x="389" y="567" on="0"/>
        <pt x="367" y="567" on="1"/>
        <pt x="335" y="567" on="0"/>
        <pt x="290" y="540" on="0"/>
        <pt x="259" y="497" on="0"/>
        <pt x="240" y="443" on="0"/>
        <pt x="229" y="387" on="0"/>
        <pt x="226" y="335" on="0"/>
        <pt x="226" y="316" on="1"/>
        <pt x="226" y="224" on="0"/>
        <pt x="287" y="146" on="0"/>
      </contour>
      <contour>
        <pt x="310" y="844" on="1"/>
        <pt x="310" y="884" on="0"/>
        <pt x="368" y="930" on="0"/>
        <pt x="417" y="930" on="1"/>
        <pt x="460" y="930" on="0"/>
        <pt x="499" y="895" on="0"/>
        <pt x="499" y="866" on="1"/>
        <pt x="499" y="829" on="0"/>
        <pt x="444" y="780" on="0"/>
        <pt x="391" y="780" on="1"/>
        <pt x="310" y="780" on="0"/>
      </contour>
    </TTGlyph>
    <TTGlyph name="D" xMin="51" yMin="-10" xMax="631" yMax="719">
      <contour>
        <pt x="92" y="695" on="1"/>
        <pt x="93" y="703" on="0"/>
        <pt x="104" y="710" on="0"/>
        <pt x="109" y="710" on="1"/>
        <pt x="177" y="710" on="0"/>
        <pt x="296" y="719" on="0"/>
        <pt x="330" y="719" on="1"/>
        <pt x="415" y="719" on="0"/>
        <pt x="530" y="685" on="0"/>
        <pt x="601" y="613" on="0"/>
        <pt x="631" y="499" on="0"/>
        <pt x="631" y="419" on="1"/>
        <pt x="631" y="338" on="0"/>
        <pt x="598" y="183" on="0"/>
        <pt x="516" y="63" on="0"/>
        <pt x="377" y="-10" on="0"/>
        <pt x="271" y="-10" on="1"/>
        <pt x="222" y="-10" on="0"/>
        <pt x="141" y="-6" on="0"/>
        <pt x="83" y="14" on="0"/>
        <pt x="51" y="54" on="0"/>
        <pt x="51" y="89" on="1"/>
        <pt x="51" y="102" on="0"/>
        <pt x="54" y="154" on="0"/>
        <pt x="59" y="226" on="0"/>
        <pt x="66" y="313" on="0"/>
        <pt x="70" y="361" on="1"/>
        <pt x="78" y="460" on="0"/>
        <pt x="87" y="578" on="0"/>
        <pt x="90" y="645" on="0"/>
        <pt x="91" y="679" on="0"/>
      </contour>
      <contour>
        <pt x="278" y="148" on="1"/>
        <pt x="334" y="148" on="0"/>
        <pt x="401" y="196" on="0"/>
        <pt x="437" y="270" on="0"/>
        <pt x="449" y="358" on="0"/>
        <pt x="449" y="397" on="1"/>
        <pt x="449" y="439" on="0"/>
        <pt x="438" y="502" on="0"/>
        <pt x="411" y="544" on="0"/>
        <pt x="363" y="565" on="0"/>
        <pt x="327" y="565" on="1"/>
        <pt x="316" y="565" on="0"/>
        <pt x="282" y="563" on="0"/>
        <pt x="258" y="561" on="1"/>
        <pt x="256" y="524" on="0"/>
        <pt x="250" y="423" on="0"/>
        <pt x="243" y="312" on="0"/>
        <pt x="235" y="199" on="0"/>
        <pt x="231" y="151" on="1"/>
        <pt x="246" y="149" on="0"/>
        <pt x="270" y="148" on="0"/>
      </contour>
    </TTGlyph>
    <TTGlyph name="Dcaron" xMin="51" yMin="-10" xMax="631" yMax="964">
      <contour>
        <pt x="92" y="695" on="1"/>
        <pt x="93" y="703" on="0"/>
        <pt x="104" y="710" on="0"/>
        <pt x="109" y="710" on="1"/>
        <pt x="177" y="710" on="0"/>
        <pt x="296" y="719" on="0"/>
        <pt x="330" y="719" on="1"/>
        <pt x="415" y="719" on="0"/>
        <pt x="530" y="685" on="0"/>
        <pt x="601" y="613" on="0"/>
        <pt x="631" y="499" on="0"/>
        <pt x="631" y="419" on="1"/>
        <pt x="631" y="338" on="0"/>
        <pt x="598" y="183" on="0"/>
        <pt x="516" y="63" on="0"/>
        <pt x="377" y="-10" on="0"/>
        <pt x="271" y="-10" on="1"/>
        <pt x="222" y="-10" on="0"/>
        <pt x="141" y="-6" on="0"/>
        <pt x="83" y="14" on="0"/>
        <pt x="51" y="54" on="0"/>
        <pt x="51" y="89" on="1"/>
        <pt x="51" y="102" on="0"/>
        <pt x="54" y="154" on="0"/>
        <pt x="59" y="226" on="0"/>
        <pt x="66" y="313" on="0"/>
        <pt x="70" y="361" on="1"/>
        <pt x="78" y="460" on="0"/>
        <pt x="87" y="578" on="0"/>
        <pt x="90" y="645" on="0"/>
        <pt x="91" y="679" on="0"/>
      </contour>
      <contour>
        <pt x="278" y="148" on="1"/>
        <pt x="334" y="148" on="0"/>
        <pt x="401" y="196" on="0"/>
        <pt x="437" y="270" on="0"/>
        <pt x="449" y="358" on="0"/>
        <pt x="449" y="397" on="1"/>
        <pt x="449" y="439" on="0"/>
        <pt x="438" y="502" on="0"/>
        <pt x="411" y="544" on="0"/>
        <pt x="363" y="565" on="0"/>
        <pt x="327" y="565" on="1"/>
        <pt x="316" y="565" on="0"/>
        <pt x="282" y="563" on="0"/>
        <pt x="258" y="561" on="1"/>
        <pt x="256" y="524" on="0"/>
        <pt x="250" y="423" on="0"/>
        <pt x="243" y="312" on="0"/>
        <pt x="235" y="199" on="0"/>
        <pt x="231" y="151" on="1"/>
        <pt x="246" y="149" on="0"/>
        <pt x="270" y="148" on="0"/>
      </contour>
      <contour>
        <pt x="243" y="964" on="1"/>
        <pt x="252" y="964" on="0"/>
        <pt x="278" y="950" on="0"/>
        <pt x="307" y="927" on="0"/>
        <pt x="339" y="898" on="0"/>
        <pt x="354" y="882" on="1"/>
        <pt x="375" y="898" on="0"/>
        <pt x="420" y="927" on="0"/>
        <pt x="459" y="950" on="0"/>
        <pt x="490" y="964" on="0"/>
        <pt x="499" y="964" on="1"/>
        <pt x="506" y="964" on="0"/>
        <pt x="523" y="953" on="0"/>
        <pt x="538" y="938" on="0"/>
        <pt x="549" y="924" on="0"/>
        <pt x="549" y="921" on="1"/>
        <pt x="549" y="918" on="0"/>
        <pt x="523" y="893" on="0"/>
        <pt x="484" y="856" on="0"/>
        <pt x="438" y="814" on="0"/>
        <pt x="417" y="795" on="1"/>
        <pt x="409" y="788" on="0"/>
        <pt x="363" y="780" on="0"/>
        <pt x="341" y="780" on="1"/>
        <pt x="328" y="780" on="0"/>
        <pt x="293" y="786" on="0"/>
        <pt x="288" y="795" on="1"/>
        <pt x="270" y="816" on="0"/>
        <pt x="234" y="859" on="0"/>
        <pt x="206" y="895" on="0"/>
        <pt x="188" y="919" on="0"/>
        <pt x="188" y="921" on="1"/>
        <pt x="188" y="923" on="0"/>
        <pt x="200" y="937" on="0"/>
        <pt x="217" y="952" on="0"/>
        <pt x="236" y="964" on="0"/>
      </contour>
    </TTGlyph>
    <TTGlyph name="Dcroat" xMin="-2" yMin="-10" xMax="636" yMax="719">
      <contour>
        <pt x="97" y="695" on="1"/>
        <pt x="98" y="703" on="0"/>
        <pt x="109" y="710" on="0"/>
        <pt x="114" y="710" on="1"/>
        <pt x="182" y="710" on="0"/>
        <pt x="301" y="719" on="0"/>
        <pt x="335" y="719" on="1"/>
        <pt x="420" y="719" on="0"/>
        <pt x="535" y="685" on="0"/>
        <pt x="606" y="613" on="0"/>
        <pt x="636" y="499" on="0"/>
        <pt x="636" y="419" on="1"/>
        <pt x="636" y="338" on="0"/>
        <pt x="603" y="183" on="0"/>
        <pt x="521" y="63" on="0"/>
        <pt x="382" y="-10" on="0"/>
        <pt x="276" y="-10" on="1"/>
        <pt x="227" y="-10" on="0"/>
        <pt x="146" y="-6" on="0"/>
        <pt x="88" y="14" on="0"/>
        <pt x="56" y="54" on="0"/>
        <pt x="56" y="89" on="1"/>
        <pt x="56" y="111" on="0"/>
        <pt x="64" y="230" on="0"/>
        <pt x="70" y="310" on="1"/>
        <pt x="9" y="310" on="1"/>
        <pt x="-2" y="310" on="0"/>
        <pt x="-2" y="321" on="1"/>
        <pt x="-2" y="339" on="0"/>
        <pt x="1" y="373" on="0"/>
        <pt x="16" y="400" on="0"/>
        <pt x="49" y="417" on="0"/>
        <pt x="79" y="417" on="1"/>
        <pt x="85" y="496" on="0"/>
        <pt x="92" y="592" on="0"/>
        <pt x="95" y="649" on="0"/>
        <pt x="96" y="680" on="0"/>
      </contour>
      <contour>
        <pt x="248" y="310" on="1"/>
        <pt x="245" y="268" on="0"/>
        <pt x="238" y="186" on="0"/>
        <pt x="236" y="151" on="1"/>
        <pt x="251" y="149" on="0"/>
        <pt x="275" y="148" on="0"/>
        <pt x="283" y="148" on="1"/>
        <pt x="339" y="148" on="0"/>
        <pt x="406" y="196" on="0"/>
        <pt x="442" y="270" on="0"/>
        <pt x="454" y="358" on="0"/>
        <pt x="454" y="397" on="1"/>
        <pt x="454" y="439" on="0"/>
        <pt x="443" y="502" on="0"/>
        <pt x="416" y="544" on="0"/>
        <pt x="368" y="565" on="0"/>
        <pt x="332" y="565" on="1"/>
        <pt x="321" y="565" on="0"/>
        <pt x="287" y="563" on="0"/>
        <pt x="263" y="561" on="1"/>
        <pt x="255" y="417" on="1"/>
        <pt x="343" y="417" on="1"/>
        <pt x="349" y="417" on="0"/>
        <pt x="359" y="410" on="0"/>
        <pt x="359" y="403" on="1"/>
        <pt x="359" y="382" on="0"/>
        <pt x="354" y="348" on="0"/>
        <pt x="338" y="324" on="0"/>
        <pt x="307" y="310" on="0"/>
        <pt x="281" y="310" on="1"/>
      </contour>
    </TTGlyph>
    <TTGlyph name="Ddotbelow" xMin="51" yMin="-186" xMax="631" yMax="719">
      <contour>
        <pt x="92" y="695" on="1"/>
        <pt x="93" y="703" on="0"/>
        <pt x="104" y="710" on="0"/>
        <pt x="109" y="710" on="1"/>
        <pt x="177" y="710" on="0"/>
        <pt x="296" y="719" on="0"/>
        <pt x="330" y="719" on="1"/>
        <pt x="415" y="719" on="0"/>
        <pt x="530" y="685" on="0"/>
        <pt x="601" y="613" on="0"/>
        <pt x="631" y="499" on="0"/>
        <pt x="631" y="419" on="1"/>
        <pt x="631" y="338" on="0"/>
        <pt x="598" y="183" on="0"/>
        <pt x="516" y="63" on="0"/>
        <pt x="377" y="-10" on="0"/>
        <pt x="271" y="-10" on="1"/>
        <pt x="222" y="-10" on="0"/>
        <pt x="141" y="-6" on="0"/>
        <pt x="83" y="14" on="0"/>
        <pt x="51" y="54" on="0"/>
        <pt x="51" y="89" on="1"/>
        <pt x="51" y="102" on="0"/>
        <pt x="54" y="154" on="0"/>
        <pt x="59" y="226" on="0"/>
        <pt x="66" y="313" on="0"/>
        <pt x="70" y="361" on="1"/>
        <pt x="78" y="460" on="0"/>
        <pt x="87" y="578" on="0"/>
        <pt x="90" y="645" on="0"/>
        <pt x="91" y="679" on="0"/>
      </contour>
      <contour>
        <pt x="278" y="148" on="1"/>
        <pt x="334" y="148" on="0"/>
        <pt x="401" y="196" on="0"/>
        <pt x="437" y="270" on="0"/>
        <pt x="449" y="358" on="0"/>
        <pt x="449" y="397" on="1"/>
        <pt x="449" y="439" on="0"/>
        <pt x="438" y="502" on="0"/>
        <pt x="411" y="544" on="0"/>
        <pt x="363" y="565" on="0"/>
        <pt x="327" y="565" on="1"/>
        <pt x="316" y="565" on="0"/>
        <pt x="282" y="563" on="0"/>
        <pt x="258" y="561" on="1"/>
        <pt x="256" y="524" on="0"/>
        <pt x="250" y="423" on="0"/>
        <pt x="243" y="312" on="0"/>
        <pt x="235" y="199" on="0"/>
        <pt x="231" y="151" on="1"/>
        <pt x="246" y="149" on="0"/>
        <pt x="270" y="148" on="0"/>
      </contour>
      <contour>
        <pt x="177" y="-130" on="1"/>
        <pt x="177" y="-95" on="0"/>
        <pt x="225" y="-54" on="0"/>
        <pt x="267" y="-54" on="1"/>
        <pt x="302" y="-54" on="0"/>
        <pt x="334" y="-85" on="0"/>
        <pt x="334" y="-111" on="1"/>
        <pt x="334" y="-143" on="0"/>
        <pt x="288" y="-186" on="0"/>
        <pt x="243" y="-186" on="1"/>
        <pt x="177" y="-186" on="0"/>
      </contour>
    </TTGlyph>
    <TTGlyph name="E" xMin="51" yMin="0" xMax="477" yMax="710">
      <contour>
        <pt x="155" y="0" on="1"/>
        <pt x="99" y="0" on="0"/>
        <pt x="51" y="44" on="0"/>
        <pt x="51" y="85" on="1"/>
        <pt x="51" y="105" on="0"/>
        <pt x="57" y="202" on="0"/>
        <pt x="67" y="326" on="0"/>
        <pt x="77" y="464" on="0"/>
        <pt x="87" y="586" on="0"/>
        <pt x="93" y="678" on="0"/>
        <pt x="93" y="695" on="1"/>
        <pt x="93" y="710" on="0"/>
        <pt x="109" y="710" on="1"/>
        <pt x="461" y="710" on="1"/>
        <pt x="467" y="710" on="0"/>
        <pt x="477" y="704" on="0"/>
        <pt x="477" y="696" on="1"/>
        <pt x="473" y="637" on="1"/>
        <pt x="471" y="607" on="0"/>
        <pt x="442" y="570" on="0"/>
        <pt x="397" y="570" on="1"/>
        <pt x="259" y="570" on="1"/>
        <pt x="249" y="429" on="1"/>
        <pt x="391" y="429" on="1"/>
        <pt x="397" y="429" on="0"/>
        <pt x="407" y="423" on="0"/>
        <pt x="407" y="415" on="1"/>
        <pt x="403" y="356" on="1"/>
        <pt x="401" y="326" on="0"/>
        <pt x="372" y="289" on="0"/>
        <pt x="327" y="289" on="1"/>
        <pt x="240" y="289" on="1"/>
        <pt x="229" y="140" on="1"/>
        <pt x="449" y="140" on="1"/>
        <pt x="455" y="140" on="0"/>
        <pt x="465" y="133" on="0"/>
        <pt x="465" y="126" on="1"/>
        <pt x="461" y="67" on="1"/>
        <pt x="459" y="37" on="0"/>
        <pt x="430" y="0" on="0"/>
        <pt x="385" y="0" on="1"/>
      </contour>
    </TTGlyph>
    <TTGlyph name="Eacute" xMin="51" yMin="0" xMax="511" yMax="964">
      <contour>
        <pt x="155" y="0" on="1"/>
        <pt x="99" y="0" on="0"/>
        <pt x="51" y="44" on="0"/>
        <pt x="51" y="85" on="1"/>
        <pt x="51" y="105" on="0"/>
        <pt x="57" y="202" on="0"/>
        <pt x="67" y="326" on="0"/>
        <pt x="77" y="464" on="0"/>
        <pt x="87" y="586" on="0"/>
        <pt x="93" y="678" on="0"/>
        <pt x="93" y="695" on="1"/>
        <pt x="93" y="710" on="0"/>
        <pt x="109" y="710" on="1"/>
        <pt x="461" y="710" on="1"/>
        <pt x="467" y="710" on="0"/>
        <pt x="477" y="704" on="0"/>
        <pt x="477" y="696" on="1"/>
        <pt x="473" y="637" on="1"/>
        <pt x="471" y="607" on="0"/>
        <pt x="442" y="570" on="0"/>
        <pt x="397" y="570" on="1"/>
        <pt x="259" y="570" on="1"/>
        <pt x="249" y="429" on="1"/>
        <pt x="391" y="429" on="1"/>
        <pt x="397" y="429" on="0"/>
        <pt x="407" y="423" on="0"/>
        <pt x="407" y="415" on="1"/>
        <pt x="403" y="356" on="1"/>
        <pt x="401" y="326" on="0"/>
        <pt x="372" y="289" on="0"/>
        <pt x="327" y="289" on="1"/>
        <pt x="240" y="289" on="1"/>
        <pt x="229" y="140" on="1"/>
        <pt x="449" y="140" on="1"/>
        <pt x="455" y="140" on="0"/>
        <pt x="465" y="133" on="0"/>
        <pt x="465" y="126" on="1"/>
        <pt x="461" y="67" on="1"/>
        <pt x="459" y="37" on="0"/>
        <pt x="430" y="0" on="0"/>
        <pt x="385" y="0" on="1"/>
      </contour>
      <contour>
        <pt x="298" y="780" on="1"/>
        <pt x="287" y="780" on="0"/>
        <pt x="270" y="795" on="0"/>
        <pt x="258" y="815" on="0"/>
        <pt x="252" y="832" on="0"/>
        <pt x="252" y="835" on="1"/>
        <pt x="252" y="842" on="0"/>
        <pt x="292" y="884" on="0"/>
        <pt x="346" y="929" on="0"/>
        <pt x="399" y="964" on="0"/>
        <pt x="412" y="964" on="1"/>
        <pt x="421" y="964" on="0"/>
        <pt x="455" y="943" on="0"/>
        <pt x="487" y="916" on="0"/>
        <pt x="511" y="887" on="0"/>
        <pt x="511" y="880" on="1"/>
        <pt x="511" y="872" on="0"/>
        <pt x="484" y="851" on="0"/>
        <pt x="443" y="829" on="0"/>
        <pt x="393" y="807" on="0"/>
        <pt x="346" y="790" on="0"/>
        <pt x="307" y="780" on="0"/>
      </contour>
    </TTGlyph>
    <TTGlyph name="Ebreve" xMin="51" yMin="0" xMax="477" yMax="925">
      <contour>
        <pt x="155" y="0" on="1"/>
        <pt x="99" y="0" on="0"/>
        <pt x="51" y="44" on="0"/>
        <pt x="51" y="85" on="1"/>
        <pt x="51" y="105" on="0"/>
        <pt x="57" y="202" on="0"/>
        <pt x="67" y="326" on="0"/>
        <pt x="77" y="464" on="0"/>
        <pt x="87" y="586" on="0"/>
        <pt x="93" y="678" on="0"/>
        <pt x="93" y="695" on="1"/>
        <pt x="93" y="710" on="0"/>
        <pt x="109" y="710" on="1"/>
        <pt x="461" y="710" on="1"/>
        <pt x="467" y="710" on="0"/>
        <pt x="477" y="704" on="0"/>
        <pt x="477" y="696" on="1"/>
        <pt x="473" y="637" on="1"/>
        <pt x="471" y="607" on="0"/>
        <pt x="442" y="570" on="0"/>
        <pt x="397" y="570" on="1"/>
        <pt x="259" y="570" on="1"/>
        <pt x="249" y="429" on="1"/>
        <pt x="391" y="429" on="1"/>
        <pt x="397" y="429" on="0"/>
        <pt x="407" y="423" on="0"/>
        <pt x="407" y="415" on="1"/>
        <pt x="403" y="356" on="1"/>
        <pt x="401" y="326" on="0"/>
        <pt x="372" y="289" on="0"/>
        <pt x="327" y="289" on="1"/>
        <pt x="240" y="289" on="1"/>
        <pt x="229" y="140" on="1"/>
        <pt x="449" y="140" on="1"/>
        <pt x="455" y="140" on="0"/>
        <pt x="465" y="133" on="0"/>
        <pt x="465" y="126" on="1"/>
        <pt x="461" y="67" on="1"/>
        <pt x="459" y="37" on="0"/>
        <pt x="430" y="0" on="0"/>
        <pt x="385" y="0" on="1"/>
      </contour>
      <contour>
        <pt x="294" y="780" on="1"/>
        <pt x="253" y="780" on="0"/>
        <pt x="197" y="799" on="0"/>
        <pt x="161" y="827" on="0"/>
        <pt x="145" y="860" on="0"/>
        <pt x="145" y="874" on="1"/>
        <pt x="145" y="899" on="0"/>
        <pt x="185" y="925" on="0"/>
        <pt x="211" y="925" on="1"/>
        <pt x="234" y="925" on="0"/>
        <pt x="251" y="907" on="0"/>
        <pt x="263" y="884" on="0"/>
        <pt x="280" y="866" on="0"/>
        <pt x="303" y="866" on="1"/>
        <pt x="326" y="866" on="0"/>
        <pt x="352" y="884" on="0"/>
        <pt x="374" y="907" on="0"/>
        <pt x="404" y="925" on="0"/>
        <pt x="431" y="925" on="1"/>
        <pt x="474" y="925" on="0"/>
        <pt x="474" y="894" on="1"/>
        <pt x="474" y="877" on="0"/>
        <pt x="451" y="837" on="0"/>
        <pt x="406" y="803" on="0"/>
        <pt x="339" y="780" on="0"/>
      </contour>
    </TTGlyph>
    <TTGlyph name="Ecaron" xMin="51" yMin="0" xMax="502" yMax="964">
      <contour>
        <pt x="155" y="0" on="1"/>
        <pt x="99" y="0" on="0"/>
        <pt x="51" y="44" on="0"/>
        <pt x="51" y="85" on="1"/>
        <pt x="51" y="105" on="0"/>
        <pt x="57" y="202" on="0"/>
        <pt x="67" y="326" on="0"/>
        <pt x="77" y="464" on="0"/>
        <pt x="87" y="586" on="0"/>
        <pt x="93" y="678" on="0"/>
        <pt x="93" y="695" on="1"/>
        <pt x="93" y="710" on="0"/>
        <pt x="109" y="710" on="1"/>
        <pt x="461" y="710" on="1"/>
        <pt x="467" y="710" on="0"/>
        <pt x="477" y="704" on="0"/>
        <pt x="477" y="696" on="1"/>
        <pt x="473" y="637" on="1"/>
        <pt x="471" y="607" on="0"/>
        <pt x="442" y="570" on="0"/>
        <pt x="397" y="570" on="1"/>
        <pt x="259" y="570" on="1"/>
        <pt x="249" y="429" on="1"/>
        <pt x="391" y="429" on="1"/>
        <pt x="397" y="429" on="0"/>
        <pt x="407" y="423" on="0"/>
        <pt x="407" y="415" on="1"/>
        <pt x="403" y="356" on="1"/>
        <pt x="401" y="326" on="0"/>
        <pt x="372" y="289" on="0"/>
        <pt x="327" y="289" on="1"/>
        <pt x="240" y="289" on="1"/>
        <pt x="229" y="140" on="1"/>
        <pt x="449" y="140" on="1"/>
        <pt x="455" y="140" on="0"/>
        <pt x="465" y="133" on="0"/>
        <pt x="465" y="126" on="1"/>
        <pt x="461" y="67" on="1"/>
        <pt x="459" y="37" on="0"/>
        <pt x="430" y="0" on="0"/>
        <pt x="385" y="0" on="1"/>
      </contour>
      <contour>
        <pt x="196" y="964" on="1"/>
        <pt x="205" y="964" on="0"/>
        <pt x="231" y="950" on="0"/>
        <pt x="260" y="927" on="0"/>
        <pt x="292" y="898" on="0"/>
        <pt x="307" y="882" on="1"/>
        <pt x="328" y="898" on="0"/>
        <pt x="373" y="927" on="0"/>
        <pt x="412" y="950" on="0"/>
        <pt x="443" y="964" on="0"/>
        <pt x="452" y="964" on="1"/>
        <pt x="459" y="964" on="0"/>
        <pt x="476" y="953" on="0"/>
        <pt x="491" y="938" on="0"/>
        <pt x="502" y="924" on="0"/>
        <pt x="502" y="921" on="1"/>
        <pt x="502" y="918" on="0"/>
        <pt x="476" y="893" on="0"/>
        <pt x="437" y="856" on="0"/>
        <pt x="391" y="814" on="0"/>
        <pt x="370" y="795" on="1"/>
        <pt x="362" y="788" on="0"/>
        <pt x="316" y="780" on="0"/>
        <pt x="294" y="780" on="1"/>
        <pt x="281" y="780" on="0"/>
        <pt x="246" y="786" on="0"/>
        <pt x="241" y="795" on="1"/>
        <pt x="223" y="816" on="0"/>
        <pt x="187" y="859" on="0"/>
        <pt x="159" y="895" on="0"/>
        <pt x="141" y="919" on="0"/>
        <pt x="141" y="921" on="1"/>
        <pt x="141" y="923" on="0"/>
        <pt x="153" y="937" on="0"/>
        <pt x="170" y="952" on="0"/>
        <pt x="189" y="964" on="0"/>
      </contour>
    </TTGlyph>
    <TTGlyph name="Ecircumflex" xMin="51" yMin="0" xMax="477" yMax="964">
      <contour>
        <pt x="155" y="0" on="1"/>
        <pt x="99" y="0" on="0"/>
        <pt x="51" y="44" on="0"/>
        <pt x="51" y="85" on="1"/>
        <pt x="51" y="105" on="0"/>
        <pt x="57" y="202" on="0"/>
        <pt x="67" y="326" on="0"/>
        <pt x="77" y="464" on="0"/>
        <pt x="87" y="586" on="0"/>
        <pt x="93" y="678" on="0"/>
        <pt x="93" y="695" on="1"/>
        <pt x="93" y="710" on="0"/>
        <pt x="109" y="710" on="1"/>
        <pt x="461" y="710" on="1"/>
        <pt x="467" y="710" on="0"/>
        <pt x="477" y="704" on="0"/>
        <pt x="477" y="696" on="1"/>
        <pt x="473" y="637" on="1"/>
        <pt x="471" y="607" on="0"/>
        <pt x="442" y="570" on="0"/>
        <pt x="397" y="570" on="1"/>
        <pt x="259" y="570" on="1"/>
        <pt x="249" y="429" on="1"/>
        <pt x="391" y="429" on="1"/>
        <pt x="397" y="429" on="0"/>
        <pt x="407" y="423" on="0"/>
        <pt x="407" y="415" on="1"/>
        <pt x="403" y="356" on="1"/>
        <pt x="401" y="326" on="0"/>
        <pt x="372" y="289" on="0"/>
        <pt x="327" y="289" on="1"/>
        <pt x="240" y="289" on="1"/>
        <pt x="229" y="140" on="1"/>
        <pt x="449" y="140" on="1"/>
        <pt x="455" y="140" on="0"/>
        <pt x="465" y="133" on="0"/>
        <pt x="465" y="126" on="1"/>
        <pt x="461" y="67" on="1"/>
        <pt x="459" y="37" on="0"/>
        <pt x="430" y="0" on="0"/>
        <pt x="385" y="0" on="1"/>
      </contour>
      <contour>
        <pt x="417" y="780" on="1"/>
        <pt x="408" y="780" on="0"/>
        <pt x="382" y="794" on="0"/>
        <pt x="353" y="817" on="0"/>
        <pt x="321" y="846" on="0"/>
        <pt x="306" y="862" on="1"/>
        <pt x="285" y="846" on="0"/>
        <pt x="240" y="817" on="0"/>
        <pt x="201" y="794" on="0"/>
        <pt x="170" y="780" on="0"/>
        <pt x="161" y="780" on="1"/>
        <pt x="154" y="780" on="0"/>
        <pt x="137" y="791" on="0"/>
        <pt x="122" y="806" on="0"/>
        <pt x="111" y="820" on="0"/>
        <pt x="111" y="823" on="1"/>
        <pt x="111" y="826" on="0"/>
        <pt x="136" y="851" on="0"/>
        <pt x="175" y="887" on="0"/>
        <pt x="222" y="929" on="0"/>
        <pt x="243" y="949" on="1"/>
        <pt x="251" y="956" on="0"/>
        <pt x="296" y="964" on="0"/>
        <pt x="319" y="964" on="1"/>
        <pt x="332" y="964" on="0"/>
        <pt x="367" y="958" on="0"/>
        <pt x="372" y="949" on="1"/>
        <pt x="390" y="928" on="0"/>
        <pt x="426" y="885" on="0"/>
        <pt x="454" y="849" on="0"/>
        <pt x="472" y="825" on="0"/>
        <pt x="472" y="823" on="1"/>
        <pt x="472" y="821" on="0"/>
        <pt x="460" y="807" on="0"/>
        <pt x="443" y="792" on="0"/>
        <pt x="424" y="780" on="0"/>
      </contour>
    </TTGlyph>
    <TTGlyph name="Edieresis" xMin="51" yMin="0" xMax="486" yMax="916">
      <contour>
        <pt x="155" y="0" on="1"/>
        <pt x="99" y="0" on="0"/>
        <pt x="51" y="44" on="0"/>
        <pt x="51" y="85" on="1"/>
        <pt x="51" y="105" on="0"/>
        <pt x="57" y="202" on="0"/>
        <pt x="67" y="326" on="0"/>
        <pt x="77" y="464" on="0"/>
        <pt x="87" y="586" on="0"/>
        <pt x="93" y="678" on="0"/>
        <pt x="93" y="695" on="1"/>
        <pt x="93" y="710" on="0"/>
        <pt x="109" y="710" on="1"/>
        <pt x="461" y="710" on="1"/>
        <pt x="467" y="710" on="0"/>
        <pt x="477" y="704" on="0"/>
        <pt x="477" y="696" on="1"/>
        <pt x="473" y="637" on="1"/>
        <pt x="471" y="607" on="0"/>
        <pt x="442" y="570" on="0"/>
        <pt x="397" y="570" on="1"/>
        <pt x="259" y="570" on="1"/>
        <pt x="249" y="429" on="1"/>
        <pt x="391" y="429" on="1"/>
        <pt x="397" y="429" on="0"/>
        <pt x="407" y="423" on="0"/>
        <pt x="407" y="415" on="1"/>
        <pt x="403" y="356" on="1"/>
        <pt x="401" y="326" on="0"/>
        <pt x="372" y="289" on="0"/>
        <pt x="327" y="289" on="1"/>
        <pt x="240" y="289" on="1"/>
        <pt x="229" y="140" on="1"/>
        <pt x="449" y="140" on="1"/>
        <pt x="455" y="140" on="0"/>
        <pt x="465" y="133" on="0"/>
        <pt x="465" y="126" on="1"/>
        <pt x="461" y="67" on="1"/>
        <pt x="459" y="37" on="0"/>
        <pt x="430" y="0" on="0"/>
        <pt x="385" y="0" on="1"/>
      </contour>
      <contour>
        <pt x="100" y="838" on="1"/>
        <pt x="100" y="874" on="0"/>
        <pt x="148" y="916" on="0"/>
        <pt x="189" y="916" on="1"/>
        <pt x="225" y="916" on="0"/>
        <pt x="258" y="884" on="0"/>
        <pt x="258" y="858" on="1"/>
        <pt x="258" y="825" on="0"/>
        <pt x="212" y="780" on="0"/>
        <pt x="168" y="780" on="1"/>
        <pt x="100" y="780" on="0"/>
      </contour>
      <contour>
        <pt x="328" y="838" on="1"/>
        <pt x="328" y="874" on="0"/>
        <pt x="376" y="916" on="0"/>
        <pt x="417" y="916" on="1"/>
        <pt x="453" y="916" on="0"/>
        <pt x="486" y="884" on="0"/>
        <pt x="486" y="858" on="1"/>
        <pt x="486" y="825" on="0"/>
        <pt x="440" y="780" on="0"/>
        <pt x="396" y="780" on="1"/>
        <pt x="328" y="780" on="0"/>
      </contour>
    </TTGlyph>
    <TTGlyph name="Edotaccent" xMin="51" yMin="0" xMax="477" yMax="930">
      <contour>
        <pt x="155" y="0" on="1"/>
        <pt x="99" y="0" on="0"/>
        <pt x="51" y="44" on="0"/>
        <pt x="51" y="85" on="1"/>
        <pt x="51" y="105" on="0"/>
        <pt x="57" y="202" on="0"/>
        <pt x="67" y="326" on="0"/>
        <pt x="77" y="464" on="0"/>
        <pt x="87" y="586" on="0"/>
        <pt x="93" y="678" on="0"/>
        <pt x="93" y="695" on="1"/>
        <pt x="93" y="710" on="0"/>
        <pt x="109" y="710" on="1"/>
        <pt x="461" y="710" on="1"/>
        <pt x="467" y="710" on="0"/>
        <pt x="477" y="704" on="0"/>
        <pt x="477" y="696" on="1"/>
        <pt x="473" y="637" on="1"/>
        <pt x="471" y="607" on="0"/>
        <pt x="442" y="570" on="0"/>
        <pt x="397" y="570" on="1"/>
        <pt x="259" y="570" on="1"/>
        <pt x="249" y="429" on="1"/>
        <pt x="391" y="429" on="1"/>
        <pt x="397" y="429" on="0"/>
        <pt x="407" y="423" on="0"/>
        <pt x="407" y="415" on="1"/>
        <pt x="403" y="356" on="1"/>
        <pt x="401" y="326" on="0"/>
        <pt x="372" y="289" on="0"/>
        <pt x="327" y="289" on="1"/>
        <pt x="240" y="289" on="1"/>
        <pt x="229" y="140" on="1"/>
        <pt x="449" y="140" on="1"/>
        <pt x="455" y="140" on="0"/>
        <pt x="465" y="133" on="0"/>
        <pt x="465" y="126" on="1"/>
        <pt x="461" y="67" on="1"/>
        <pt x="459" y="37" on="0"/>
        <pt x="430" y="0" on="0"/>
        <pt x="385" y="0" on="1"/>
      </contour>
      <contour>
        <pt x="213" y="844" on="1"/>
        <pt x="213" y="884" on="0"/>
        <pt x="271" y="930" on="0"/>
        <pt x="320" y="930" on="1"/>
        <pt x="363" y="930" on="0"/>
        <pt x="402" y="895" on="0"/>
        <pt x="402" y="866" on="1"/>
        <pt x="402" y="829" on="0"/>
        <pt x="347" y="780" on="0"/>
        <pt x="294" y="780" on="1"/>
        <pt x="213" y="780" on="0"/>
      </contour>
    </TTGlyph>
    <TTGlyph name="Edotbelow" xMin="51" yMin="-186" xMax="477" yMax="710">
      <contour>
        <pt x="155" y="0" on="1"/>
        <pt x="99" y="0" on="0"/>
        <pt x="51" y="44" on="0"/>
        <pt x="51" y="85" on="1"/>
        <pt x="51" y="105" on="0"/>
        <pt x="57" y="202" on="0"/>
        <pt x="67" y="326" on="0"/>
        <pt x="77" y="464" on="0"/>
        <pt x="87" y="586" on="0"/>
        <pt x="93" y="678" on="0"/>
        <pt x="93" y="695" on="1"/>
        <pt x="93" y="710" on="0"/>
        <pt x="109" y="710" on="1"/>
        <pt x="461" y="710" on="1"/>
        <pt x="467" y="710" on="0"/>
        <pt x="477" y="704" on="0"/>
        <pt x="477" y="696" on="1"/>
        <pt x="473" y="637" on="1"/>
        <pt x="471" y="607" on="0"/>
        <pt x="442" y="570" on="0"/>
        <pt x="397" y="570" on="1"/>
        <pt x="259" y="570" on="1"/>
        <pt x="249" y="429" on="1"/>
        <pt x="391" y="429" on="1"/>
        <pt x="397" y="429" on="0"/>
        <pt x="407" y="423" on="0"/>
        <pt x="407" y="415" on="1"/>
        <pt x="403" y="356" on="1"/>
        <pt x="401" y="326" on="0"/>
        <pt x="372" y="289" on="0"/>
        <pt x="327" y="289" on="1"/>
        <pt x="240" y="289" on="1"/>
        <pt x="229" y="140" on="1"/>
        <pt x="449" y="140" on="1"/>
        <pt x="455" y="140" on="0"/>
        <pt x="465" y="133" on="0"/>
        <pt x="465" y="126" on="1"/>
        <pt x="461" y="67" on="1"/>
        <pt x="459" y="37" on="0"/>
        <pt x="430" y="0" on="0"/>
        <pt x="385" y="0" on="1"/>
      </contour>
      <contour>
        <pt x="168" y="-130" on="1"/>
        <pt x="168" y="-95" on="0"/>
        <pt x="216" y="-54" on="0"/>
        <pt x="258" y="-54" on="1"/>
        <pt x="293" y="-54" on="0"/>
        <pt x="325" y="-85" on="0"/>
        <pt x="325" y="-111" on="1"/>
        <pt x="325" y="-143" on="0"/>
        <pt x="279" y="-186" on="0"/>
        <pt x="234" y="-186" on="1"/>
        <pt x="168" y="-186" on="0"/>
      </contour>
    </TTGlyph>
    <TTGlyph name="Egrave" xMin="51" yMin="0" xMax="477" yMax="960">
      <contour>
        <pt x="155" y="0" on="1"/>
        <pt x="99" y="0" on="0"/>
        <pt x="51" y="44" on="0"/>
        <pt x="51" y="85" on="1"/>
        <pt x="51" y="105" on="0"/>
        <pt x="57" y="202" on="0"/>
        <pt x="67" y="326" on="0"/>
        <pt x="77" y="464" on="0"/>
        <pt x="87" y="586" on="0"/>
        <pt x="93" y="678" on="0"/>
        <pt x="93" y="695" on="1"/>
        <pt x="93" y="710" on="0"/>
        <pt x="109" y="710" on="1"/>
        <pt x="461" y="710" on="1"/>
        <pt x="467" y="710" on="0"/>
        <pt x="477" y="704" on="0"/>
        <pt x="477" y="696" on="1"/>
        <pt x="473" y="637" on="1"/>
        <pt x="471" y="607" on="0"/>
        <pt x="442" y="570" on="0"/>
        <pt x="397" y="570" on="1"/>
        <pt x="259" y="570" on="1"/>
        <pt x="249" y="429" on="1"/>
        <pt x="391" y="429" on="1"/>
        <pt x="397" y="429" on="0"/>
        <pt x="407" y="423" on="0"/>
        <pt x="407" y="415" on="1"/>
        <pt x="403" y="356" on="1"/>
        <pt x="401" y="326" on="0"/>
        <pt x="372" y="289" on="0"/>
        <pt x="327" y="289" on="1"/>
        <pt x="240" y="289" on="1"/>
        <pt x="229" y="140" on="1"/>
        <pt x="449" y="140" on="1"/>
        <pt x="455" y="140" on="0"/>
        <pt x="465" y="133" on="0"/>
        <pt x="465" y="126" on="1"/>
        <pt x="461" y="67" on="1"/>
        <pt x="459" y="37" on="0"/>
        <pt x="430" y="0" on="0"/>
        <pt x="385" y="0" on="1"/>
      </contour>
      <contour>
        <pt x="334" y="843" on="1"/>
        <pt x="334" y="835" on="0"/>
        <pt x="327" y="813" on="0"/>
        <pt x="316" y="794" on="0"/>
        <pt x="301" y="780" on="0"/>
        <pt x="293" y="780" on="1"/>
        <pt x="271" y="780" on="0"/>
        <pt x="209" y="798" on="0"/>
        <pt x="152" y="822" on="0"/>
        <pt x="112" y="848" on="0"/>
        <pt x="112" y="856" on="1"/>
        <pt x="112" y="868" on="0"/>
        <pt x="131" y="903" on="0"/>
        <pt x="156" y="936" on="0"/>
        <pt x="183" y="960" on="0"/>
        <pt x="192" y="960" on="1"/>
        <pt x="197" y="960" on="0"/>
        <pt x="222" y="944" on="0"/>
        <pt x="253" y="921" on="0"/>
        <pt x="288" y="892" on="0"/>
        <pt x="316" y="866" on="0"/>
        <pt x="334" y="846" on="0"/>
      </contour>
    </TTGlyph>
    <TTGlyph name="Emacron" xMin="51" yMin="0" xMax="488" yMax="907">
      <contour>
        <pt x="155" y="0" on="1"/>
        <pt x="99" y="0" on="0"/>
        <pt x="51" y="44" on="0"/>
        <pt x="51" y="85" on="1"/>
        <pt x="51" y="105" on="0"/>
        <pt x="57" y="202" on="0"/>
        <pt x="67" y="326" on="0"/>
        <pt x="77" y="464" on="0"/>
        <pt x="87" y="586" on="0"/>
        <pt x="93" y="678" on="0"/>
        <pt x="93" y="695" on="1"/>
        <pt x="93" y="710" on="0"/>
        <pt x="109" y="710" on="1"/>
        <pt x="461" y="710" on="1"/>
        <pt x="467" y="710" on="0"/>
        <pt x="477" y="704" on="0"/>
        <pt x="477" y="696" on="1"/>
        <pt x="473" y="637" on="1"/>
        <pt x="471" y="607" on="0"/>
        <pt x="442" y="570" on="0"/>
        <pt x="397" y="570" on="1"/>
        <pt x="259" y="570" on="1"/>
        <pt x="249" y="429" on="1"/>
        <pt x="391" y="429" on="1"/>
        <pt x="397" y="429" on="0"/>
        <pt x="407" y="423" on="0"/>
        <pt x="407" y="415" on="1"/>
        <pt x="403" y="356" on="1"/>
        <pt x="401" y="326" on="0"/>
        <pt x="372" y="289" on="0"/>
        <pt x="327" y="289" on="1"/>
        <pt x="240" y="289" on="1"/>
        <pt x="229" y="140" on="1"/>
        <pt x="449" y="140" on="1"/>
        <pt x="455" y="140" on="0"/>
        <pt x="465" y="133" on="0"/>
        <pt x="465" y="126" on="1"/>
        <pt x="461" y="67" on="1"/>
        <pt x="459" y="37" on="0"/>
        <pt x="430" y="0" on="0"/>
        <pt x="385" y="0" on="1"/>
      </contour>
      <contour>
        <pt x="138" y="800" on="1"/>
        <pt x="127" y="800" on="0"/>
        <pt x="127" y="811" on="1"/>
        <pt x="127" y="828" on="0"/>
        <pt x="129" y="862" on="0"/>
        <pt x="143" y="890" on="0"/>
        <pt x="173" y="907" on="0"/>
        <pt x="200" y="907" on="1"/>
        <pt x="472" y="907" on="1"/>
        <pt x="478" y="907" on="0"/>
        <pt x="488" y="900" on="0"/>
        <pt x="488" y="893" on="1"/>
        <pt x="488" y="872" on="0"/>
        <pt x="483" y="838" on="0"/>
        <pt x="467" y="814" on="0"/>
        <pt x="436" y="800" on="0"/>
        <pt x="410" y="800" on="1"/>
      </contour>
    </TTGlyph>
    <TTGlyph name="Eng" xMin="51" yMin="-195" xMax="640" yMax="710">
      <contour>
        <pt x="401" y="-70" on="1"/>
        <pt x="417" y="-70" on="0"/>
        <pt x="431" y="-33" on="0"/>
        <pt x="436" y="15" on="1"/>
        <pt x="383" y="125" on="0"/>
        <pt x="266" y="345" on="0"/>
        <pt x="219" y="445" on="1"/>
        <pt x="220" y="337" on="0"/>
        <pt x="224" y="123" on="0"/>
        <pt x="226" y="15" on="1"/>
        <pt x="226" y="0" on="0"/>
        <pt x="210" y="0" on="1"/>
        <pt x="155" y="0" on="1"/>
        <pt x="98" y="0" on="0"/>
        <pt x="51" y="45" on="0"/>
        <pt x="51" y="89" on="1"/>
        <pt x="51" y="101" on="0"/>
        <pt x="54" y="158" on="0"/>
        <pt x="60" y="236" on="0"/>
        <pt x="67" y="329" on="0"/>
        <pt x="71" y="377" on="1"/>
        <pt x="77" y="453" on="0"/>
        <pt x="85" y="553" on="0"/>
        <pt x="90" y="622" on="0"/>
        <pt x="92" y="671" on="0"/>
        <pt x="93" y="695" on="1"/>
        <pt x="93" y="710" on="0"/>
        <pt x="109" y="710" on="1"/>
        <pt x="189" y="710" on="1"/>
        <pt x="222" y="710" on="0"/>
        <pt x="264" y="695" on="0"/>
        <pt x="291" y="669" on="0"/>
        <pt x="307" y="636" on="0"/>
        <pt x="314" y="618" on="1"/>
        <pt x="351" y="525" on="0"/>
        <pt x="398" y="409" on="0"/>
        <pt x="431" y="331" on="0"/>
        <pt x="456" y="276" on="0"/>
        <pt x="470" y="244" on="1"/>
        <pt x="470" y="303" on="0"/>
        <pt x="469" y="428" on="0"/>
        <pt x="468" y="547" on="0"/>
        <pt x="467" y="657" on="0"/>
        <pt x="467" y="701" on="1"/>
        <pt x="467" y="703" on="0"/>
        <pt x="471" y="710" on="0"/>
        <pt x="484" y="710" on="1"/>
        <pt x="539" y="710" on="1"/>
        <pt x="572" y="710" on="0"/>
        <pt x="611" y="697" on="0"/>
        <pt x="633" y="672" on="0"/>
        <pt x="640" y="636" on="0"/>
        <pt x="640" y="613" on="1"/>
        <pt x="640" y="587" on="0"/>
        <pt x="635" y="487" on="0"/>
        <pt x="627" y="364" on="0"/>
        <pt x="617" y="233" on="0"/>
        <pt x="607" y="116" on="0"/>
        <pt x="600" y="28" on="0"/>
        <pt x="598" y="11" on="1"/>
        <pt x="592" y="-52" on="0"/>
        <pt x="557" y="-133" on="0"/>
        <pt x="507" y="-178" on="0"/>
        <pt x="447" y="-195" on="0"/>
        <pt x="415" y="-195" on="1"/>
        <pt x="386" y="-195" on="0"/>
        <pt x="327" y="-184" on="0"/>
        <pt x="279" y="-162" on="0"/>
        <pt x="249" y="-128" on="0"/>
        <pt x="249" y="-105" on="1"/>
        <pt x="249" y="-81" on="0"/>
        <pt x="278" y="-53" on="0"/>
        <pt x="317" y="-39" on="0"/>
        <pt x="354" y="-35" on="0"/>
        <pt x="363" y="-35" on="1"/>
        <pt x="366" y="-35" on="0"/>
        <pt x="371" y="-46" on="0"/>
        <pt x="378" y="-59" on="0"/>
        <pt x="390" y="-70" on="0"/>
      </contour>
    </TTGlyph>
    <TTGlyph name="Eogonek" xMin="51" yMin="-195" xMax="477" yMax="710">
      <contour>
        <pt x="291" y="0" on="1"/>
        <pt x="254" y="-40" on="0"/>
        <pt x="254" y="-73" on="1"/>
        <pt x="254" y="-90" on="0"/>
        <pt x="270" y="-112" on="0"/>
        <pt x="290" y="-127" on="0"/>
        <pt x="306" y="-138" on="0"/>
        <pt x="306" y="-144" on="1"/>
        <pt x="306" y="-149" on="0"/>
        <pt x="291" y="-167" on="0"/>
        <pt x="265" y="-183" on="0"/>
        <pt x="229" y="-195" on="0"/>
        <pt x="207" y="-195" on="1"/>
        <pt x="166" y="-195" on="0"/>
        <pt x="128" y="-154" on="0"/>
        <pt x="128" y="-125" on="1"/>
        <pt x="128" y="-96" on="0"/>
        <pt x="168" y="-33" on="0"/>
        <pt x="214" y="0" on="1"/>
        <pt x="155" y="0" on="1"/>
        <pt x="99" y="0" on="0"/>
        <pt x="51" y="44" on="0"/>
        <pt x="51" y="85" on="1"/>
        <pt x="51" y="105" on="0"/>
        <pt x="57" y="202" on="0"/>
        <pt x="67" y="326" on="0"/>
        <pt x="77" y="464" on="0"/>
        <pt x="87" y="586" on="0"/>
        <pt x="93" y="678" on="0"/>
        <pt x="93" y="695" on="1"/>
        <pt x="93" y="710" on="0"/>
        <pt x="109" y="710" on="1"/>
        <pt x="461" y="710" on="1"/>
        <pt x="467" y="710" on="0"/>
        <pt x="477" y="704" on="0"/>
        <pt x="477" y="696" on="1"/>
        <pt x="473" y="637" on="1"/>
        <pt x="471" y="607" on="0"/>
        <pt x="442" y="570" on="0"/>
        <pt x="397" y="570" on="1"/>
        <pt x="259" y="570" on="1"/>
        <pt x="249" y="429" on="1"/>
        <pt x="391" y="429" on="1"/>
        <pt x="397" y="429" on="0"/>
        <pt x="407" y="423" on="0"/>
        <pt x="407" y="415" on="1"/>
        <pt x="403" y="356" on="1"/>
        <pt x="401" y="326" on="0"/>
        <pt x="372" y="289" on="0"/>
        <pt x="327" y="289" on="1"/>
        <pt x="240" y="289" on="1"/>
        <pt x="229" y="140" on="1"/>
        <pt x="449" y="140" on="1"/>
        <pt x="455" y="140" on="0"/>
        <pt x="465" y="133" on="0"/>
        <pt x="465" y="126" on="1"/>
        <pt x="461" y="67" on="1"/>
        <pt x="459" y="37" on="0"/>
        <pt x="430" y="0" on="0"/>
        <pt x="385" y="0" on="1"/>
      </contour>
    </TTGlyph>
    <TTGlyph name="Eth" xMin="10" yMin="-10" xMax="637" yMax="719">
      <contour>
        <pt x="98" y="695" on="1"/>
        <pt x="98" y="703" on="0"/>
        <pt x="110" y="710" on="0"/>
        <pt x="115" y="710" on="1"/>
        <pt x="139" y="710" on="1"/>
        <pt x="208" y="714" on="0"/>
        <pt x="302" y="719" on="0"/>
        <pt x="336" y="719" on="1"/>
        <pt x="421" y="719" on="0"/>
        <pt x="536" y="685" on="0"/>
        <pt x="607" y="613" on="0"/>
        <pt x="637" y="499" on="0"/>
        <pt x="637" y="419" on="1"/>
        <pt x="637" y="338" on="0"/>
        <pt x="604" y="183" on="0"/>
        <pt x="522" y="63" on="0"/>
        <pt x="383" y="-10" on="0"/>
        <pt x="277" y="-10" on="1"/>
        <pt x="228" y="-10" on="0"/>
        <pt x="147" y="-6" on="0"/>
        <pt x="89" y="14" on="0"/>
        <pt x="57" y="54" on="0"/>
        <pt x="57" y="89" on="1"/>
        <pt x="57" y="99" on="0"/>
        <pt x="59" y="140" on="0"/>
        <pt x="63" y="195" on="0"/>
        <pt x="68" y="262" on="0"/>
        <pt x="71" y="299" on="1"/>
        <pt x="21" y="299" on="1"/>
        <pt x="10" y="299" on="0"/>
        <pt x="10" y="310" on="1"/>
        <pt x="13" y="364" on="1"/>
        <pt x="14" y="376" on="0"/>
        <pt x="19" y="401" on="0"/>
        <pt x="33" y="420" on="0"/>
        <pt x="59" y="433" on="0"/>
        <pt x="81" y="434" on="1"/>
        <pt x="85" y="488" on="0"/>
        <pt x="91" y="560" on="0"/>
        <pt x="94" y="607" on="0"/>
        <pt x="96" y="635" on="0"/>
        <pt x="97" y="657" on="0"/>
        <pt x="97" y="678" on="0"/>
      </contour>
      <contour>
        <pt x="248" y="299" on="1"/>
        <pt x="246" y="259" on="0"/>
        <pt x="240" y="184" on="0"/>
        <pt x="237" y="151" on="1"/>
        <pt x="252" y="149" on="0"/>
        <pt x="276" y="148" on="0"/>
        <pt x="284" y="148" on="1"/>
        <pt x="340" y="148" on="0"/>
        <pt x="407" y="196" on="0"/>
        <pt x="443" y="270" on="0"/>
        <pt x="455" y="358" on="0"/>
        <pt x="455" y="397" on="1"/>
        <pt x="455" y="439" on="0"/>
        <pt x="444" y="502" on="0"/>
        <pt x="417" y="544" on="0"/>
        <pt x="369" y="565" on="0"/>
        <pt x="333" y="565" on="1"/>
        <pt x="322" y="565" on="0"/>
        <pt x="288" y="563" on="0"/>
        <pt x="264" y="561" on="1"/>
        <pt x="263" y="535" on="0"/>
        <pt x="259" y="471" on="0"/>
        <pt x="257" y="434" on="1"/>
        <pt x="337" y="434" on="1"/>
        <pt x="343" y="434" on="0"/>
        <pt x="353" y="427" on="0"/>
        <pt x="353" y="420" on="1"/>
        <pt x="349" y="366" on="1"/>
        <pt x="347" y="336" on="0"/>
        <pt x="318" y="299" on="0"/>
        <pt x="273" y="299" on="1"/>
      </contour>
    </TTGlyph>
    <TTGlyph name="Etilde" xMin="51" yMin="0" xMax="508" yMax="955">
      <contour>
        <pt x="155" y="0" on="1"/>
        <pt x="99" y="0" on="0"/>
        <pt x="51" y="44" on="0"/>
        <pt x="51" y="85" on="1"/>
        <pt x="51" y="105" on="0"/>
        <pt x="57" y="202" on="0"/>
        <pt x="67" y="326" on="0"/>
        <pt x="77" y="464" on="0"/>
        <pt x="87" y="586" on="0"/>
        <pt x="93" y="678" on="0"/>
        <pt x="93" y="695" on="1"/>
        <pt x="93" y="710" on="0"/>
        <pt x="109" y="710" on="1"/>
        <pt x="461" y="710" on="1"/>
        <pt x="467" y="710" on="0"/>
        <pt x="477" y="704" on="0"/>
        <pt x="477" y="696" on="1"/>
        <pt x="473" y="637" on="1"/>
        <pt x="471" y="607" on="0"/>
        <pt x="442" y="570" on="0"/>
        <pt x="397" y="570" on="1"/>
        <pt x="259" y="570" on="1"/>
        <pt x="249" y="429" on="1"/>
        <pt x="391" y="429" on="1"/>
        <pt x="397" y="429" on="0"/>
        <pt x="407" y="423" on="0"/>
        <pt x="407" y="415" on="1"/>
        <pt x="403" y="356" on="1"/>
        <pt x="401" y="326" on="0"/>
        <pt x="372" y="289" on="0"/>
        <pt x="327" y="289" on="1"/>
        <pt x="240" y="289" on="1"/>
        <pt x="229" y="140" on="1"/>
        <pt x="449" y="140" on="1"/>
        <pt x="455" y="140" on="0"/>
        <pt x="465" y="133" on="0"/>
        <pt x="465" y="126" on="1"/>
        <pt x="461" y="67" on="1"/>
        <pt x="459" y="37" on="0"/>
        <pt x="430" y="0" on="0"/>
        <pt x="385" y="0" on="1"/>
      </contour>
      <contour>
        <pt x="381" y="895" on="1"/>
        <pt x="402" y="895" on="0"/>
        <pt x="434" y="914" on="0"/>
        <pt x="459" y="936" on="0"/>
        <pt x="479" y="955" on="0"/>
        <pt x="488" y="955" on="1"/>
        <pt x="493" y="955" on="0"/>
        <pt x="508" y="942" on="0"/>
        <pt x="508" y="916" on="1"/>
        <pt x="508" y="893" on="0"/>
        <pt x="491" y="844" on="0"/>
        <pt x="456" y="805" on="0"/>
        <pt x="402" y="780" on="0"/>
        <pt x="365" y="780" on="1"/>
        <pt x="330" y="780" on="0"/>
        <pt x="284" y="800" on="0"/>
        <pt x="248" y="825" on="0"/>
        <pt x="217" y="845" on="0"/>
        <pt x="196" y="845" on="1"/>
        <pt x="175" y="845" on="0"/>
        <pt x="147" y="825" on="0"/>
        <pt x="125" y="800" on="0"/>
        <pt x="108" y="780" on="0"/>
        <pt x="98" y="780" on="1"/>
        <pt x="93" y="780" on="0"/>
        <pt x="78" y="794" on="0"/>
        <pt x="78" y="820" on="1"/>
        <pt x="78" y="842" on="0"/>
        <pt x="92" y="889" on="0"/>
        <pt x="124" y="929" on="0"/>
        <pt x="175" y="955" on="0"/>
        <pt x="213" y="955" on="1"/>
        <pt x="246" y="955" on="0"/>
        <pt x="291" y="936" on="0"/>
        <pt x="327" y="914" on="0"/>
        <pt x="360" y="895" on="0"/>
      </contour>
    </TTGlyph>
    <TTGlyph name="Euro" xMin="23" yMin="-10" xMax="633" yMax="720">
      <contour>
        <pt x="439" y="566" on="1"/>
        <pt x="407" y="566" on="0"/>
        <pt x="362" y="534" on="0"/>
        <pt x="348" y="509" on="1"/>
        <pt x="496" y="509" on="1"/>
        <pt x="512" y="509" on="0"/>
        <pt x="512" y="495" on="1"/>
        <pt x="508" y="441" on="1"/>
        <pt x="506" y="411" on="0"/>
        <pt x="477" y="374" on="0"/>
        <pt x="432" y="374" on="1"/>
        <pt x="313" y="374" on="1"/>
        <pt x="311" y="319" on="1"/>
        <pt x="470" y="319" on="1"/>
        <pt x="486" y="319" on="0"/>
        <pt x="486" y="305" on="1"/>
        <pt x="482" y="251" on="1"/>
        <pt x="480" y="221" on="0"/>
        <pt x="451" y="184" on="0"/>
        <pt x="406" y="184" on="1"/>
        <pt x="334" y="184" on="1"/>
        <pt x="354" y="146" on="0"/>
        <pt x="403" y="146" on="1"/>
        <pt x="437" y="146" on="0"/>
        <pt x="486" y="161" on="0"/>
        <pt x="522" y="179" on="0"/>
        <pt x="549" y="194" on="0"/>
        <pt x="563" y="194" on="1"/>
        <pt x="583" y="194" on="0"/>
        <pt x="583" y="164" on="1"/>
        <pt x="583" y="148" on="0"/>
        <pt x="575" y="102" on="0"/>
        <pt x="568" y="75" on="1"/>
        <pt x="565" y="63" on="0"/>
        <pt x="538" y="33" on="0"/>
        <pt x="491" y="7" on="0"/>
        <pt x="423" y="-10" on="0"/>
        <pt x="379" y="-10" on="1"/>
        <pt x="323" y="-10" on="0"/>
        <pt x="241" y="18" on="0"/>
        <pt x="183" y="69" on="0"/>
        <pt x="146" y="141" on="0"/>
        <pt x="137" y="184" on="1"/>
        <pt x="34" y="184" on="1"/>
        <pt x="23" y="184" on="0"/>
        <pt x="23" y="195" on="1"/>
        <pt x="26" y="249" on="1"/>
        <pt x="27" y="262" on="0"/>
        <pt x="32" y="287" on="0"/>
        <pt x="47" y="307" on="0"/>
        <pt x="75" y="319" on="0"/>
        <pt x="98" y="319" on="1"/>
        <pt x="125" y="319" on="1"/>
        <pt x="125" y="347" on="0"/>
        <pt x="128" y="374" on="1"/>
        <pt x="60" y="374" on="1"/>
        <pt x="49" y="374" on="0"/>
        <pt x="49" y="385" on="1"/>
        <pt x="52" y="439" on="1"/>
        <pt x="53" y="452" on="0"/>
        <pt x="58" y="477" on="0"/>
        <pt x="73" y="497" on="0"/>
        <pt x="101" y="509" on="0"/>
        <pt x="124" y="509" on="1"/>
        <pt x="156" y="509" on="1"/>
        <pt x="172" y="554" on="0"/>
        <pt x="225" y="632" on="0"/>
        <pt x="301" y="688" on="0"/>
        <pt x="403" y="720" on="0"/>
        <pt x="468" y="720" on="1"/>
        <pt x="514" y="720" on="0"/>
        <pt x="577" y="705" on="0"/>
        <pt x="616" y="682" on="0"/>
        <pt x="633" y="656" on="0"/>
        <pt x="633" y="645" on="1"/>
        <pt x="633" y="593" on="0"/>
        <pt x="616" y="526" on="0"/>
        <pt x="596" y="526" on="1"/>
        <pt x="582" y="526" on="0"/>
        <pt x="557" y="538" on="0"/>
        <pt x="523" y="553" on="0"/>
        <pt x="476" y="566" on="0"/>
      </contour>
    </TTGlyph>
    <TTGlyph name="F" xMin="51" yMin="0" xMax="477" yMax="710">
      <contour>
        <pt x="240" y="289" on="1"/>
        <pt x="221" y="15" on="1"/>
        <pt x="220" y="7" on="0"/>
        <pt x="219" y="0" on="0"/>
        <pt x="210" y="0" on="1"/>
        <pt x="155" y="0" on="1"/>
        <pt x="99" y="0" on="0"/>
        <pt x="51" y="44" on="0"/>
        <pt x="51" y="85" on="1"/>
        <pt x="51" y="105" on="0"/>
        <pt x="57" y="202" on="0"/>
        <pt x="67" y="326" on="0"/>
        <pt x="77" y="464" on="0"/>
        <pt x="87" y="586" on="0"/>
        <pt x="93" y="678" on="0"/>
        <pt x="93" y="695" on="1"/>
        <pt x="93" y="710" on="0"/>
        <pt x="109" y="710" on="1"/>
        <pt x="461" y="710" on="1"/>
        <pt x="467" y="710" on="0"/>
        <pt x="477" y="704" on="0"/>
        <pt x="477" y="696" on="1"/>
        <pt x="473" y="637" on="1"/>
        <pt x="471" y="607" on="0"/>
        <pt x="442" y="570" on="0"/>
        <pt x="397" y="570" on="1"/>
        <pt x="259" y="570" on="1"/>
        <pt x="249" y="429" on="1"/>
        <pt x="391" y="429" on="1"/>
        <pt x="397" y="429" on="0"/>
        <pt x="407" y="423" on="0"/>
        <pt x="407" y="415" on="1"/>
        <pt x="403" y="356" on="1"/>
        <pt x="401" y="326" on="0"/>
        <pt x="372" y="289" on="0"/>
        <pt x="327" y="289" on="1"/>
      </contour>
    </TTGlyph>
    <TTGlyph name="G" xMin="41" yMin="-10" xMax="608" yMax="720">
      <contour>
        <pt x="495" y="0" on="1"/>
        <pt x="443" y="0" on="0"/>
        <pt x="398" y="43" on="0"/>
        <pt x="396" y="75" on="1"/>
        <pt x="385" y="41" on="0"/>
        <pt x="314" y="-10" on="0"/>
        <pt x="247" y="-10" on="1"/>
        <pt x="208" y="-10" on="0"/>
        <pt x="134" y="21" on="0"/>
        <pt x="76" y="93" on="0"/>
        <pt x="41" y="213" on="0"/>
        <pt x="41" y="302" on="1"/>
        <pt x="41" y="336" on="0"/>
        <pt x="49" y="425" on="0"/>
        <pt x="74" y="518" on="0"/>
        <pt x="121" y="607" on="0"/>
        <pt x="198" y="677" on="0"/>
        <pt x="310" y="720" on="0"/>
        <pt x="388" y="720" on="1"/>
        <pt x="439" y="720" on="0"/>
        <pt x="520" y="698" on="0"/>
        <pt x="577" y="658" on="0"/>
        <pt x="608" y="600" on="0"/>
        <pt x="608" y="564" on="1"/>
        <pt x="608" y="506" on="0"/>
        <pt x="532" y="447" on="0"/>
        <pt x="463" y="447" on="1"/>
        <pt x="441" y="447" on="0"/>
        <pt x="432" y="454" on="0"/>
        <pt x="431" y="465" on="1"/>
        <pt x="429" y="483" on="0"/>
        <pt x="428" y="519" on="0"/>
        <pt x="419" y="549" on="0"/>
        <pt x="397" y="567" on="0"/>
        <pt x="373" y="567" on="1"/>
        <pt x="324" y="567" on="0"/>
        <pt x="266" y="511" on="0"/>
        <pt x="236" y="431" on="0"/>
        <pt x="228" y="346" on="0"/>
        <pt x="228" y="317" on="1"/>
        <pt x="228" y="269" on="0"/>
        <pt x="240" y="204" on="0"/>
        <pt x="263" y="163" on="0"/>
        <pt x="295" y="146" on="0"/>
        <pt x="316" y="146" on="1"/>
        <pt x="354" y="146" on="0"/>
        <pt x="406" y="178" on="0"/>
        <pt x="411" y="220" on="1"/>
        <pt x="417" y="276" on="1"/>
        <pt x="420" y="305" on="0"/>
        <pt x="430" y="342" on="0"/>
        <pt x="449" y="342" on="1"/>
        <pt x="504" y="342" on="1"/>
        <pt x="529" y="342" on="0"/>
        <pt x="560" y="331" on="0"/>
        <pt x="577" y="306" on="0"/>
        <pt x="583" y="266" on="0"/>
        <pt x="583" y="237" on="1"/>
        <pt x="583" y="217" on="0"/>
        <pt x="580" y="151" on="0"/>
        <pt x="575" y="83" on="0"/>
        <pt x="569" y="26" on="0"/>
        <pt x="567" y="15" on="1"/>
        <pt x="565" y="6" on="0"/>
        <pt x="559" y="0" on="0"/>
        <pt x="550" y="0" on="1"/>
      </contour>
    </TTGlyph>
    <TTGlyph name="Gbreve" xMin="41" yMin="-10" xMax="608" yMax="925">
      <contour>
        <pt x="495" y="0" on="1"/>
        <pt x="443" y="0" on="0"/>
        <pt x="398" y="43" on="0"/>
        <pt x="396" y="75" on="1"/>
        <pt x="385" y="41" on="0"/>
        <pt x="314" y="-10" on="0"/>
        <pt x="247" y="-10" on="1"/>
        <pt x="208" y="-10" on="0"/>
        <pt x="134" y="21" on="0"/>
        <pt x="76" y="93" on="0"/>
        <pt x="41" y="213" on="0"/>
        <pt x="41" y="302" on="1"/>
        <pt x="41" y="336" on="0"/>
        <pt x="49" y="425" on="0"/>
        <pt x="74" y="518" on="0"/>
        <pt x="121" y="607" on="0"/>
        <pt x="198" y="677" on="0"/>
        <pt x="310" y="720" on="0"/>
        <pt x="388" y="720" on="1"/>
        <pt x="439" y="720" on="0"/>
        <pt x="520" y="698" on="0"/>
        <pt x="577" y="658" on="0"/>
        <pt x="608" y="600" on="0"/>
        <pt x="608" y="564" on="1"/>
        <pt x="608" y="506" on="0"/>
        <pt x="532" y="447" on="0"/>
        <pt x="463" y="447" on="1"/>
        <pt x="441" y="447" on="0"/>
        <pt x="432" y="454" on="0"/>
        <pt x="431" y="465" on="1"/>
        <pt x="429" y="483" on="0"/>
        <pt x="428" y="519" on="0"/>
        <pt x="419" y="549" on="0"/>
        <pt x="397" y="567" on="0"/>
        <pt x="373" y="567" on="1"/>
        <pt x="324" y="567" on="0"/>
        <pt x="266" y="511" on="0"/>
        <pt x="236" y="431" on="0"/>
        <pt x="228" y="346" on="0"/>
        <pt x="228" y="317" on="1"/>
        <pt x="228" y="269" on="0"/>
        <pt x="240" y="204" on="0"/>
        <pt x="263" y="163" on="0"/>
        <pt x="295" y="146" on="0"/>
        <pt x="316" y="146" on="1"/>
        <pt x="354" y="146" on="0"/>
        <pt x="406" y="178" on="0"/>
        <pt x="411" y="220" on="1"/>
        <pt x="417" y="276" on="1"/>
        <pt x="420" y="305" on="0"/>
        <pt x="430" y="342" on="0"/>
        <pt x="449" y="342" on="1"/>
        <pt x="504" y="342" on="1"/>
        <pt x="529" y="342" on="0"/>
        <pt x="560" y="331" on="0"/>
        <pt x="577" y="306" on="0"/>
        <pt x="583" y="266" on="0"/>
        <pt x="583" y="237" on="1"/>
        <pt x="583" y="217" on="0"/>
        <pt x="580" y="151" on="0"/>
        <pt x="575" y="83" on="0"/>
        <pt x="569" y="26" on="0"/>
        <pt x="567" y="15" on="1"/>
        <pt x="565" y="6" on="0"/>
        <pt x="559" y="0" on="0"/>
        <pt x="550" y="0" on="1"/>
      </contour>
      <contour>
        <pt x="400" y="780" on="1"/>
        <pt x="359" y="780" on="0"/>
        <pt x="303" y="799" on="0"/>
        <pt x="267" y="827" on="0"/>
        <pt x="251" y="860" on="0"/>
        <pt x="251" y="874" on="1"/>
        <pt x="251" y="899" on="0"/>
        <pt x="291" y="925" on="0"/>
        <pt x="317" y="925" on="1"/>
        <pt x="340" y="925" on="0"/>
        <pt x="357" y="907" on="0"/>
        <pt x="369" y="884" on="0"/>
        <pt x="386" y="866" on="0"/>
        <pt x="409" y="866" on="1"/>
        <pt x="432" y="866" on="0"/>
        <pt x="458" y="884" on="0"/>
        <pt x="480" y="907" on="0"/>
        <pt x="510" y="925" on="0"/>
        <pt x="537" y="925" on="1"/>
        <pt x="580" y="925" on="0"/>
        <pt x="580" y="894" on="1"/>
        <pt x="580" y="877" on="0"/>
        <pt x="557" y="837" on="0"/>
        <pt x="512" y="803" on="0"/>
        <pt x="445" y="780" on="0"/>
      </contour>
    </TTGlyph>
    <TTGlyph name="Gcircumflex" xMin="41" yMin="-10" xMax="608" yMax="964">
      <contour>
        <pt x="495" y="0" on="1"/>
        <pt x="443" y="0" on="0"/>
        <pt x="398" y="43" on="0"/>
        <pt x="396" y="75" on="1"/>
        <pt x="385" y="41" on="0"/>
        <pt x="314" y="-10" on="0"/>
        <pt x="247" y="-10" on="1"/>
        <pt x="208" y="-10" on="0"/>
        <pt x="134" y="21" on="0"/>
        <pt x="76" y="93" on="0"/>
        <pt x="41" y="213" on="0"/>
        <pt x="41" y="302" on="1"/>
        <pt x="41" y="336" on="0"/>
        <pt x="49" y="425" on="0"/>
        <pt x="74" y="518" on="0"/>
        <pt x="121" y="607" on="0"/>
        <pt x="198" y="677" on="0"/>
        <pt x="310" y="720" on="0"/>
        <pt x="388" y="720" on="1"/>
        <pt x="439" y="720" on="0"/>
        <pt x="520" y="698" on="0"/>
        <pt x="577" y="658" on="0"/>
        <pt x="608" y="600" on="0"/>
        <pt x="608" y="564" on="1"/>
        <pt x="608" y="506" on="0"/>
        <pt x="532" y="447" on="0"/>
        <pt x="463" y="447" on="1"/>
        <pt x="441" y="447" on="0"/>
        <pt x="432" y="454" on="0"/>
        <pt x="431" y="465" on="1"/>
        <pt x="429" y="483" on="0"/>
        <pt x="428" y="519" on="0"/>
        <pt x="419" y="549" on="0"/>
        <pt x="397" y="567" on="0"/>
        <pt x="373" y="567" on="1"/>
        <pt x="324" y="567" on="0"/>
        <pt x="266" y="511" on="0"/>
        <pt x="236" y="431" on="0"/>
        <pt x="228" y="346" on="0"/>
        <pt x="228" y="317" on="1"/>
        <pt x="228" y="269" on="0"/>
        <pt x="240" y="204" on="0"/>
        <pt x="263" y="163" on="0"/>
        <pt x="295" y="146" on="0"/>
        <pt x="316" y="146" on="1"/>
        <pt x="354" y="146" on="0"/>
        <pt x="406" y="178" on="0"/>
        <pt x="411" y="220" on="1"/>
        <pt x="417" y="276" on="1"/>
        <pt x="420" y="305" on="0"/>
        <pt x="430" y="342" on="0"/>
        <pt x="449" y="342" on="1"/>
        <pt x="504" y="342" on="1"/>
        <pt x="529" y="342" on="0"/>
        <pt x="560" y="331" on="0"/>
        <pt x="577" y="306" on="0"/>
        <pt x="583" y="266" on="0"/>
        <pt x="583" y="237" on="1"/>
        <pt x="583" y="217" on="0"/>
        <pt x="580" y="151" on="0"/>
        <pt x="575" y="83" on="0"/>
        <pt x="569" y="26" on="0"/>
        <pt x="567" y="15" on="1"/>
        <pt x="565" y="6" on="0"/>
        <pt x="559" y="0" on="0"/>
        <pt x="550" y="0" on="1"/>
      </contour>
      <contour>
        <pt x="523" y="780" on="1"/>
        <pt x="514" y="780" on="0"/>
        <pt x="488" y="794" on="0"/>
        <pt x="459" y="817" on="0"/>
        <pt x="427" y="846" on="0"/>
        <pt x="412" y="862" on="1"/>
        <pt x="391" y="846" on="0"/>
        <pt x="346" y="817" on="0"/>
        <pt x="307" y="794" on="0"/>
        <pt x="276" y="780" on="0"/>
        <pt x="267" y="780" on="1"/>
        <pt x="260" y="780" on="0"/>
        <pt x="243" y="791" on="0"/>
        <pt x="228" y="806" on="0"/>
        <pt x="217" y="820" on="0"/>
        <pt x="217" y="823" on="1"/>
        <pt x="217" y="826" on="0"/>
        <pt x="242" y="851" on="0"/>
        <pt x="281" y="887" on="0"/>
        <pt x="328" y="929" on="0"/>
        <pt x="349" y="949" on="1"/>
        <pt x="357" y="956" on="0"/>
        <pt x="402" y="964" on="0"/>
        <pt x="425" y="964" on="1"/>
        <pt x="438" y="964" on="0"/>
        <pt x="473" y="958" on="0"/>
        <pt x="478" y="949" on="1"/>
        <pt x="496" y="928" on="0"/>
        <pt x="532" y="885" on="0"/>
        <pt x="560" y="849" on="0"/>
        <pt x="578" y="825" on="0"/>
        <pt x="578" y="823" on="1"/>
        <pt x="578" y="821" on="0"/>
        <pt x="566" y="807" on="0"/>
        <pt x="549" y="792" on="0"/>
        <pt x="530" y="780" on="0"/>
      </contour>
    </TTGlyph>
    <TTGlyph name="Gcommaaccent" xMin="41" yMin="-200" xMax="608" yMax="720">
      <contour>
        <pt x="495" y="0" on="1"/>
        <pt x="443" y="0" on="0"/>
        <pt x="398" y="43" on="0"/>
        <pt x="396" y="75" on="1"/>
        <pt x="385" y="41" on="0"/>
        <pt x="314" y="-10" on="0"/>
        <pt x="247" y="-10" on="1"/>
        <pt x="208" y="-10" on="0"/>
        <pt x="134" y="21" on="0"/>
        <pt x="76" y="93" on="0"/>
        <pt x="41" y="213" on="0"/>
        <pt x="41" y="302" on="1"/>
        <pt x="41" y="336" on="0"/>
        <pt x="49" y="425" on="0"/>
        <pt x="74" y="518" on="0"/>
        <pt x="121" y="607" on="0"/>
        <pt x="198" y="677" on="0"/>
        <pt x="310" y="720" on="0"/>
        <pt x="388" y="720" on="1"/>
        <pt x="439" y="720" on="0"/>
        <pt x="520" y="698" on="0"/>
        <pt x="577" y="658" on="0"/>
        <pt x="608" y="600" on="0"/>
        <pt x="608" y="564" on="1"/>
        <pt x="608" y="506" on="0"/>
        <pt x="532" y="447" on="0"/>
        <pt x="463" y="447" on="1"/>
        <pt x="441" y="447" on="0"/>
        <pt x="432" y="454" on="0"/>
        <pt x="431" y="465" on="1"/>
        <pt x="429" y="483" on="0"/>
        <pt x="428" y="519" on="0"/>
        <pt x="419" y="549" on="0"/>
        <pt x="397" y="567" on="0"/>
        <pt x="373" y="567" on="1"/>
        <pt x="324" y="567" on="0"/>
        <pt x="266" y="511" on="0"/>
        <pt x="236" y="431" on="0"/>
        <pt x="228" y="346" on="0"/>
        <pt x="228" y="317" on="1"/>
        <pt x="228" y="269" on="0"/>
        <pt x="240" y="204" on="0"/>
        <pt x="263" y="163" on="0"/>
        <pt x="295" y="146" on="0"/>
        <pt x="316" y="146" on="1"/>
        <pt x="354" y="146" on="0"/>
        <pt x="406" y="178" on="0"/>
        <pt x="411" y="220" on="1"/>
        <pt x="417" y="276" on="1"/>
        <pt x="420" y="305" on="0"/>
        <pt x="430" y="342" on="0"/>
        <pt x="449" y="342" on="1"/>
        <pt x="504" y="342" on="1"/>
        <pt x="529" y="342" on="0"/>
        <pt x="560" y="331" on="0"/>
        <pt x="577" y="306" on="0"/>
        <pt x="583" y="266" on="0"/>
        <pt x="583" y="237" on="1"/>
        <pt x="583" y="217" on="0"/>
        <pt x="580" y="151" on="0"/>
        <pt x="575" y="83" on="0"/>
        <pt x="569" y="26" on="0"/>
        <pt x="567" y="15" on="1"/>
        <pt x="565" y="6" on="0"/>
        <pt x="559" y="0" on="0"/>
        <pt x="550" y="0" on="1"/>
      </contour>
      <contour>
        <pt x="258" y="-131" on="1"/>
        <pt x="235" y="-131" on="0"/>
        <pt x="218" y="-109" on="0"/>
        <pt x="218" y="-92" on="1"/>
        <pt x="218" y="-66" on="0"/>
        <pt x="249" y="-40" on="0"/>
        <pt x="277" y="-40" on="1"/>
        <pt x="309" y="-40" on="0"/>
        <pt x="330" y="-73" on="0"/>
        <pt x="330" y="-96" on="1"/>
        <pt x="330" y="-116" on="0"/>
        <pt x="319" y="-154" on="0"/>
        <pt x="300" y="-183" on="0"/>
        <pt x="272" y="-200" on="0"/>
        <pt x="256" y="-200" on="1"/>
        <pt x="236" y="-200" on="0"/>
        <pt x="226" y="-180" on="0"/>
        <pt x="226" y="-168" on="1"/>
        <pt x="226" y="-167" on="0"/>
        <pt x="236" y="-159" on="0"/>
        <pt x="248" y="-149" on="0"/>
        <pt x="258" y="-137" on="0"/>
      </contour>
    </TTGlyph>
    <TTGlyph name="Gdotaccent" xMin="41" yMin="-10" xMax="608" yMax="930">
      <contour>
        <pt x="495" y="0" on="1"/>
        <pt x="443" y="0" on="0"/>
        <pt x="398" y="43" on="0"/>
        <pt x="396" y="75" on="1"/>
        <pt x="385" y="41" on="0"/>
        <pt x="314" y="-10" on="0"/>
        <pt x="247" y="-10" on="1"/>
        <pt x="208" y="-10" on="0"/>
        <pt x="134" y="21" on="0"/>
        <pt x="76" y="93" on="0"/>
        <pt x="41" y="213" on="0"/>
        <pt x="41" y="302" on="1"/>
        <pt x="41" y="336" on="0"/>
        <pt x="49" y="425" on="0"/>
        <pt x="74" y="518" on="0"/>
        <pt x="121" y="607" on="0"/>
        <pt x="198" y="677" on="0"/>
        <pt x="310" y="720" on="0"/>
        <pt x="388" y="720" on="1"/>
        <pt x="439" y="720" on="0"/>
        <pt x="520" y="698" on="0"/>
        <pt x="577" y="658" on="0"/>
        <pt x="608" y="600" on="0"/>
        <pt x="608" y="564" on="1"/>
        <pt x="608" y="506" on="0"/>
        <pt x="532" y="447" on="0"/>
        <pt x="463" y="447" on="1"/>
        <pt x="441" y="447" on="0"/>
        <pt x="432" y="454" on="0"/>
        <pt x="431" y="465" on="1"/>
        <pt x="429" y="483" on="0"/>
        <pt x="428" y="519" on="0"/>
        <pt x="419" y="549" on="0"/>
        <pt x="397" y="567" on="0"/>
        <pt x="373" y="567" on="1"/>
        <pt x="324" y="567" on="0"/>
        <pt x="266" y="511" on="0"/>
        <pt x="236" y="431" on="0"/>
        <pt x="228" y="346" on="0"/>
        <pt x="228" y="317" on="1"/>
        <pt x="228" y="269" on="0"/>
        <pt x="240" y="204" on="0"/>
        <pt x="263" y="163" on="0"/>
        <pt x="295" y="146" on="0"/>
        <pt x="316" y="146" on="1"/>
        <pt x="354" y="146" on="0"/>
        <pt x="406" y="178" on="0"/>
        <pt x="411" y="220" on="1"/>
        <pt x="417" y="276" on="1"/>
        <pt x="420" y="305" on="0"/>
        <pt x="430" y="342" on="0"/>
        <pt x="449" y="342" on="1"/>
        <pt x="504" y="342" on="1"/>
        <pt x="529" y="342" on="0"/>
        <pt x="560" y="331" on="0"/>
        <pt x="577" y="306" on="0"/>
        <pt x="583" y="266" on="0"/>
        <pt x="583" y="237" on="1"/>
        <pt x="583" y="217" on="0"/>
        <pt x="580" y="151" on="0"/>
        <pt x="575" y="83" on="0"/>
        <pt x="569" y="26" on="0"/>
        <pt x="567" y="15" on="1"/>
        <pt x="565" y="6" on="0"/>
        <pt x="559" y="0" on="0"/>
        <pt x="550" y="0" on="1"/>
      </contour>
      <contour>
        <pt x="319" y="844" on="1"/>
        <pt x="319" y="884" on="0"/>
        <pt x="377" y="930" on="0"/>
        <pt x="426" y="930" on="1"/>
        <pt x="469" y="930" on="0"/>
        <pt x="508" y="895" on="0"/>
        <pt x="508" y="866" on="1"/>
        <pt x="508" y="829" on="0"/>
        <pt x="453" y="780" on="0"/>
        <pt x="400" y="780" on="1"/>
        <pt x="319" y="780" on="0"/>
      </contour>
    </TTGlyph>
    <TTGlyph name="H" xMin="51" yMin="0" xMax="627" yMax="710">
      <contour>
        <pt x="515" y="0" on="1"/>
        <pt x="459" y="0" on="0"/>
        <pt x="411" y="44" on="0"/>
        <pt x="411" y="85" on="1"/>
        <pt x="411" y="107" on="0"/>
        <pt x="419" y="219" on="0"/>
        <pt x="424" y="289" on="1"/>
        <pt x="246" y="289" on="1"/>
        <pt x="226" y="15" on="1"/>
        <pt x="225" y="7" on="0"/>
        <pt x="219" y="0" on="0"/>
        <pt x="210" y="0" on="1"/>
        <pt x="155" y="0" on="1"/>
        <pt x="99" y="0" on="0"/>
        <pt x="51" y="44" on="0"/>
        <pt x="51" y="85" on="1"/>
        <pt x="51" y="105" on="0"/>
        <pt x="57" y="202" on="0"/>
        <pt x="67" y="326" on="0"/>
        <pt x="77" y="464" on="0"/>
        <pt x="87" y="586" on="0"/>
        <pt x="93" y="678" on="0"/>
        <pt x="93" y="695" on="1"/>
        <pt x="93" y="710" on="0"/>
        <pt x="109" y="710" on="1"/>
        <pt x="164" y="710" on="1"/>
        <pt x="225" y="710" on="0"/>
        <pt x="267" y="658" on="0"/>
        <pt x="267" y="607" on="1"/>
        <pt x="267" y="599" on="0"/>
        <pt x="261" y="502" on="0"/>
        <pt x="256" y="434" on="1"/>
        <pt x="435" y="434" on="1"/>
        <pt x="438" y="478" on="0"/>
        <pt x="445" y="562" on="0"/>
        <pt x="450" y="632" on="0"/>
        <pt x="453" y="683" on="0"/>
        <pt x="453" y="695" on="1"/>
        <pt x="453" y="710" on="0"/>
        <pt x="469" y="710" on="1"/>
        <pt x="524" y="710" on="1"/>
        <pt x="585" y="710" on="0"/>
        <pt x="627" y="658" on="0"/>
        <pt x="627" y="607" on="1"/>
        <pt x="627" y="602" on="0"/>
        <pt x="624" y="548" on="0"/>
        <pt x="618" y="466" on="0"/>
        <pt x="611" y="365" on="0"/>
        <pt x="604" y="259" on="0"/>
        <pt x="597" y="158" on="0"/>
        <pt x="591" y="76" on="0"/>
        <pt x="587" y="21" on="0"/>
        <pt x="586" y="15" on="1"/>
        <pt x="585" y="7" on="0"/>
        <pt x="579" y="0" on="0"/>
        <pt x="570" y="0" on="1"/>
      </contour>
    </TTGlyph>
    <TTGlyph name="Hbar" xMin="31" yMin="0" xMax="692" yMax="710">
      <contour>
        <pt x="520" y="0" on="1"/>
        <pt x="464" y="0" on="0"/>
        <pt x="416" y="44" on="0"/>
        <pt x="416" y="85" on="1"/>
        <pt x="416" y="107" on="0"/>
        <pt x="424" y="219" on="0"/>
        <pt x="429" y="289" on="1"/>
        <pt x="251" y="289" on="1"/>
        <pt x="231" y="15" on="1"/>
        <pt x="230" y="7" on="0"/>
        <pt x="224" y="0" on="0"/>
        <pt x="215" y="0" on="1"/>
        <pt x="160" y="0" on="1"/>
        <pt x="104" y="0" on="0"/>
        <pt x="56" y="44" on="0"/>
        <pt x="56" y="85" on="1"/>
        <pt x="56" y="105" on="0"/>
        <pt x="62" y="199" on="0"/>
        <pt x="71" y="321" on="0"/>
        <pt x="81" y="456" on="0"/>
        <pt x="86" y="517" on="1"/>
        <pt x="42" y="517" on="1"/>
        <pt x="31" y="517" on="0"/>
        <pt x="31" y="528" on="1"/>
        <pt x="31" y="544" on="0"/>
        <pt x="33" y="577" on="0"/>
        <pt x="45" y="604" on="0"/>
        <pt x="70" y="621" on="0"/>
        <pt x="94" y="623" on="1"/>
        <pt x="96" y="648" on="0"/>
        <pt x="98" y="686" on="0"/>
        <pt x="98" y="695" on="1"/>
        <pt x="98" y="710" on="0"/>
        <pt x="114" y="710" on="1"/>
        <pt x="169" y="710" on="1"/>
        <pt x="225" y="710" on="0"/>
        <pt x="269" y="667" on="0"/>
        <pt x="271" y="624" on="1"/>
        <pt x="454" y="624" on="1"/>
        <pt x="456" y="649" on="0"/>
        <pt x="458" y="685" on="0"/>
        <pt x="458" y="695" on="1"/>
        <pt x="458" y="710" on="0"/>
        <pt x="474" y="710" on="1"/>
        <pt x="529" y="710" on="1"/>
        <pt x="585" y="710" on="0"/>
        <pt x="629" y="667" on="0"/>
        <pt x="631" y="624" on="1"/>
        <pt x="676" y="624" on="1"/>
        <pt x="682" y="624" on="0"/>
        <pt x="692" y="617" on="0"/>
        <pt x="692" y="610" on="1"/>
        <pt x="692" y="590" on="0"/>
        <pt x="688" y="558" on="0"/>
        <pt x="674" y="534" on="0"/>
        <pt x="649" y="519" on="0"/>
        <pt x="627" y="517" on="1"/>
        <pt x="591" y="15" on="1"/>
        <pt x="590" y="7" on="0"/>
        <pt x="584" y="0" on="0"/>
        <pt x="575" y="0" on="1"/>
      </contour>
      <contour>
        <pt x="446" y="517" on="1"/>
        <pt x="267" y="517" on="1"/>
        <pt x="261" y="434" on="1"/>
        <pt x="440" y="434" on="1"/>
      </contour>
    </TTGlyph>
    <TTGlyph name="Hcircumflex" xMin="51" yMin="0" xMax="627" yMax="964">
      <contour>
        <pt x="515" y="0" on="1"/>
        <pt x="459" y="0" on="0"/>
        <pt x="411" y="44" on="0"/>
        <pt x="411" y="85" on="1"/>
        <pt x="411" y="107" on="0"/>
        <pt x="419" y="219" on="0"/>
        <pt x="424" y="289" on="1"/>
        <pt x="246" y="289" on="1"/>
        <pt x="226" y="15" on="1"/>
        <pt x="225" y="7" on="0"/>
        <pt x="219" y="0" on="0"/>
        <pt x="210" y="0" on="1"/>
        <pt x="155" y="0" on="1"/>
        <pt x="99" y="0" on="0"/>
        <pt x="51" y="44" on="0"/>
        <pt x="51" y="85" on="1"/>
        <pt x="51" y="105" on="0"/>
        <pt x="57" y="202" on="0"/>
        <pt x="67" y="326" on="0"/>
        <pt x="77" y="464" on="0"/>
        <pt x="87" y="586" on="0"/>
        <pt x="93" y="678" on="0"/>
        <pt x="93" y="695" on="1"/>
        <pt x="93" y="710" on="0"/>
        <pt x="109" y="710" on="1"/>
        <pt x="164" y="710" on="1"/>
        <pt x="225" y="710" on="0"/>
        <pt x="267" y="658" on="0"/>
        <pt x="267" y="607" on="1"/>
        <pt x="267" y="599" on="0"/>
        <pt x="261" y="502" on="0"/>
        <pt x="256" y="434" on="1"/>
        <pt x="435" y="434" on="1"/>
        <pt x="438" y="478" on="0"/>
        <pt x="445" y="562" on="0"/>
        <pt x="450" y="632" on="0"/>
        <pt x="453" y="683" on="0"/>
        <pt x="453" y="695" on="1"/>
        <pt x="453" y="710" on="0"/>
        <pt x="469" y="710" on="1"/>
        <pt x="524" y="710" on="1"/>
        <pt x="585" y="710" on="0"/>
        <pt x="627" y="658" on="0"/>
        <pt x="627" y="607" on="1"/>
        <pt x="627" y="602" on="0"/>
        <pt x="624" y="548" on="0"/>
        <pt x="618" y="466" on="0"/>
        <pt x="611" y="365" on="0"/>
        <pt x="604" y="259" on="0"/>
        <pt x="597" y="158" on="0"/>
        <pt x="591" y="76" on="0"/>
        <pt x="587" y="21" on="0"/>
        <pt x="586" y="15" on="1"/>
        <pt x="585" y="7" on="0"/>
        <pt x="579" y="0" on="0"/>
        <pt x="570" y="0" on="1"/>
      </contour>
      <contour>
        <pt x="489" y="780" on="1"/>
        <pt x="480" y="780" on="0"/>
        <pt x="454" y="794" on="0"/>
        <pt x="425" y="817" on="0"/>
        <pt x="393" y="846" on="0"/>
        <pt x="378" y="862" on="1"/>
        <pt x="357" y="846" on="0"/>
        <pt x="312" y="817" on="0"/>
        <pt x="273" y="794" on="0"/>
        <pt x="242" y="780" on="0"/>
        <pt x="233" y="780" on="1"/>
        <pt x="226" y="780" on="0"/>
        <pt x="209" y="791" on="0"/>
        <pt x="194" y="806" on="0"/>
        <pt x="183" y="820" on="0"/>
        <pt x="183" y="823" on="1"/>
        <pt x="183" y="826" on="0"/>
        <pt x="208" y="851" on="0"/>
        <pt x="247" y="887" on="0"/>
        <pt x="294" y="929" on="0"/>
        <pt x="315" y="949" on="1"/>
        <pt x="323" y="956" on="0"/>
        <pt x="368" y="964" on="0"/>
        <pt x="391" y="964" on="1"/>
        <pt x="404" y="964" on="0"/>
        <pt x="439" y="958" on="0"/>
        <pt x="444" y="949" on="1"/>
        <pt x="462" y="928" on="0"/>
        <pt x="498" y="885" on="0"/>
        <pt x="526" y="849" on="0"/>
        <pt x="544" y="825" on="0"/>
        <pt x="544" y="823" on="1"/>
        <pt x="544" y="821" on="0"/>
        <pt x="532" y="807" on="0"/>
        <pt x="515" y="792" on="0"/>
        <pt x="496" y="780" on="0"/>
      </contour>
    </TTGlyph>
    <TTGlyph name="Hdotbelow" xMin="51" yMin="-186" xMax="627" yMax="710">
      <contour>
        <pt x="515" y="0" on="1"/>
        <pt x="459" y="0" on="0"/>
        <pt x="411" y="44" on="0"/>
        <pt x="411" y="85" on="1"/>
        <pt x="411" y="107" on="0"/>
        <pt x="419" y="219" on="0"/>
        <pt x="424" y="289" on="1"/>
        <pt x="246" y="289" on="1"/>
        <pt x="226" y="15" on="1"/>
        <pt x="225" y="7" on="0"/>
        <pt x="219" y="0" on="0"/>
        <pt x="210" y="0" on="1"/>
        <pt x="155" y="0" on="1"/>
        <pt x="99" y="0" on="0"/>
        <pt x="51" y="44" on="0"/>
        <pt x="51" y="85" on="1"/>
        <pt x="51" y="105" on="0"/>
        <pt x="57" y="202" on="0"/>
        <pt x="67" y="326" on="0"/>
        <pt x="77" y="464" on="0"/>
        <pt x="87" y="586" on="0"/>
        <pt x="93" y="678" on="0"/>
        <pt x="93" y="695" on="1"/>
        <pt x="93" y="710" on="0"/>
        <pt x="109" y="710" on="1"/>
        <pt x="164" y="710" on="1"/>
        <pt x="225" y="710" on="0"/>
        <pt x="267" y="658" on="0"/>
        <pt x="267" y="607" on="1"/>
        <pt x="267" y="599" on="0"/>
        <pt x="261" y="502" on="0"/>
        <pt x="256" y="434" on="1"/>
        <pt x="435" y="434" on="1"/>
        <pt x="438" y="478" on="0"/>
        <pt x="445" y="562" on="0"/>
        <pt x="450" y="632" on="0"/>
        <pt x="453" y="683" on="0"/>
        <pt x="453" y="695" on="1"/>
        <pt x="453" y="710" on="0"/>
        <pt x="469" y="710" on="1"/>
        <pt x="524" y="710" on="1"/>
        <pt x="585" y="710" on="0"/>
        <pt x="627" y="658" on="0"/>
        <pt x="627" y="607" on="1"/>
        <pt x="627" y="602" on="0"/>
        <pt x="624" y="548" on="0"/>
        <pt x="618" y="466" on="0"/>
        <pt x="611" y="365" on="0"/>
        <pt x="604" y="259" on="0"/>
        <pt x="597" y="158" on="0"/>
        <pt x="591" y="76" on="0"/>
        <pt x="587" y="21" on="0"/>
        <pt x="586" y="15" on="1"/>
        <pt x="585" y="7" on="0"/>
        <pt x="579" y="0" on="0"/>
        <pt x="570" y="0" on="1"/>
      </contour>
      <contour>
        <pt x="235" y="-130" on="1"/>
        <pt x="235" y="-95" on="0"/>
        <pt x="283" y="-54" on="0"/>
        <pt x="325" y="-54" on="1"/>
        <pt x="360" y="-54" on="0"/>
        <pt x="392" y="-85" on="0"/>
        <pt x="392" y="-111" on="1"/>
        <pt x="392" y="-143" on="0"/>
        <pt x="346" y="-186" on="0"/>
        <pt x="301" y="-186" on="1"/>
        <pt x="235" y="-186" on="0"/>
      </contour>
    </TTGlyph>
    <TTGlyph name="I" xMin="51" yMin="0" xMax="267" yMax="710">
      <contour>
        <pt x="155" y="0" on="1"/>
        <pt x="99" y="0" on="0"/>
        <pt x="51" y="44" on="0"/>
        <pt x="51" y="85" on="1"/>
        <pt x="51" y="105" on="0"/>
        <pt x="57" y="202" on="0"/>
        <pt x="67" y="326" on="0"/>
        <pt x="77" y="464" on="0"/>
        <pt x="87" y="586" on="0"/>
        <pt x="93" y="678" on="0"/>
        <pt x="93" y="695" on="1"/>
        <pt x="93" y="710" on="0"/>
        <pt x="109" y="710" on="1"/>
        <pt x="164" y="710" on="1"/>
        <pt x="225" y="710" on="0"/>
        <pt x="267" y="658" on="0"/>
        <pt x="267" y="607" on="1"/>
        <pt x="267" y="602" on="0"/>
        <pt x="264" y="548" on="0"/>
        <pt x="258" y="466" on="0"/>
        <pt x="251" y="365" on="0"/>
        <pt x="244" y="259" on="0"/>
        <pt x="237" y="158" on="0"/>
        <pt x="231" y="76" on="0"/>
        <pt x="227" y="21" on="0"/>
        <pt x="226" y="15" on="1"/>
        <pt x="225" y="7" on="0"/>
        <pt x="219" y="0" on="0"/>
        <pt x="210" y="0" on="1"/>
      </contour>
    </TTGlyph>
    <TTGlyph name="IJ" xMin="51" yMin="-10" xMax="726" yMax="710">
      <contour>
        <pt x="155" y="0" on="1"/>
        <pt x="99" y="0" on="0"/>
        <pt x="51" y="44" on="0"/>
        <pt x="51" y="85" on="1"/>
        <pt x="51" y="105" on="0"/>
        <pt x="57" y="202" on="0"/>
        <pt x="67" y="326" on="0"/>
        <pt x="77" y="464" on="0"/>
        <pt x="87" y="586" on="0"/>
        <pt x="93" y="678" on="0"/>
        <pt x="93" y="695" on="1"/>
        <pt x="93" y="710" on="0"/>
        <pt x="109" y="710" on="1"/>
        <pt x="164" y="710" on="1"/>
        <pt x="225" y="710" on="0"/>
        <pt x="267" y="658" on="0"/>
        <pt x="267" y="607" on="1"/>
        <pt x="267" y="602" on="0"/>
        <pt x="264" y="548" on="0"/>
        <pt x="258" y="466" on="0"/>
        <pt x="251" y="365" on="0"/>
        <pt x="244" y="259" on="0"/>
        <pt x="237" y="158" on="0"/>
        <pt x="231" y="76" on="0"/>
        <pt x="227" y="21" on="0"/>
        <pt x="226" y="15" on="1"/>
        <pt x="225" y="7" on="0"/>
        <pt x="219" y="0" on="0"/>
        <pt x="210" y="0" on="1"/>
      </contour>
      <contour>
        <pt x="452" y="146" on="1"/>
        <pt x="474" y="146" on="0"/>
        <pt x="501" y="178" on="0"/>
        <pt x="519" y="232" on="0"/>
        <pt x="530" y="303" on="0"/>
        <pt x="535" y="343" on="1"/>
        <pt x="537" y="361" on="0"/>
        <pt x="541" y="410" on="0"/>
        <pt x="546" y="487" on="0"/>
        <pt x="553" y="602" on="0"/>
        <pt x="558" y="686" on="1"/>
        <pt x="559" y="700" on="0"/>
        <pt x="563" y="710" on="0"/>
        <pt x="574" y="710" on="1"/>
        <pt x="629" y="710" on="1"/>
        <pt x="663" y="710" on="0"/>
        <pt x="702" y="698" on="0"/>
        <pt x="722" y="680" on="0"/>
        <pt x="726" y="659" on="0"/>
        <pt x="726" y="649" on="1"/>
        <pt x="726" y="639" on="0"/>
        <pt x="724" y="567" on="0"/>
        <pt x="720" y="472" on="0"/>
        <pt x="713" y="368" on="0"/>
        <pt x="709" y="326" on="1"/>
        <pt x="703" y="269" on="0"/>
        <pt x="678" y="150" on="0"/>
        <pt x="622" y="52" on="0"/>
        <pt x="529" y="-10" on="0"/>
        <pt x="455" y="-10" on="1"/>
        <pt x="414" y="-10" on="0"/>
        <pt x="349" y="10" on="0"/>
        <pt x="304" y="45" on="0"/>
        <pt x="280" y="92" on="0"/>
        <pt x="280" y="118" on="1"/>
        <pt x="280" y="142" on="0"/>
        <pt x="299" y="181" on="0"/>
        <pt x="331" y="207" on="0"/>
        <pt x="372" y="221" on="0"/>
        <pt x="394" y="221" on="1"/>
        <pt x="400" y="221" on="0"/>
        <pt x="405" y="198" on="0"/>
        <pt x="414" y="169" on="0"/>
        <pt x="432" y="146" on="0"/>
      </contour>
    </TTGlyph>
    <TTGlyph name="Iacute" xMin="51" yMin="0" xMax="398" yMax="964">
      <contour>
        <pt x="155" y="0" on="1"/>
        <pt x="99" y="0" on="0"/>
        <pt x="51" y="44" on="0"/>
        <pt x="51" y="85" on="1"/>
        <pt x="51" y="105" on="0"/>
        <pt x="57" y="202" on="0"/>
        <pt x="67" y="326" on="0"/>
        <pt x="77" y="464" on="0"/>
        <pt x="87" y="586" on="0"/>
        <pt x="93" y="678" on="0"/>
        <pt x="93" y="695" on="1"/>
        <pt x="93" y="710" on="0"/>
        <pt x="109" y="710" on="1"/>
        <pt x="164" y="710" on="1"/>
        <pt x="225" y="710" on="0"/>
        <pt x="267" y="658" on="0"/>
        <pt x="267" y="607" on="1"/>
        <pt x="267" y="602" on="0"/>
        <pt x="264" y="548" on="0"/>
        <pt x="258" y="466" on="0"/>
        <pt x="251" y="365" on="0"/>
        <pt x="244" y="259" on="0"/>
        <pt x="237" y="158" on="0"/>
        <pt x="231" y="76" on="0"/>
        <pt x="227" y="21" on="0"/>
        <pt x="226" y="15" on="1"/>
        <pt x="225" y="7" on="0"/>
        <pt x="219" y="0" on="0"/>
        <pt x="210" y="0" on="1"/>
      </contour>
      <contour>
        <pt x="185" y="780" on="1"/>
        <pt x="174" y="780" on="0"/>
        <pt x="157" y="795" on="0"/>
        <pt x="145" y="815" on="0"/>
        <pt x="139" y="832" on="0"/>
        <pt x="139" y="835" on="1"/>
        <pt x="139" y="842" on="0"/>
        <pt x="179" y="884" on="0"/>
        <pt x="233" y="929" on="0"/>
        <pt x="286" y="964" on="0"/>
        <pt x="299" y="964" on="1"/>
        <pt x="308" y="964" on="0"/>
        <pt x="342" y="943" on="0"/>
        <pt x="374" y="916" on="0"/>
        <pt x="398" y="887" on="0"/>
        <pt x="398" y="880" on="1"/>
        <pt x="398" y="872" on="0"/>
        <pt x="371" y="851" on="0"/>
        <pt x="330" y="829" on="0"/>
        <pt x="280" y="807" on="0"/>
        <pt x="233" y="790" on="0"/>
        <pt x="194" y="780" on="0"/>
      </contour>
    </TTGlyph>
    <TTGlyph name="Ibreve" xMin="32" yMin="0" xMax="361" yMax="925">
      <contour>
        <pt x="155" y="0" on="1"/>
        <pt x="99" y="0" on="0"/>
        <pt x="51" y="44" on="0"/>
        <pt x="51" y="85" on="1"/>
        <pt x="51" y="105" on="0"/>
        <pt x="57" y="202" on="0"/>
        <pt x="67" y="326" on="0"/>
        <pt x="77" y="464" on="0"/>
        <pt x="87" y="586" on="0"/>
        <pt x="93" y="678" on="0"/>
        <pt x="93" y="695" on="1"/>
        <pt x="93" y="710" on="0"/>
        <pt x="109" y="710" on="1"/>
        <pt x="164" y="710" on="1"/>
        <pt x="225" y="710" on="0"/>
        <pt x="267" y="658" on="0"/>
        <pt x="267" y="607" on="1"/>
        <pt x="267" y="602" on="0"/>
        <pt x="264" y="548" on="0"/>
        <pt x="258" y="466" on="0"/>
        <pt x="251" y="365" on="0"/>
        <pt x="244" y="259" on="0"/>
        <pt x="237" y="158" on="0"/>
        <pt x="231" y="76" on="0"/>
        <pt x="227" y="21" on="0"/>
        <pt x="226" y="15" on="1"/>
        <pt x="225" y="7" on="0"/>
        <pt x="219" y="0" on="0"/>
        <pt x="210" y="0" on="1"/>
      </contour>
      <contour>
        <pt x="181" y="780" on="1"/>
        <pt x="140" y="780" on="0"/>
        <pt x="84" y="799" on="0"/>
        <pt x="48" y="827" on="0"/>
        <pt x="32" y="860" on="0"/>
        <pt x="32" y="874" on="1"/>
        <pt x="32" y="899" on="0"/>
        <pt x="72" y="925" on="0"/>
        <pt x="98" y="925" on="1"/>
        <pt x="121" y="925" on="0"/>
        <pt x="138" y="907" on="0"/>
        <pt x="150" y="884" on="0"/>
        <pt x="167" y="866" on="0"/>
        <pt x="190" y="866" on="1"/>
        <pt x="213" y="866" on="0"/>
        <pt x="239" y="884" on="0"/>
        <pt x="261" y="907" on="0"/>
        <pt x="291" y="925" on="0"/>
        <pt x="318" y="925" on="1"/>
        <pt x="361" y="925" on="0"/>
        <pt x="361" y="894" on="1"/>
        <pt x="361" y="877" on="0"/>
        <pt x="338" y="837" on="0"/>
        <pt x="293" y="803" on="0"/>
        <pt x="226" y="780" on="0"/>
      </contour>
    </TTGlyph>
    <TTGlyph name="Icircumflex" xMin="-2" yMin="0" xMax="359" yMax="964">
      <contour>
        <pt x="155" y="0" on="1"/>
        <pt x="99" y="0" on="0"/>
        <pt x="51" y="44" on="0"/>
        <pt x="51" y="85" on="1"/>
        <pt x="51" y="105" on="0"/>
        <pt x="57" y="202" on="0"/>
        <pt x="67" y="326" on="0"/>
        <pt x="77" y="464" on="0"/>
        <pt x="87" y="586" on="0"/>
        <pt x="93" y="678" on="0"/>
        <pt x="93" y="695" on="1"/>
        <pt x="93" y="710" on="0"/>
        <pt x="109" y="710" on="1"/>
        <pt x="164" y="710" on="1"/>
        <pt x="225" y="710" on="0"/>
        <pt x="267" y="658" on="0"/>
        <pt x="267" y="607" on="1"/>
        <pt x="267" y="602" on="0"/>
        <pt x="264" y="548" on="0"/>
        <pt x="258" y="466" on="0"/>
        <pt x="251" y="365" on="0"/>
        <pt x="244" y="259" on="0"/>
        <pt x="237" y="158" on="0"/>
        <pt x="231" y="76" on="0"/>
        <pt x="227" y="21" on="0"/>
        <pt x="226" y="15" on="1"/>
        <pt x="225" y="7" on="0"/>
        <pt x="219" y="0" on="0"/>
        <pt x="210" y="0" on="1"/>
      </contour>
      <contour>
        <pt x="304" y="780" on="1"/>
        <pt x="295" y="780" on="0"/>
        <pt x="269" y="794" on="0"/>
        <pt x="240" y="817" on="0"/>
        <pt x="208" y="846" on="0"/>
        <pt x="193" y="862" on="1"/>
        <pt x="172" y="846" on="0"/>
        <pt x="127" y="817" on="0"/>
        <pt x="88" y="794" on="0"/>
        <pt x="57" y="780" on="0"/>
        <pt x="48" y="780" on="1"/>
        <pt x="41" y="780" on="0"/>
        <pt x="24" y="791" on="0"/>
        <pt x="9" y="806" on="0"/>
        <pt x="-2" y="820" on="0"/>
        <pt x="-2" y="823" on="1"/>
        <pt x="-2" y="826" on="0"/>
        <pt x="23" y="851" on="0"/>
        <pt x="62" y="887" on="0"/>
        <pt x="109" y="929" on="0"/>
        <pt x="130" y="949" on="1"/>
        <pt x="138" y="956" on="0"/>
        <pt x="183" y="964" on="0"/>
        <pt x="206" y="964" on="1"/>
        <pt x="219" y="964" on="0"/>
        <pt x="254" y="958" on="0"/>
        <pt x="259" y="949" on="1"/>
        <pt x="277" y="928" on="0"/>
        <pt x="313" y="885" on="0"/>
        <pt x="341" y="849" on="0"/>
        <pt x="359" y="825" on="0"/>
        <pt x="359" y="823" on="1"/>
        <pt x="359" y="821" on="0"/>
        <pt x="347" y="807" on="0"/>
        <pt x="330" y="792" on="0"/>
        <pt x="311" y="780" on="0"/>
      </contour>
    </TTGlyph>
    <TTGlyph name="Idieresis" xMin="-13" yMin="0" xMax="373" yMax="916">
      <contour>
        <pt x="155" y="0" on="1"/>
        <pt x="99" y="0" on="0"/>
        <pt x="51" y="44" on="0"/>
        <pt x="51" y="85" on="1"/>
        <pt x="51" y="105" on="0"/>
        <pt x="57" y="202" on="0"/>
        <pt x="67" y="326" on="0"/>
        <pt x="77" y="464" on="0"/>
        <pt x="87" y="586" on="0"/>
        <pt x="93" y="678" on="0"/>
        <pt x="93" y="695" on="1"/>
        <pt x="93" y="710" on="0"/>
        <pt x="109" y="710" on="1"/>
        <pt x="164" y="710" on="1"/>
        <pt x="225" y="710" on="0"/>
        <pt x="267" y="658" on="0"/>
        <pt x="267" y="607" on="1"/>
        <pt x="267" y="602" on="0"/>
        <pt x="264" y="548" on="0"/>
        <pt x="258" y="466" on="0"/>
        <pt x="251" y="365" on="0"/>
        <pt x="244" y="259" on="0"/>
        <pt x="237" y="158" on="0"/>
        <pt x="231" y="76" on="0"/>
        <pt x="227" y="21" on="0"/>
        <pt x="226" y="15" on="1"/>
        <pt x="225" y="7" on="0"/>
        <pt x="219" y="0" on="0"/>
        <pt x="210" y="0" on="1"/>
      </contour>
      <contour>
        <pt x="-13" y="838" on="1"/>
        <pt x="-13" y="874" on="0"/>
        <pt x="35" y="916" on="0"/>
        <pt x="76" y="916" on="1"/>
        <pt x="112" y="916" on="0"/>
        <pt x="145" y="884" on="0"/>
        <pt x="145" y="858" on="1"/>
        <pt x="145" y="825" on="0"/>
        <pt x="99" y="780" on="0"/>
        <pt x="55" y="780" on="1"/>
        <pt x="-13" y="780" on="0"/>
      </contour>
      <contour>
        <pt x="215" y="838" on="1"/>
        <pt x="215" y="874" on="0"/>
        <pt x="263" y="916" on="0"/>
        <pt x="304" y="916" on="1"/>
        <pt x="340" y="916" on="0"/>
        <pt x="373" y="884" on="0"/>
        <pt x="373" y="858" on="1"/>
        <pt x="373" y="825" on="0"/>
        <pt x="327" y="780" on="0"/>
        <pt x="283" y="780" on="1"/>
        <pt x="215" y="780" on="0"/>
      </contour>
    </TTGlyph>
    <TTGlyph name="Idotaccent" xMin="51" yMin="0" xMax="289" yMax="930">
      <contour>
        <pt x="155" y="0" on="1"/>
        <pt x="99" y="0" on="0"/>
        <pt x="51" y="44" on="0"/>
        <pt x="51" y="85" on="1"/>
        <pt x="51" y="105" on="0"/>
        <pt x="57" y="202" on="0"/>
        <pt x="67" y="326" on="0"/>
        <pt x="77" y="464" on="0"/>
        <pt x="87" y="586" on="0"/>
        <pt x="93" y="678" on="0"/>
        <pt x="93" y="695" on="1"/>
        <pt x="93" y="710" on="0"/>
        <pt x="109" y="710" on="1"/>
        <pt x="164" y="710" on="1"/>
        <pt x="225" y="710" on="0"/>
        <pt x="267" y="658" on="0"/>
        <pt x="267" y="607" on="1"/>
        <pt x="267" y="602" on="0"/>
        <pt x="264" y="548" on="0"/>
        <pt x="258" y="466" on="0"/>
        <pt x="251" y="365" on="0"/>
        <pt x="244" y="259" on="0"/>
        <pt x="237" y="158" on="0"/>
        <pt x="231" y="76" on="0"/>
        <pt x="227" y="21" on="0"/>
        <pt x="226" y="15" on="1"/>
        <pt x="225" y="7" on="0"/>
        <pt x="219" y="0" on="0"/>
        <pt x="210" y="0" on="1"/>
      </contour>
      <contour>
        <pt x="100" y="844" on="1"/>
        <pt x="100" y="884" on="0"/>
        <pt x="158" y="930" on="0"/>
        <pt x="207" y="930" on="1"/>
        <pt x="250" y="930" on="0"/>
        <pt x="289" y="895" on="0"/>
        <pt x="289" y="866" on="1"/>
        <pt x="289" y="829" on="0"/>
        <pt x="234" y="780" on="0"/>
        <pt x="181" y="780" on="1"/>
        <pt x="100" y="780" on="0"/>
      </contour>
    </TTGlyph>
    <TTGlyph name="Idotbelow" xMin="42" yMin="-186" xMax="267" yMax="710">
      <contour>
        <pt x="155" y="0" on="1"/>
        <pt x="99" y="0" on="0"/>
        <pt x="51" y="44" on="0"/>
        <pt x="51" y="85" on="1"/>
        <pt x="51" y="105" on="0"/>
        <pt x="57" y="202" on="0"/>
        <pt x="67" y="326" on="0"/>
        <pt x="77" y="464" on="0"/>
        <pt x="87" y="586" on="0"/>
        <pt x="93" y="678" on="0"/>
        <pt x="93" y="695" on="1"/>
        <pt x="93" y="710" on="0"/>
        <pt x="109" y="710" on="1"/>
        <pt x="164" y="710" on="1"/>
        <pt x="225" y="710" on="0"/>
        <pt x="267" y="658" on="0"/>
        <pt x="267" y="607" on="1"/>
        <pt x="267" y="602" on="0"/>
        <pt x="264" y="548" on="0"/>
        <pt x="258" y="466" on="0"/>
        <pt x="251" y="365" on="0"/>
        <pt x="244" y="259" on="0"/>
        <pt x="237" y="158" on="0"/>
        <pt x="231" y="76" on="0"/>
        <pt x="227" y="21" on="0"/>
        <pt x="226" y="15" on="1"/>
        <pt x="225" y="7" on="0"/>
        <pt x="219" y="0" on="0"/>
        <pt x="210" y="0" on="1"/>
      </contour>
      <contour>
        <pt x="42" y="-130" on="1"/>
        <pt x="42" y="-95" on="0"/>
        <pt x="90" y="-54" on="0"/>
        <pt x="132" y="-54" on="1"/>
        <pt x="167" y="-54" on="0"/>
        <pt x="199" y="-85" on="0"/>
        <pt x="199" y="-111" on="1"/>
        <pt x="199" y="-143" on="0"/>
        <pt x="153" y="-186" on="0"/>
        <pt x="108" y="-186" on="1"/>
        <pt x="42" y="-186" on="0"/>
      </contour>
    </TTGlyph>
    <TTGlyph name="Igrave" xMin="-1" yMin="0" xMax="267" yMax="960">
      <contour>
        <pt x="155" y="0" on="1"/>
        <pt x="99" y="0" on="0"/>
        <pt x="51" y="44" on="0"/>
        <pt x="51" y="85" on="1"/>
        <pt x="51" y="105" on="0"/>
        <pt x="57" y="202" on="0"/>
        <pt x="67" y="326" on="0"/>
        <pt x="77" y="464" on="0"/>
        <pt x="87" y="586" on="0"/>
        <pt x="93" y="678" on="0"/>
        <pt x="93" y="695" on="1"/>
        <pt x="93" y="710" on="0"/>
        <pt x="109" y="710" on="1"/>
        <pt x="164" y="710" on="1"/>
        <pt x="225" y="710" on="0"/>
        <pt x="267" y="658" on="0"/>
        <pt x="267" y="607" on="1"/>
        <pt x="267" y="602" on="0"/>
        <pt x="264" y="548" on="0"/>
        <pt x="258" y="466" on="0"/>
        <pt x="251" y="365" on="0"/>
        <pt x="244" y="259" on="0"/>
        <pt x="237" y="158" on="0"/>
        <pt x="231" y="76" on="0"/>
        <pt x="227" y="21" on="0"/>
        <pt x="226" y="15" on="1"/>
        <pt x="225" y="7" on="0"/>
        <pt x="219" y="0" on="0"/>
        <pt x="210" y="0" on="1"/>
      </contour>
      <contour>
        <pt x="221" y="843" on="1"/>
        <pt x="221" y="835" on="0"/>
        <pt x="214" y="813" on="0"/>
        <pt x="203" y="794" on="0"/>
        <pt x="188" y="780" on="0"/>
        <pt x="180" y="780" on="1"/>
        <pt x="158" y="780" on="0"/>
        <pt x="96" y="798" on="0"/>
        <pt x="39" y="822" on="0"/>
        <pt x="-1" y="848" on="0"/>
        <pt x="-1" y="856" on="1"/>
        <pt x="-1" y="868" on="0"/>
        <pt x="18" y="903" on="0"/>
        <pt x="43" y="936" on="0"/>
        <pt x="70" y="960" on="0"/>
        <pt x="79" y="960" on="1"/>
        <pt x="84" y="960" on="0"/>
        <pt x="109" y="944" on="0"/>
        <pt x="140" y="921" on="0"/>
        <pt x="175" y="892" on="0"/>
        <pt x="203" y="866" on="0"/>
        <pt x="221" y="846" on="0"/>
      </contour>
    </TTGlyph>
    <TTGlyph name="Imacron" xMin="14" yMin="0" xMax="375" yMax="907">
      <contour>
        <pt x="155" y="0" on="1"/>
        <pt x="99" y="0" on="0"/>
        <pt x="51" y="44" on="0"/>
        <pt x="51" y="85" on="1"/>
        <pt x="51" y="105" on="0"/>
        <pt x="57" y="202" on="0"/>
        <pt x="67" y="326" on="0"/>
        <pt x="77" y="464" on="0"/>
        <pt x="87" y="586" on="0"/>
        <pt x="93" y="678" on="0"/>
        <pt x="93" y="695" on="1"/>
        <pt x="93" y="710" on="0"/>
        <pt x="109" y="710" on="1"/>
        <pt x="164" y="710" on="1"/>
        <pt x="225" y="710" on="0"/>
        <pt x="267" y="658" on="0"/>
        <pt x="267" y="607" on="1"/>
        <pt x="267" y="602" on="0"/>
        <pt x="264" y="548" on="0"/>
        <pt x="258" y="466" on="0"/>
        <pt x="251" y="365" on="0"/>
        <pt x="244" y="259" on="0"/>
        <pt x="237" y="158" on="0"/>
        <pt x="231" y="76" on="0"/>
        <pt x="227" y="21" on="0"/>
        <pt x="226" y="15" on="1"/>
        <pt x="225" y="7" on="0"/>
        <pt x="219" y="0" on="0"/>
        <pt x="210" y="0" on="1"/>
      </contour>
      <contour>
        <pt x="25" y="800" on="1"/>
        <pt x="14" y="800" on="0"/>
        <pt x="14" y="811" on="1"/>
        <pt x="14" y="828" on="0"/>
        <pt x="16" y="862" on="0"/>
        <pt x="30" y="890" on="0"/>
        <pt x="60" y="907" on="0"/>
        <pt x="87" y="907" on="1"/>
        <pt x="359" y="907" on="1"/>
        <pt x="365" y="907" on="0"/>
        <pt x="375" y="900" on="0"/>
        <pt x="375" y="893" on="1"/>
        <pt x="375" y="872" on="0"/>
        <pt x="370" y="838" on="0"/>
        <pt x="354" y="814" on="0"/>
        <pt x="323" y="800" on="0"/>
        <pt x="297" y="800" on="1"/>
      </contour>
    </TTGlyph>
    <TTGlyph name="Iogonek" xMin="2" yMin="-195" xMax="267" yMax="710">
      <contour>
        <pt x="165" y="0" on="1"/>
        <pt x="128" y="-40" on="0"/>
        <pt x="128" y="-73" on="1"/>
        <pt x="128" y="-90" on="0"/>
        <pt x="144" y="-112" on="0"/>
        <pt x="164" y="-127" on="0"/>
        <pt x="180" y="-138" on="0"/>
        <pt x="180" y="-144" on="1"/>
        <pt x="180" y="-149" on="0"/>
        <pt x="165" y="-167" on="0"/>
        <pt x="139" y="-183" on="0"/>
        <pt x="103" y="-195" on="0"/>
        <pt x="81" y="-195" on="1"/>
        <pt x="40" y="-195" on="0"/>
        <pt x="2" y="-154" on="0"/>
        <pt x="2" y="-125" on="1"/>
        <pt x="2" y="-93" on="0"/>
        <pt x="46" y="-27" on="0"/>
        <pt x="99" y="8" on="1"/>
        <pt x="73" y="17" on="0"/>
        <pt x="51" y="56" on="0"/>
        <pt x="51" y="85" on="1"/>
        <pt x="51" y="105" on="0"/>
        <pt x="57" y="202" on="0"/>
        <pt x="67" y="326" on="0"/>
        <pt x="77" y="464" on="0"/>
        <pt x="87" y="586" on="0"/>
        <pt x="93" y="678" on="0"/>
        <pt x="93" y="695" on="1"/>
        <pt x="93" y="710" on="0"/>
        <pt x="109" y="710" on="1"/>
        <pt x="164" y="710" on="1"/>
        <pt x="225" y="710" on="0"/>
        <pt x="267" y="658" on="0"/>
        <pt x="267" y="607" on="1"/>
        <pt x="267" y="602" on="0"/>
        <pt x="264" y="548" on="0"/>
        <pt x="258" y="466" on="0"/>
        <pt x="251" y="365" on="0"/>
        <pt x="244" y="259" on="0"/>
        <pt x="237" y="158" on="0"/>
        <pt x="231" y="76" on="0"/>
        <pt x="227" y="21" on="0"/>
        <pt x="226" y="15" on="1"/>
        <pt x="225" y="7" on="0"/>
        <pt x="219" y="0" on="0"/>
        <pt x="210" y="0" on="1"/>
      </contour>
    </TTGlyph>
    <TTGlyph name="Itilde" xMin="-35" yMin="0" xMax="395" yMax="955">
      <contour>
        <pt x="155" y="0" on="1"/>
        <pt x="99" y="0" on="0"/>
        <pt x="51" y="44" on="0"/>
        <pt x="51" y="85" on="1"/>
        <pt x="51" y="105" on="0"/>
        <pt x="57" y="202" on="0"/>
        <pt x="67" y="326" on="0"/>
        <pt x="77" y="464" on="0"/>
        <pt x="87" y="586" on="0"/>
        <pt x="93" y="678" on="0"/>
        <pt x="93" y="695" on="1"/>
        <pt x="93" y="710" on="0"/>
        <pt x="109" y="710" on="1"/>
        <pt x="164" y="710" on="1"/>
        <pt x="225" y="710" on="0"/>
        <pt x="267" y="658" on="0"/>
        <pt x="267" y="607" on="1"/>
        <pt x="267" y="602" on="0"/>
        <pt x="264" y="548" on="0"/>
        <pt x="258" y="466" on="0"/>
        <pt x="251" y="365" on="0"/>
        <pt x="244" y="259" on="0"/>
        <pt x="237" y="158" on="0"/>
        <pt x="231" y="76" on="0"/>
        <pt x="227" y="21" on="0"/>
        <pt x="226" y="15" on="1"/>
        <pt x="225" y="7" on="0"/>
        <pt x="219" y="0" on="0"/>
        <pt x="210" y="0" on="1"/>
      </contour>
      <contour>
        <pt x="268" y="895" on="1"/>
        <pt x="289" y="895" on="0"/>
        <pt x="321" y="914" on="0"/>
        <pt x="346" y="936" on="0"/>
        <pt x="366" y="955" on="0"/>
        <pt x="375" y="955" on="1"/>
        <pt x="380" y="955" on="0"/>
        <pt x="395" y="942" on="0"/>
        <pt x="395" y="916" on="1"/>
        <pt x="395" y="893" on="0"/>
        <pt x="378" y="844" on="0"/>
        <pt x="343" y="805" on="0"/>
        <pt x="289" y="780" on="0"/>
        <pt x="252" y="780" on="1"/>
        <pt x="217" y="780" on="0"/>
        <pt x="171" y="800" on="0"/>
        <pt x="135" y="825" on="0"/>
        <pt x="104" y="845" on="0"/>
        <pt x="83" y="845" on="1"/>
        <pt x="62" y="845" on="0"/>
        <pt x="34" y="825" on="0"/>
        <pt x="12" y="800" on="0"/>
        <pt x="-5" y="780" on="0"/>
        <pt x="-15" y="780" on="1"/>
        <pt x="-20" y="780" on="0"/>
        <pt x="-35" y="794" on="0"/>
        <pt x="-35" y="820" on="1"/>
        <pt x="-35" y="842" on="0"/>
        <pt x="-21" y="889" on="0"/>
        <pt x="11" y="929" on="0"/>
        <pt x="62" y="955" on="0"/>
        <pt x="100" y="955" on="1"/>
        <pt x="133" y="955" on="0"/>
        <pt x="178" y="936" on="0"/>
        <pt x="214" y="914" on="0"/>
        <pt x="247" y="895" on="0"/>
      </contour>
    </TTGlyph>
    <TTGlyph name="J" xMin="-7" yMin="-10" xMax="439" yMax="710">
      <contour>
        <pt x="165" y="146" on="1"/>
        <pt x="187" y="146" on="0"/>
        <pt x="214" y="178" on="0"/>
        <pt x="232" y="232" on="0"/>
        <pt x="243" y="303" on="0"/>
        <pt x="248" y="343" on="1"/>
        <pt x="250" y="361" on="0"/>
        <pt x="254" y="410" on="0"/>
        <pt x="259" y="487" on="0"/>
        <pt x="266" y="602" on="0"/>
        <pt x="271" y="686" on="1"/>
        <pt x="272" y="700" on="0"/>
        <pt x="276" y="710" on="0"/>
        <pt x="287" y="710" on="1"/>
        <pt x="342" y="710" on="1"/>
        <pt x="376" y="710" on="0"/>
        <pt x="415" y="698" on="0"/>
        <pt x="435" y="680" on="0"/>
        <pt x="439" y="659" on="0"/>
        <pt x="439" y="649" on="1"/>
        <pt x="439" y="639" on="0"/>
        <pt x="437" y="567" on="0"/>
        <pt x="433" y="472" on="0"/>
        <pt x="426" y="368" on="0"/>
        <pt x="422" y="326" on="1"/>
        <pt x="416" y="269" on="0"/>
        <pt x="391" y="150" on="0"/>
        <pt x="335" y="52" on="0"/>
        <pt x="242" y="-10" on="0"/>
        <pt x="168" y="-10" on="1"/>
        <pt x="127" y="-10" on="0"/>
        <pt x="62" y="10" on="0"/>
        <pt x="17" y="45" on="0"/>
        <pt x="-7" y="92" on="0"/>
        <pt x="-7" y="118" on="1"/>
        <pt x="-7" y="142" on="0"/>
        <pt x="12" y="181" on="0"/>
        <pt x="44" y="207" on="0"/>
        <pt x="85" y="221" on="0"/>
        <pt x="107" y="221" on="1"/>
        <pt x="113" y="221" on="0"/>
        <pt x="118" y="198" on="0"/>
        <pt x="127" y="169" on="0"/>
        <pt x="145" y="146" on="0"/>
      </contour>
    </TTGlyph>
    <TTGlyph name="Jcircumflex" xMin="-7" yMin="-10" xMax="531" yMax="964">
      <contour>
        <pt x="165" y="146" on="1"/>
        <pt x="187" y="146" on="0"/>
        <pt x="214" y="178" on="0"/>
        <pt x="232" y="232" on="0"/>
        <pt x="243" y="303" on="0"/>
        <pt x="248" y="343" on="1"/>
        <pt x="250" y="361" on="0"/>
        <pt x="254" y="410" on="0"/>
        <pt x="259" y="487" on="0"/>
        <pt x="266" y="602" on="0"/>
        <pt x="271" y="686" on="1"/>
        <pt x="272" y="700" on="0"/>
        <pt x="276" y="710" on="0"/>
        <pt x="287" y="710" on="1"/>
        <pt x="342" y="710" on="1"/>
        <pt x="376" y="710" on="0"/>
        <pt x="415" y="698" on="0"/>
        <pt x="435" y="680" on="0"/>
        <pt x="439" y="659" on="0"/>
        <pt x="439" y="649" on="1"/>
        <pt x="439" y="639" on="0"/>
        <pt x="437" y="567" on="0"/>
        <pt x="433" y="472" on="0"/>
        <pt x="426" y="368" on="0"/>
        <pt x="422" y="326" on="1"/>
        <pt x="416" y="269" on="0"/>
        <pt x="391" y="150" on="0"/>
        <pt x="335" y="52" on="0"/>
        <pt x="242" y="-10" on="0"/>
        <pt x="168" y="-10" on="1"/>
        <pt x="127" y="-10" on="0"/>
        <pt x="62" y="10" on="0"/>
        <pt x="17" y="45" on="0"/>
        <pt x="-7" y="92" on="0"/>
        <pt x="-7" y="118" on="1"/>
        <pt x="-7" y="142" on="0"/>
        <pt x="12" y="181" on="0"/>
        <pt x="44" y="207" on="0"/>
        <pt x="85" y="221" on="0"/>
        <pt x="107" y="221" on="1"/>
        <pt x="113" y="221" on="0"/>
        <pt x="118" y="198" on="0"/>
        <pt x="127" y="169" on="0"/>
        <pt x="145" y="146" on="0"/>
      </contour>
      <contour>
        <pt x="476" y="780" on="1"/>
        <pt x="467" y="780" on="0"/>
        <pt x="441" y="794" on="0"/>
        <pt x="412" y="817" on="0"/>
        <pt x="380" y="846" on="0"/>
        <pt x="365" y="862" on="1"/>
        <pt x="344" y="846" on="0"/>
        <pt x="299" y="817" on="0"/>
        <pt x="260" y="794" on="0"/>
        <pt x="229" y="780" on="0"/>
        <pt x="220" y="780" on="1"/>
        <pt x="213" y="780" on="0"/>
        <pt x="196" y="791" on="0"/>
        <pt x="181" y="806" on="0"/>
        <pt x="170" y="820" on="0"/>
        <pt x="170" y="823" on="1"/>
        <pt x="170" y="826" on="0"/>
        <pt x="195" y="851" on="0"/>
        <pt x="234" y="887" on="0"/>
        <pt x="281" y="929" on="0"/>
        <pt x="302" y="949" on="1"/>
        <pt x="310" y="956" on="0"/>
        <pt x="355" y="964" on="0"/>
        <pt x="378" y="964" on="1"/>
        <pt x="391" y="964" on="0"/>
        <pt x="426" y="958" on="0"/>
        <pt x="431" y="949" on="1"/>
        <pt x="449" y="928" on="0"/>
        <pt x="485" y="885" on="0"/>
        <pt x="513" y="849" on="0"/>
        <pt x="531" y="825" on="0"/>
        <pt x="531" y="823" on="1"/>
        <pt x="531" y="821" on="0"/>
        <pt x="519" y="807" on="0"/>
        <pt x="502" y="792" on="0"/>
        <pt x="483" y="780" on="0"/>
      </contour>
    </TTGlyph>
    <TTGlyph name="K" xMin="51" yMin="-10" xMax="599" yMax="720">
      <contour>
        <pt x="598" y="65" on="1"/>
        <pt x="598" y="57" on="0"/>
        <pt x="579" y="32" on="0"/>
        <pt x="546" y="8" on="0"/>
        <pt x="503" y="-10" on="0"/>
        <pt x="479" y="-10" on="1"/>
        <pt x="442" y="-10" on="0"/>
        <pt x="386" y="37" on="0"/>
        <pt x="341" y="119" on="0"/>
        <pt x="303" y="232" on="0"/>
        <pt x="283" y="298" on="1"/>
        <pt x="245" y="273" on="1"/>
        <pt x="226" y="15" on="1"/>
        <pt x="225" y="7" on="0"/>
        <pt x="219" y="0" on="0"/>
        <pt x="210" y="0" on="1"/>
        <pt x="155" y="0" on="1"/>
        <pt x="98" y="0" on="0"/>
        <pt x="51" y="45" on="0"/>
        <pt x="51" y="89" on="1"/>
        <pt x="51" y="103" on="0"/>
        <pt x="54" y="160" on="0"/>
        <pt x="60" y="237" on="0"/>
        <pt x="67" y="329" on="0"/>
        <pt x="71" y="377" on="1"/>
        <pt x="78" y="473" on="0"/>
        <pt x="87" y="585" on="0"/>
        <pt x="91" y="650" on="0"/>
        <pt x="93" y="681" on="0"/>
        <pt x="93" y="695" on="1"/>
        <pt x="93" y="710" on="0"/>
        <pt x="109" y="710" on="1"/>
        <pt x="164" y="710" on="1"/>
        <pt x="196" y="710" on="0"/>
        <pt x="235" y="697" on="0"/>
        <pt x="257" y="673" on="0"/>
        <pt x="265" y="638" on="0"/>
        <pt x="265" y="615" on="1"/>
        <pt x="265" y="592" on="0"/>
        <pt x="260" y="489" on="0"/>
        <pt x="255" y="425" on="1"/>
        <pt x="289" y="467" on="0"/>
        <pt x="384" y="591" on="0"/>
        <pt x="452" y="682" on="1"/>
        <pt x="455" y="686" on="0"/>
        <pt x="466" y="699" on="0"/>
        <pt x="479" y="711" on="0"/>
        <pt x="494" y="720" on="0"/>
        <pt x="501" y="720" on="1"/>
        <pt x="514" y="720" on="0"/>
        <pt x="548" y="693" on="0"/>
        <pt x="578" y="654" on="0"/>
        <pt x="599" y="613" on="0"/>
        <pt x="599" y="599" on="1"/>
        <pt x="599" y="570" on="0"/>
        <pt x="495" y="455" on="0"/>
        <pt x="398" y="380" on="1"/>
        <pt x="415" y="351" on="0"/>
        <pt x="459" y="284" on="0"/>
        <pt x="503" y="215" on="0"/>
        <pt x="545" y="150" on="0"/>
        <pt x="578" y="99" on="0"/>
        <pt x="598" y="67" on="0"/>
      </contour>
    </TTGlyph>
    <TTGlyph name="Kcommaaccent" xMin="51" yMin="-200" xMax="599" yMax="720">
      <contour>
        <pt x="598" y="65" on="1"/>
        <pt x="598" y="57" on="0"/>
        <pt x="579" y="32" on="0"/>
        <pt x="546" y="8" on="0"/>
        <pt x="503" y="-10" on="0"/>
        <pt x="479" y="-10" on="1"/>
        <pt x="442" y="-10" on="0"/>
        <pt x="386" y="37" on="0"/>
        <pt x="341" y="119" on="0"/>
        <pt x="303" y="232" on="0"/>
        <pt x="283" y="298" on="1"/>
        <pt x="245" y="273" on="1"/>
        <pt x="226" y="15" on="1"/>
        <pt x="225" y="7" on="0"/>
        <pt x="219" y="0" on="0"/>
        <pt x="210" y="0" on="1"/>
        <pt x="155" y="0" on="1"/>
        <pt x="98" y="0" on="0"/>
        <pt x="51" y="45" on="0"/>
        <pt x="51" y="89" on="1"/>
        <pt x="51" y="103" on="0"/>
        <pt x="54" y="160" on="0"/>
        <pt x="60" y="237" on="0"/>
        <pt x="67" y="329" on="0"/>
        <pt x="71" y="377" on="1"/>
        <pt x="78" y="473" on="0"/>
        <pt x="87" y="585" on="0"/>
        <pt x="91" y="650" on="0"/>
        <pt x="93" y="681" on="0"/>
        <pt x="93" y="695" on="1"/>
        <pt x="93" y="710" on="0"/>
        <pt x="109" y="710" on="1"/>
        <pt x="164" y="710" on="1"/>
        <pt x="196" y="710" on="0"/>
        <pt x="235" y="697" on="0"/>
        <pt x="257" y="673" on="0"/>
        <pt x="265" y="638" on="0"/>
        <pt x="265" y="615" on="1"/>
        <pt x="265" y="592" on="0"/>
        <pt x="260" y="489" on="0"/>
        <pt x="255" y="425" on="1"/>
        <pt x="289" y="467" on="0"/>
        <pt x="384" y="591" on="0"/>
        <pt x="452" y="682" on="1"/>
        <pt x="455" y="686" on="0"/>
        <pt x="466" y="699" on="0"/>
        <pt x="479" y="711" on="0"/>
        <pt x="494" y="720" on="0"/>
        <pt x="501" y="720" on="1"/>
        <pt x="514" y="720" on="0"/>
        <pt x="548" y="693" on="0"/>
        <pt x="578" y="654" on="0"/>
        <pt x="599" y="613" on="0"/>
        <pt x="599" y="599" on="1"/>
        <pt x="599" y="570" on="0"/>
        <pt x="495" y="455" on="0"/>
        <pt x="398" y="380" on="1"/>
        <pt x="415" y="351" on="0"/>
        <pt x="459" y="284" on="0"/>
        <pt x="503" y="215" on="0"/>
        <pt x="545" y="150" on="0"/>
        <pt x="578" y="99" on="0"/>
        <pt x="598" y="67" on="0"/>
      </contour>
      <contour>
        <pt x="282" y="-131" on="1"/>
        <pt x="259" y="-131" on="0"/>
        <pt x="242" y="-109" on="0"/>
        <pt x="242" y="-92" on="1"/>
        <pt x="242" y="-66" on="0"/>
        <pt x="273" y="-40" on="0"/>
        <pt x="301" y="-40" on="1"/>
        <pt x="333" y="-40" on="0"/>
        <pt x="354" y="-73" on="0"/>
        <pt x="354" y="-96" on="1"/>
        <pt x="354" y="-116" on="0"/>
        <pt x="343" y="-154" on="0"/>
        <pt x="324" y="-183" on="0"/>
        <pt x="296" y="-200" on="0"/>
        <pt x="280" y="-200" on="1"/>
        <pt x="260" y="-200" on="0"/>
        <pt x="250" y="-180" on="0"/>
        <pt x="250" y="-168" on="1"/>
        <pt x="250" y="-167" on="0"/>
        <pt x="260" y="-159" on="0"/>
        <pt x="272" y="-149" on="0"/>
        <pt x="282" y="-137" on="0"/>
      </contour>
    </TTGlyph>
    <TTGlyph name="L" xMin="51" yMin="0" xMax="425" yMax="710">
      <contour>
        <pt x="155" y="0" on="1"/>
        <pt x="99" y="0" on="0"/>
        <pt x="51" y="44" on="0"/>
        <pt x="51" y="85" on="1"/>
        <pt x="51" y="105" on="0"/>
        <pt x="57" y="202" on="0"/>
        <pt x="67" y="326" on="0"/>
        <pt x="77" y="464" on="0"/>
        <pt x="87" y="586" on="0"/>
        <pt x="93" y="678" on="0"/>
        <pt x="93" y="695" on="1"/>
        <pt x="93" y="710" on="0"/>
        <pt x="109" y="710" on="1"/>
        <pt x="164" y="710" on="1"/>
        <pt x="220" y="710" on="0"/>
        <pt x="263" y="667" on="0"/>
        <pt x="263" y="625" on="1"/>
        <pt x="263" y="620" on="0"/>
        <pt x="262" y="612" on="0"/>
        <pt x="262" y="607" on="1"/>
        <pt x="229" y="140" on="1"/>
        <pt x="409" y="140" on="1"/>
        <pt x="415" y="140" on="0"/>
        <pt x="425" y="133" on="0"/>
        <pt x="425" y="126" on="1"/>
        <pt x="421" y="67" on="1"/>
        <pt x="419" y="37" on="0"/>
        <pt x="390" y="0" on="0"/>
        <pt x="345" y="0" on="1"/>
      </contour>
    </TTGlyph>
    <TTGlyph name="Lacute" xMin="51" yMin="0" xMax="425" yMax="964">
      <contour>
        <pt x="155" y="0" on="1"/>
        <pt x="99" y="0" on="0"/>
        <pt x="51" y="44" on="0"/>
        <pt x="51" y="85" on="1"/>
        <pt x="51" y="105" on="0"/>
        <pt x="57" y="202" on="0"/>
        <pt x="67" y="326" on="0"/>
        <pt x="77" y="464" on="0"/>
        <pt x="87" y="586" on="0"/>
        <pt x="93" y="678" on="0"/>
        <pt x="93" y="695" on="1"/>
        <pt x="93" y="710" on="0"/>
        <pt x="109" y="710" on="1"/>
        <pt x="164" y="710" on="1"/>
        <pt x="220" y="710" on="0"/>
        <pt x="263" y="667" on="0"/>
        <pt x="263" y="625" on="1"/>
        <pt x="263" y="620" on="0"/>
        <pt x="262" y="612" on="0"/>
        <pt x="262" y="607" on="1"/>
        <pt x="229" y="140" on="1"/>
        <pt x="409" y="140" on="1"/>
        <pt x="415" y="140" on="0"/>
        <pt x="425" y="133" on="0"/>
        <pt x="425" y="126" on="1"/>
        <pt x="421" y="67" on="1"/>
        <pt x="419" y="37" on="0"/>
        <pt x="390" y="0" on="0"/>
        <pt x="345" y="0" on="1"/>
      </contour>
      <contour>
        <pt x="179" y="780" on="1"/>
        <pt x="168" y="780" on="0"/>
        <pt x="151" y="795" on="0"/>
        <pt x="139" y="815" on="0"/>
        <pt x="133" y="832" on="0"/>
        <pt x="133" y="835" on="1"/>
        <pt x="133" y="842" on="0"/>
        <pt x="173" y="884" on="0"/>
        <pt x="227" y="929" on="0"/>
        <pt x="280" y="964" on="0"/>
        <pt x="293" y="964" on="1"/>
        <pt x="302" y="964" on="0"/>
        <pt x="336" y="943" on="0"/>
        <pt x="368" y="916" on="0"/>
        <pt x="392" y="887" on="0"/>
        <pt x="392" y="880" on="1"/>
        <pt x="392" y="872" on="0"/>
        <pt x="365" y="851" on="0"/>
        <pt x="324" y="829" on="0"/>
        <pt x="274" y="807" on="0"/>
        <pt x="227" y="790" on="0"/>
        <pt x="188" y="780" on="0"/>
      </contour>
    </TTGlyph>
    <TTGlyph name="Lcaron" xMin="22" yMin="0" xMax="425" yMax="964">
      <contour>
        <pt x="155" y="0" on="1"/>
        <pt x="99" y="0" on="0"/>
        <pt x="51" y="44" on="0"/>
        <pt x="51" y="85" on="1"/>
        <pt x="51" y="105" on="0"/>
        <pt x="57" y="202" on="0"/>
        <pt x="67" y="326" on="0"/>
        <pt x="77" y="464" on="0"/>
        <pt x="87" y="586" on="0"/>
        <pt x="93" y="678" on="0"/>
        <pt x="93" y="695" on="1"/>
        <pt x="93" y="710" on="0"/>
        <pt x="109" y="710" on="1"/>
        <pt x="164" y="710" on="1"/>
        <pt x="220" y="710" on="0"/>
        <pt x="263" y="667" on="0"/>
        <pt x="263" y="625" on="1"/>
        <pt x="263" y="620" on="0"/>
        <pt x="262" y="612" on="0"/>
        <pt x="262" y="607" on="1"/>
        <pt x="229" y="140" on="1"/>
        <pt x="409" y="140" on="1"/>
        <pt x="415" y="140" on="0"/>
        <pt x="425" y="133" on="0"/>
        <pt x="425" y="126" on="1"/>
        <pt x="421" y="67" on="1"/>
        <pt x="419" y="37" on="0"/>
        <pt x="390" y="0" on="0"/>
        <pt x="345" y="0" on="1"/>
      </contour>
      <contour>
        <pt x="77" y="964" on="1"/>
        <pt x="86" y="964" on="0"/>
        <pt x="112" y="950" on="0"/>
        <pt x="141" y="927" on="0"/>
        <pt x="173" y="898" on="0"/>
        <pt x="188" y="882" on="1"/>
        <pt x="209" y="898" on="0"/>
        <pt x="254" y="927" on="0"/>
        <pt x="293" y="950" on="0"/>
        <pt x="324" y="964" on="0"/>
        <pt x="333" y="964" on="1"/>
        <pt x="340" y="964" on="0"/>
        <pt x="357" y="953" on="0"/>
        <pt x="372" y="938" on="0"/>
        <pt x="383" y="924" on="0"/>
        <pt x="383" y="921" on="1"/>
        <pt x="383" y="918" on="0"/>
        <pt x="357" y="893" on="0"/>
        <pt x="318" y="856" on="0"/>
        <pt x="272" y="814" on="0"/>
        <pt x="251" y="795" on="1"/>
        <pt x="243" y="788" on="0"/>
        <pt x="197" y="780" on="0"/>
        <pt x="175" y="780" on="1"/>
        <pt x="162" y="780" on="0"/>
        <pt x="127" y="786" on="0"/>
        <pt x="122" y="795" on="1"/>
        <pt x="104" y="816" on="0"/>
        <pt x="68" y="859" on="0"/>
        <pt x="40" y="895" on="0"/>
        <pt x="22" y="919" on="0"/>
        <pt x="22" y="921" on="1"/>
        <pt x="22" y="923" on="0"/>
        <pt x="34" y="937" on="0"/>
        <pt x="51" y="952" on="0"/>
        <pt x="70" y="964" on="0"/>
      </contour>
    </TTGlyph>
    <TTGlyph name="Lcommaaccent" xMin="51" yMin="-200" xMax="425" yMax="710">
      <contour>
        <pt x="155" y="0" on="1"/>
        <pt x="99" y="0" on="0"/>
        <pt x="51" y="44" on="0"/>
        <pt x="51" y="85" on="1"/>
        <pt x="51" y="105" on="0"/>
        <pt x="57" y="202" on="0"/>
        <pt x="67" y="326" on="0"/>
        <pt x="77" y="464" on="0"/>
        <pt x="87" y="586" on="0"/>
        <pt x="93" y="678" on="0"/>
        <pt x="93" y="695" on="1"/>
        <pt x="93" y="710" on="0"/>
        <pt x="109" y="710" on="1"/>
        <pt x="164" y="710" on="1"/>
        <pt x="220" y="710" on="0"/>
        <pt x="263" y="667" on="0"/>
        <pt x="263" y="625" on="1"/>
        <pt x="263" y="620" on="0"/>
        <pt x="262" y="612" on="0"/>
        <pt x="262" y="607" on="1"/>
        <pt x="229" y="140" on="1"/>
        <pt x="409" y="140" on="1"/>
        <pt x="415" y="140" on="0"/>
        <pt x="425" y="133" on="0"/>
        <pt x="425" y="126" on="1"/>
        <pt x="421" y="67" on="1"/>
        <pt x="419" y="37" on="0"/>
        <pt x="390" y="0" on="0"/>
        <pt x="345" y="0" on="1"/>
      </contour>
      <contour>
        <pt x="215" y="-131" on="1"/>
        <pt x="192" y="-131" on="0"/>
        <pt x="175" y="-109" on="0"/>
        <pt x="175" y="-92" on="1"/>
        <pt x="175" y="-66" on="0"/>
        <pt x="206" y="-40" on="0"/>
        <pt x="234" y="-40" on="1"/>
        <pt x="266" y="-40" on="0"/>
        <pt x="287" y="-73" on="0"/>
        <pt x="287" y="-96" on="1"/>
        <pt x="287" y="-116" on="0"/>
        <pt x="276" y="-154" on="0"/>
        <pt x="257" y="-183" on="0"/>
        <pt x="229" y="-200" on="0"/>
        <pt x="213" y="-200" on="1"/>
        <pt x="193" y="-200" on="0"/>
        <pt x="183" y="-180" on="0"/>
        <pt x="183" y="-168" on="1"/>
        <pt x="183" y="-167" on="0"/>
        <pt x="193" y="-159" on="0"/>
        <pt x="205" y="-149" on="0"/>
        <pt x="215" y="-137" on="0"/>
      </contour>
    </TTGlyph>
    <TTGlyph name="Ldot" xMin="51" yMin="0" xMax="433" yMax="710">
      <contour>
        <pt x="155" y="0" on="1"/>
        <pt x="99" y="0" on="0"/>
        <pt x="51" y="44" on="0"/>
        <pt x="51" y="85" on="1"/>
        <pt x="51" y="105" on="0"/>
        <pt x="57" y="202" on="0"/>
        <pt x="67" y="326" on="0"/>
        <pt x="77" y="464" on="0"/>
        <pt x="87" y="586" on="0"/>
        <pt x="93" y="678" on="0"/>
        <pt x="93" y="695" on="1"/>
        <pt x="93" y="710" on="0"/>
        <pt x="109" y="710" on="1"/>
        <pt x="164" y="710" on="1"/>
        <pt x="220" y="710" on="0"/>
        <pt x="263" y="667" on="0"/>
        <pt x="263" y="625" on="1"/>
        <pt x="263" y="620" on="0"/>
        <pt x="262" y="612" on="0"/>
        <pt x="262" y="607" on="1"/>
        <pt x="229" y="140" on="1"/>
        <pt x="409" y="140" on="1"/>
        <pt x="415" y="140" on="0"/>
        <pt x="425" y="133" on="0"/>
        <pt x="425" y="126" on="1"/>
        <pt x="421" y="67" on="1"/>
        <pt x="419" y="37" on="0"/>
        <pt x="390" y="0" on="0"/>
        <pt x="345" y="0" on="1"/>
      </contour>
      <contour>
        <pt x="276" y="374" on="1"/>
        <pt x="276" y="409" on="0"/>
        <pt x="324" y="450" on="0"/>
        <pt x="366" y="450" on="1"/>
        <pt x="401" y="450" on="0"/>
        <pt x="433" y="419" on="0"/>
        <pt x="433" y="393" on="1"/>
        <pt x="433" y="361" on="0"/>
        <pt x="387" y="318" on="0"/>
        <pt x="342" y="318" on="1"/>
        <pt x="276" y="318" on="0"/>
      </contour>
    </TTGlyph>
    <TTGlyph name="Lslash" xMin="-8" yMin="0" xMax="442" yMax="710">
      <contour>
        <pt x="172" y="0" on="1"/>
        <pt x="116" y="0" on="0"/>
        <pt x="68" y="44" on="0"/>
        <pt x="68" y="85" on="1"/>
        <pt x="68" y="105" on="0"/>
        <pt x="74" y="205" on="0"/>
        <pt x="79" y="269" on="1"/>
        <pt x="46" y="258" on="0"/>
        <pt x="23" y="250" on="0"/>
        <pt x="22" y="250" on="1"/>
        <pt x="19" y="250" on="0"/>
        <pt x="9" y="266" on="0"/>
        <pt x="-1" y="291" on="0"/>
        <pt x="-8" y="325" on="0"/>
        <pt x="-8" y="343" on="1"/>
        <pt x="-8" y="360" on="0"/>
        <pt x="13" y="389" on="0"/>
        <pt x="43" y="400" on="1"/>
        <pt x="55" y="405" on="0"/>
        <pt x="79" y="412" on="0"/>
        <pt x="91" y="416" on="1"/>
        <pt x="95" y="463" on="0"/>
        <pt x="102" y="553" on="0"/>
        <pt x="107" y="628" on="0"/>
        <pt x="110" y="683" on="0"/>
        <pt x="110" y="695" on="1"/>
        <pt x="110" y="710" on="0"/>
        <pt x="126" y="710" on="1"/>
        <pt x="181" y="710" on="1"/>
        <pt x="237" y="710" on="0"/>
        <pt x="280" y="667" on="0"/>
        <pt x="280" y="625" on="1"/>
        <pt x="280" y="620" on="0"/>
        <pt x="279" y="612" on="0"/>
        <pt x="279" y="607" on="1"/>
        <pt x="270" y="480" on="1"/>
        <pt x="309" y="494" on="0"/>
        <pt x="352" y="508" on="0"/>
        <pt x="357" y="508" on="1"/>
        <pt x="367" y="508" on="0"/>
        <pt x="370" y="500" on="1"/>
        <pt x="376" y="479" on="0"/>
        <pt x="384" y="451" on="0"/>
        <pt x="387" y="433" on="0"/>
        <pt x="388" y="423" on="0"/>
        <pt x="388" y="420" on="1"/>
        <pt x="388" y="400" on="0"/>
        <pt x="366" y="370" on="0"/>
        <pt x="334" y="359" on="1"/>
        <pt x="259" y="333" on="1"/>
        <pt x="246" y="140" on="1"/>
        <pt x="426" y="140" on="1"/>
        <pt x="432" y="140" on="0"/>
        <pt x="442" y="133" on="0"/>
        <pt x="442" y="126" on="1"/>
        <pt x="438" y="67" on="1"/>
        <pt x="436" y="37" on="0"/>
        <pt x="407" y="0" on="0"/>
        <pt x="362" y="0" on="1"/>
      </contour>
    </TTGlyph>
    <TTGlyph name="M" xMin="51" yMin="0" xMax="859" yMax="710">
      <contour>
        <pt x="685" y="533" on="1"/>
        <pt x="677" y="509" on="0"/>
        <pt x="652" y="432" on="0"/>
        <pt x="622" y="340" on="0"/>
        <pt x="590" y="237" on="0"/>
        <pt x="557" y="139" on="0"/>
        <pt x="525" y="50" on="0"/>
        <pt x="512" y="17" on="1"/>
        <pt x="508" y="9" on="0"/>
        <pt x="483" y="0" on="0"/>
        <pt x="456" y="0" on="1"/>
        <pt x="439" y="0" on="0"/>
        <pt x="403" y="4" on="0"/>
        <pt x="372" y="16" on="0"/>
        <pt x="349" y="36" on="0"/>
        <pt x="343" y="51" on="1"/>
        <pt x="328" y="102" on="0"/>
        <pt x="301" y="227" on="0"/>
        <pt x="275" y="357" on="0"/>
        <pt x="250" y="482" on="0"/>
        <pt x="237" y="533" on="1"/>
        <pt x="237" y="519" on="0"/>
        <pt x="235" y="451" on="0"/>
        <pt x="233" y="361" on="0"/>
        <pt x="230" y="257" on="0"/>
        <pt x="228" y="158" on="0"/>
        <pt x="226" y="73" on="0"/>
        <pt x="226" y="46" on="1"/>
        <pt x="226" y="16" on="0"/>
        <pt x="219" y="0" on="0"/>
        <pt x="210" y="0" on="1"/>
        <pt x="155" y="0" on="1"/>
        <pt x="98" y="0" on="0"/>
        <pt x="51" y="45" on="0"/>
        <pt x="51" y="89" on="1"/>
        <pt x="51" y="101" on="0"/>
        <pt x="54" y="158" on="0"/>
        <pt x="60" y="236" on="0"/>
        <pt x="67" y="329" on="0"/>
        <pt x="71" y="377" on="1"/>
        <pt x="76" y="442" on="0"/>
        <pt x="83" y="529" on="0"/>
        <pt x="87" y="587" on="0"/>
        <pt x="90" y="623" on="0"/>
        <pt x="91" y="651" on="0"/>
        <pt x="92" y="676" on="0"/>
        <pt x="92" y="695" on="1"/>
        <pt x="92" y="703" on="0"/>
        <pt x="104" y="710" on="0"/>
        <pt x="109" y="710" on="1"/>
        <pt x="249" y="710" on="1"/>
        <pt x="288" y="710" on="0"/>
        <pt x="338" y="685" on="0"/>
        <pt x="370" y="633" on="0"/>
        <pt x="390" y="550" on="0"/>
        <pt x="407" y="436" on="0"/>
        <pt x="428" y="287" on="0"/>
        <pt x="445" y="194" on="1"/>
        <pt x="461" y="256" on="0"/>
        <pt x="483" y="338" on="0"/>
        <pt x="498" y="393" on="0"/>
        <pt x="508" y="429" on="0"/>
        <pt x="516" y="460" on="0"/>
        <pt x="526" y="496" on="0"/>
        <pt x="540" y="550" on="0"/>
        <pt x="561" y="631" on="0"/>
        <pt x="577" y="693" on="1"/>
        <pt x="579" y="699" on="0"/>
        <pt x="589" y="710" on="0"/>
        <pt x="602" y="710" on="1"/>
        <pt x="758" y="710" on="1"/>
        <pt x="790" y="710" on="0"/>
        <pt x="829" y="697" on="0"/>
        <pt x="851" y="673" on="0"/>
        <pt x="859" y="638" on="0"/>
        <pt x="859" y="615" on="1"/>
        <pt x="859" y="592" on="0"/>
        <pt x="854" y="489" on="0"/>
        <pt x="845" y="360" on="0"/>
        <pt x="836" y="222" on="0"/>
        <pt x="827" y="104" on="0"/>
        <pt x="821" y="22" on="0"/>
        <pt x="820" y="15" on="1"/>
        <pt x="819" y="7" on="0"/>
        <pt x="813" y="0" on="0"/>
        <pt x="804" y="0" on="1"/>
        <pt x="749" y="0" on="1"/>
        <pt x="692" y="0" on="0"/>
        <pt x="645" y="45" on="0"/>
        <pt x="645" y="81" on="1"/>
        <pt x="645" y="92" on="0"/>
        <pt x="650" y="150" on="0"/>
        <pt x="658" y="228" on="0"/>
        <pt x="668" y="321" on="0"/>
        <pt x="676" y="413" on="0"/>
        <pt x="683" y="500" on="0"/>
      </contour>
    </TTGlyph>
    <TTGlyph name="N" xMin="51" yMin="0" xMax="640" yMax="710">
      <contour>
        <pt x="499" y="0" on="1"/>
        <pt x="458" y="0" on="0"/>
        <pt x="418" y="24" on="0"/>
        <pt x="409" y="42" on="1"/>
        <pt x="357" y="149" on="0"/>
        <pt x="266" y="345" on="0"/>
        <pt x="219" y="445" on="1"/>
        <pt x="220" y="337" on="0"/>
        <pt x="224" y="123" on="0"/>
        <pt x="226" y="15" on="1"/>
        <pt x="226" y="0" on="0"/>
        <pt x="210" y="0" on="1"/>
        <pt x="155" y="0" on="1"/>
        <pt x="98" y="0" on="0"/>
        <pt x="51" y="45" on="0"/>
        <pt x="51" y="89" on="1"/>
        <pt x="51" y="101" on="0"/>
        <pt x="54" y="158" on="0"/>
        <pt x="60" y="236" on="0"/>
        <pt x="67" y="329" on="0"/>
        <pt x="71" y="377" on="1"/>
        <pt x="77" y="453" on="0"/>
        <pt x="85" y="553" on="0"/>
        <pt x="90" y="622" on="0"/>
        <pt x="92" y="671" on="0"/>
        <pt x="93" y="695" on="1"/>
        <pt x="93" y="710" on="0"/>
        <pt x="109" y="710" on="1"/>
        <pt x="189" y="710" on="1"/>
        <pt x="222" y="710" on="0"/>
        <pt x="264" y="695" on="0"/>
        <pt x="291" y="669" on="0"/>
        <pt x="307" y="636" on="0"/>
        <pt x="314" y="618" on="1"/>
        <pt x="338" y="556" on="0"/>
        <pt x="375" y="466" on="0"/>
        <pt x="403" y="398" on="0"/>
        <pt x="424" y="348" on="0"/>
        <pt x="442" y="306" on="0"/>
        <pt x="460" y="267" on="0"/>
        <pt x="470" y="244" on="1"/>
        <pt x="470" y="303" on="0"/>
        <pt x="469" y="428" on="0"/>
        <pt x="468" y="547" on="0"/>
        <pt x="467" y="657" on="0"/>
        <pt x="467" y="701" on="1"/>
        <pt x="467" y="710" on="0"/>
        <pt x="484" y="710" on="1"/>
        <pt x="539" y="710" on="1"/>
        <pt x="572" y="710" on="0"/>
        <pt x="611" y="697" on="0"/>
        <pt x="633" y="672" on="0"/>
        <pt x="640" y="636" on="0"/>
        <pt x="640" y="613" on="1"/>
        <pt x="640" y="588" on="0"/>
        <pt x="634" y="485" on="0"/>
        <pt x="626" y="357" on="0"/>
        <pt x="616" y="220" on="0"/>
        <pt x="607" y="104" on="0"/>
        <pt x="600" y="23" on="0"/>
        <pt x="599" y="16" on="1"/>
        <pt x="599" y="8" on="0"/>
        <pt x="588" y="0" on="0"/>
        <pt x="581" y="0" on="1"/>
      </contour>
    </TTGlyph>
    <TTGlyph name="Nacute" xMin="51" yMin="0" xMax="640" yMax="964">
      <contour>
        <pt x="499" y="0" on="1"/>
        <pt x="458" y="0" on="0"/>
        <pt x="418" y="24" on="0"/>
        <pt x="409" y="42" on="1"/>
        <pt x="357" y="149" on="0"/>
        <pt x="266" y="345" on="0"/>
        <pt x="219" y="445" on="1"/>
        <pt x="220" y="337" on="0"/>
        <pt x="224" y="123" on="0"/>
        <pt x="226" y="15" on="1"/>
        <pt x="226" y="0" on="0"/>
        <pt x="210" y="0" on="1"/>
        <pt x="155" y="0" on="1"/>
        <pt x="98" y="0" on="0"/>
        <pt x="51" y="45" on="0"/>
        <pt x="51" y="89" on="1"/>
        <pt x="51" y="101" on="0"/>
        <pt x="54" y="158" on="0"/>
        <pt x="60" y="236" on="0"/>
        <pt x="67" y="329" on="0"/>
        <pt x="71" y="377" on="1"/>
        <pt x="77" y="453" on="0"/>
        <pt x="85" y="553" on="0"/>
        <pt x="90" y="622" on="0"/>
        <pt x="92" y="671" on="0"/>
        <pt x="93" y="695" on="1"/>
        <pt x="93" y="710" on="0"/>
        <pt x="109" y="710" on="1"/>
        <pt x="189" y="710" on="1"/>
        <pt x="222" y="710" on="0"/>
        <pt x="264" y="695" on="0"/>
        <pt x="291" y="669" on="0"/>
        <pt x="307" y="636" on="0"/>
        <pt x="314" y="618" on="1"/>
        <pt x="338" y="556" on="0"/>
        <pt x="375" y="466" on="0"/>
        <pt x="403" y="398" on="0"/>
        <pt x="424" y="348" on="0"/>
        <pt x="442" y="306" on="0"/>
        <pt x="460" y="267" on="0"/>
        <pt x="470" y="244" on="1"/>
        <pt x="470" y="303" on="0"/>
        <pt x="469" y="428" on="0"/>
        <pt x="468" y="547" on="0"/>
        <pt x="467" y="657" on="0"/>
        <pt x="467" y="701" on="1"/>
        <pt x="467" y="710" on="0"/>
        <pt x="484" y="710" on="1"/>
        <pt x="539" y="710" on="1"/>
        <pt x="572" y="710" on="0"/>
        <pt x="611" y="697" on="0"/>
        <pt x="633" y="672" on="0"/>
        <pt x="640" y="636" on="0"/>
        <pt x="640" y="613" on="1"/>
        <pt x="640" y="588" on="0"/>
        <pt x="634" y="485" on="0"/>
        <pt x="626" y="357" on="0"/>
        <pt x="616" y="220" on="0"/>
        <pt x="607" y="104" on="0"/>
        <pt x="600" y="23" on="0"/>
        <pt x="599" y="16" on="1"/>
        <pt x="599" y="8" on="0"/>
        <pt x="588" y="0" on="0"/>
        <pt x="581" y="0" on="1"/>
      </contour>
      <contour>
        <pt x="391" y="780" on="1"/>
        <pt x="380" y="780" on="0"/>
        <pt x="363" y="795" on="0"/>
        <pt x="351" y="815" on="0"/>
        <pt x="345" y="832" on="0"/>
        <pt x="345" y="835" on="1"/>
        <pt x="345" y="842" on="0"/>
        <pt x="385" y="884" on="0"/>
        <pt x="439" y="929" on="0"/>
        <pt x="492" y="964" on="0"/>
        <pt x="505" y="964" on="1"/>
        <pt x="514" y="964" on="0"/>
        <pt x="548" y="943" on="0"/>
        <pt x="580" y="916" on="0"/>
        <pt x="604" y="887" on="0"/>
        <pt x="604" y="880" on="1"/>
        <pt x="604" y="872" on="0"/>
        <pt x="577" y="851" on="0"/>
        <pt x="536" y="829" on="0"/>
        <pt x="486" y="807" on="0"/>
        <pt x="439" y="790" on="0"/>
        <pt x="400" y="780" on="0"/>
      </contour>
    </TTGlyph>
    <TTGlyph name="Ncaron" xMin="51" yMin="0" xMax="640" yMax="964">
      <contour>
        <pt x="499" y="0" on="1"/>
        <pt x="458" y="0" on="0"/>
        <pt x="418" y="24" on="0"/>
        <pt x="409" y="42" on="1"/>
        <pt x="357" y="149" on="0"/>
        <pt x="266" y="345" on="0"/>
        <pt x="219" y="445" on="1"/>
        <pt x="220" y="337" on="0"/>
        <pt x="224" y="123" on="0"/>
        <pt x="226" y="15" on="1"/>
        <pt x="226" y="0" on="0"/>
        <pt x="210" y="0" on="1"/>
        <pt x="155" y="0" on="1"/>
        <pt x="98" y="0" on="0"/>
        <pt x="51" y="45" on="0"/>
        <pt x="51" y="89" on="1"/>
        <pt x="51" y="101" on="0"/>
        <pt x="54" y="158" on="0"/>
        <pt x="60" y="236" on="0"/>
        <pt x="67" y="329" on="0"/>
        <pt x="71" y="377" on="1"/>
        <pt x="77" y="453" on="0"/>
        <pt x="85" y="553" on="0"/>
        <pt x="90" y="622" on="0"/>
        <pt x="92" y="671" on="0"/>
        <pt x="93" y="695" on="1"/>
        <pt x="93" y="710" on="0"/>
        <pt x="109" y="710" on="1"/>
        <pt x="189" y="710" on="1"/>
        <pt x="222" y="710" on="0"/>
        <pt x="264" y="695" on="0"/>
        <pt x="291" y="669" on="0"/>
        <pt x="307" y="636" on="0"/>
        <pt x="314" y="618" on="1"/>
        <pt x="338" y="556" on="0"/>
        <pt x="375" y="466" on="0"/>
        <pt x="403" y="398" on="0"/>
        <pt x="424" y="348" on="0"/>
        <pt x="442" y="306" on="0"/>
        <pt x="460" y="267" on="0"/>
        <pt x="470" y="244" on="1"/>
        <pt x="470" y="303" on="0"/>
        <pt x="469" y="428" on="0"/>
        <pt x="468" y="547" on="0"/>
        <pt x="467" y="657" on="0"/>
        <pt x="467" y="701" on="1"/>
        <pt x="467" y="710" on="0"/>
        <pt x="484" y="710" on="1"/>
        <pt x="539" y="710" on="1"/>
        <pt x="572" y="710" on="0"/>
        <pt x="611" y="697" on="0"/>
        <pt x="633" y="672" on="0"/>
        <pt x="640" y="636" on="0"/>
        <pt x="640" y="613" on="1"/>
        <pt x="640" y="588" on="0"/>
        <pt x="634" y="485" on="0"/>
        <pt x="626" y="357" on="0"/>
        <pt x="616" y="220" on="0"/>
        <pt x="607" y="104" on="0"/>
        <pt x="600" y="23" on="0"/>
        <pt x="599" y="16" on="1"/>
        <pt x="599" y="8" on="0"/>
        <pt x="588" y="0" on="0"/>
        <pt x="581" y="0" on="1"/>
      </contour>
      <contour>
        <pt x="289" y="964" on="1"/>
        <pt x="298" y="964" on="0"/>
        <pt x="324" y="950" on="0"/>
        <pt x="353" y="927" on="0"/>
        <pt x="385" y="898" on="0"/>
        <pt x="400" y="882" on="1"/>
        <pt x="421" y="898" on="0"/>
        <pt x="466" y="927" on="0"/>
        <pt x="505" y="950" on="0"/>
        <pt x="536" y="964" on="0"/>
        <pt x="545" y="964" on="1"/>
        <pt x="552" y="964" on="0"/>
        <pt x="569" y="953" on="0"/>
        <pt x="584" y="938" on="0"/>
        <pt x="595" y="924" on="0"/>
        <pt x="595" y="921" on="1"/>
        <pt x="595" y="918" on="0"/>
        <pt x="569" y="893" on="0"/>
        <pt x="530" y="856" on="0"/>
        <pt x="484" y="814" on="0"/>
        <pt x="463" y="795" on="1"/>
        <pt x="455" y="788" on="0"/>
        <pt x="409" y="780" on="0"/>
        <pt x="387" y="780" on="1"/>
        <pt x="374" y="780" on="0"/>
        <pt x="339" y="786" on="0"/>
        <pt x="334" y="795" on="1"/>
        <pt x="316" y="816" on="0"/>
        <pt x="280" y="859" on="0"/>
        <pt x="252" y="895" on="0"/>
        <pt x="234" y="919" on="0"/>
        <pt x="234" y="921" on="1"/>
        <pt x="234" y="923" on="0"/>
        <pt x="246" y="937" on="0"/>
        <pt x="263" y="952" on="0"/>
        <pt x="282" y="964" on="0"/>
      </contour>
    </TTGlyph>
    <TTGlyph name="Ncommaaccent" xMin="51" yMin="-200" xMax="640" yMax="710">
      <contour>
        <pt x="499" y="0" on="1"/>
        <pt x="458" y="0" on="0"/>
        <pt x="418" y="24" on="0"/>
        <pt x="409" y="42" on="1"/>
        <pt x="357" y="149" on="0"/>
        <pt x="266" y="345" on="0"/>
        <pt x="219" y="445" on="1"/>
        <pt x="220" y="337" on="0"/>
        <pt x="224" y="123" on="0"/>
        <pt x="226" y="15" on="1"/>
        <pt x="226" y="0" on="0"/>
        <pt x="210" y="0" on="1"/>
        <pt x="155" y="0" on="1"/>
        <pt x="98" y="0" on="0"/>
        <pt x="51" y="45" on="0"/>
        <pt x="51" y="89" on="1"/>
        <pt x="51" y="101" on="0"/>
        <pt x="54" y="158" on="0"/>
        <pt x="60" y="236" on="0"/>
        <pt x="67" y="329" on="0"/>
        <pt x="71" y="377" on="1"/>
        <pt x="77" y="453" on="0"/>
        <pt x="85" y="553" on="0"/>
        <pt x="90" y="622" on="0"/>
        <pt x="92" y="671" on="0"/>
        <pt x="93" y="695" on="1"/>
        <pt x="93" y="710" on="0"/>
        <pt x="109" y="710" on="1"/>
        <pt x="189" y="710" on="1"/>
        <pt x="222" y="710" on="0"/>
        <pt x="264" y="695" on="0"/>
        <pt x="291" y="669" on="0"/>
        <pt x="307" y="636" on="0"/>
        <pt x="314" y="618" on="1"/>
        <pt x="338" y="556" on="0"/>
        <pt x="375" y="466" on="0"/>
        <pt x="403" y="398" on="0"/>
        <pt x="424" y="348" on="0"/>
        <pt x="442" y="306" on="0"/>
        <pt x="460" y="267" on="0"/>
        <pt x="470" y="244" on="1"/>
        <pt x="470" y="303" on="0"/>
        <pt x="469" y="428" on="0"/>
        <pt x="468" y="547" on="0"/>
        <pt x="467" y="657" on="0"/>
        <pt x="467" y="701" on="1"/>
        <pt x="467" y="710" on="0"/>
        <pt x="484" y="710" on="1"/>
        <pt x="539" y="710" on="1"/>
        <pt x="572" y="710" on="0"/>
        <pt x="611" y="697" on="0"/>
        <pt x="633" y="672" on="0"/>
        <pt x="640" y="636" on="0"/>
        <pt x="640" y="613" on="1"/>
        <pt x="640" y="588" on="0"/>
        <pt x="634" y="485" on="0"/>
        <pt x="626" y="357" on="0"/>
        <pt x="616" y="220" on="0"/>
        <pt x="607" y="104" on="0"/>
        <pt x="600" y="23" on="0"/>
        <pt x="599" y="16" on="1"/>
        <pt x="599" y="8" on="0"/>
        <pt x="588" y="0" on="0"/>
        <pt x="581" y="0" on="1"/>
      </contour>
      <contour>
        <pt x="292" y="-131" on="1"/>
        <pt x="269" y="-131" on="0"/>
        <pt x="252" y="-109" on="0"/>
        <pt x="252" y="-92" on="1"/>
        <pt x="252" y="-66" on="0"/>
        <pt x="283" y="-40" on="0"/>
        <pt x="311" y="-40" on="1"/>
        <pt x="343" y="-40" on="0"/>
        <pt x="364" y="-73" on="0"/>
        <pt x="364" y="-96" on="1"/>
        <pt x="364" y="-116" on="0"/>
        <pt x="353" y="-154" on="0"/>
        <pt x="334" y="-183" on="0"/>
        <pt x="306" y="-200" on="0"/>
        <pt x="290" y="-200" on="1"/>
        <pt x="270" y="-200" on="0"/>
        <pt x="260" y="-180" on="0"/>
        <pt x="260" y="-168" on="1"/>
        <pt x="260" y="-167" on="0"/>
        <pt x="270" y="-159" on="0"/>
        <pt x="282" y="-149" on="0"/>
        <pt x="292" y="-137" on="0"/>
      </contour>
    </TTGlyph>
</ttFont>
